{"glyphs":{"0":{"ha":826,"x_min":90,"x_max":736,"o":"m 414 -18 q 171 110 251 -18 q 90 483 90 239 q 171 855 90 726 q 414 983 251 983 q 656 856 576 983 q 736 483 736 728 q 414 -18 736 -18 m 414 92 q 577 194 535 92 q 619 483 619 296 q 577 772 619 671 q 413 874 535 874 q 254 779 301 874 q 207 478 207 685 q 250 193 207 294 q 414 92 293 92 z "},"1":{"ha":597,"x_min":69,"x_max":549,"o":"m 89 0 q 75 6 81 0 q 69 19 69 11 l 69 82 q 75 96 69 90 q 89 101 81 101 l 256 101 l 256 821 l 132 821 q 118 826 124 821 q 113 840 113 832 l 113 885 l 303 983 l 343 983 q 357 978 351 983 q 363 964 363 972 l 363 101 l 529 101 q 543 96 538 101 q 549 82 549 90 l 549 19 q 543 6 549 11 q 529 0 538 0 l 89 0 z "},"2":{"ha":704,"x_min":76,"x_max":628,"o":"m 126 0 q 91 14 106 0 q 76 47 76 28 l 76 167 q 103 317 76 263 q 186 413 131 372 q 382 538 242 454 q 483 620 449 576 q 517 722 517 664 q 469 836 517 794 q 344 878 422 878 q 154 819 254 878 q 142 815 149 815 q 126 826 133 815 l 97 875 q 93 888 93 882 q 106 908 93 903 q 225 963 161 943 q 353 982 289 982 q 553 915 479 982 q 628 733 628 847 q 603 613 628 664 q 533 521 578 561 q 417 433 489 481 q 377 408 394 418 q 349 390 360 397 q 248 323 279 347 q 201 265 217 299 q 185 178 185 232 l 185 106 l 575 106 q 586 101 582 106 q 590 89 590 96 l 590 17 q 586 5 590 10 q 575 0 582 0 l 126 0 z "},"3":{"ha":735,"x_min":28,"x_max":658,"o":"m 336 -17 q 161 28 243 -17 q 31 150 79 72 q 28 161 28 156 q 39 182 28 174 l 86 215 q 100 219 93 219 q 122 207 114 219 q 221 119 164 151 q 336 86 278 86 q 443 115 394 86 q 520 194 492 144 q 549 303 549 244 q 520 410 549 361 q 444 487 492 458 q 342 515 397 515 q 319 514 326 515 l 290 475 q 275 467 286 467 q 264 471 268 467 l 211 508 q 204 522 204 513 q 208 535 204 531 l 440 860 l 128 860 q 114 865 119 860 q 108 879 108 871 l 108 946 q 114 960 108 954 q 128 965 119 965 l 521 965 q 569 947 550 965 q 588 904 588 929 q 574 864 588 883 l 390 611 q 528 556 467 600 q 624 447 589 513 q 658 303 658 381 q 615 143 658 217 q 497 26 571 69 q 336 -17 422 -17 z "},"4":{"ha":779,"x_min":56,"x_max":710,"o":"m 507 0 q 493 6 499 0 q 488 19 488 11 l 488 240 l 96 240 q 67 252 79 240 q 56 281 56 264 l 56 339 l 432 949 q 444 960 436 956 q 461 965 453 965 l 564 965 q 585 957 576 965 q 593 936 593 949 l 593 342 l 690 342 q 704 336 699 342 q 710 322 710 331 l 710 260 q 704 246 710 251 q 690 240 699 240 l 593 240 l 593 19 q 588 6 593 11 q 574 0 582 0 l 507 0 m 488 342 l 488 851 l 174 342 l 488 342 z "},"5":{"ha":750,"x_min":42,"x_max":681,"o":"m 354 -24 q 177 22 260 -24 q 44 147 94 68 q 42 158 42 150 q 51 175 42 169 l 99 210 q 114 214 106 214 q 136 203 129 214 q 234 113 175 146 q 354 79 293 79 q 465 108 414 79 q 544 189 515 138 q 574 301 574 240 q 544 411 574 361 q 467 490 515 461 q 360 518 418 518 q 190 451 271 518 q 160 444 176 440 l 121 456 q 110 464 114 457 q 108 479 107 471 l 179 925 q 195 954 182 943 q 226 965 208 965 l 593 965 q 607 960 601 965 q 613 946 613 954 l 613 882 q 607 868 613 874 q 593 863 601 863 l 272 863 l 229 586 q 365 618 297 618 q 522 576 450 618 q 638 460 594 533 q 681 301 681 388 q 636 139 681 214 q 517 20 592 64 q 354 -24 442 -24 z "},"6":{"ha":797,"x_min":97,"x_max":721,"o":"m 408 -18 q 251 23 322 -18 q 138 135 179 64 q 97 293 97 207 q 108 537 97 443 q 154 708 118 631 q 322 897 213 829 q 569 965 432 965 q 585 960 579 965 q 590 946 590 954 l 590 883 q 585 870 590 876 q 572 864 579 864 q 390 818 469 864 q 263 690 310 772 q 210 499 215 607 q 302 576 240 546 q 422 606 364 606 q 574 563 506 606 q 682 449 643 521 q 721 293 721 378 q 678 138 721 210 q 565 24 636 67 q 408 -18 493 -18 m 408 85 q 509 113 463 85 q 583 190 556 142 q 611 293 611 238 q 583 397 611 349 q 509 474 556 446 q 408 503 463 503 q 307 475 353 503 q 235 399 261 447 q 208 293 208 351 q 235 187 208 235 q 307 112 261 139 q 408 85 353 85 z "},"7":{"ha":631,"x_min":42,"x_max":575,"o":"m 169 0 q 151 18 151 0 q 154 32 151 21 l 469 860 l 61 860 q 47 865 53 860 q 42 879 42 871 l 42 946 q 47 960 42 954 q 61 965 53 965 l 525 965 q 560 951 546 965 q 575 915 575 936 l 575 843 l 264 19 q 255 6 261 11 q 240 0 249 0 l 169 0 z "},"8":{"ha":818,"x_min":76,"x_max":742,"o":"m 408 -18 q 240 22 317 -18 q 120 129 164 61 q 76 281 76 197 q 113 422 76 354 q 215 533 150 489 q 147 616 171 565 q 124 726 124 667 q 162 856 124 797 q 265 950 200 915 q 408 985 331 985 q 553 951 488 985 q 656 861 618 918 q 694 735 694 804 q 667 607 694 668 q 593 506 640 546 q 703 410 664 471 q 742 275 742 349 q 697 127 742 194 q 576 21 653 60 q 408 -18 500 -18 m 501 542 q 558 616 533 565 q 583 726 583 667 q 558 812 583 776 q 492 866 532 847 q 408 885 451 885 q 286 839 336 885 q 236 726 236 793 q 272 633 236 668 q 362 579 308 597 q 501 542 415 561 m 408 82 q 520 108 469 82 q 600 181 571 135 q 629 281 629 226 q 594 377 629 342 q 508 431 560 413 q 360 471 456 449 l 306 483 q 221 401 253 457 q 189 283 189 346 q 217 181 189 226 q 296 108 246 135 q 408 82 346 82 z "},"9":{"ha":797,"x_min":76,"x_max":700,"o":"m 228 0 q 213 6 218 0 q 207 19 207 11 l 207 82 q 213 95 207 89 q 225 101 218 101 q 408 147 328 101 q 535 276 488 193 q 588 467 582 358 q 495 390 557 419 q 375 360 433 360 q 223 402 292 360 q 115 516 154 444 q 76 672 76 588 q 119 827 76 756 q 233 941 161 899 q 389 983 304 983 q 547 942 475 983 q 659 830 618 901 q 700 672 700 758 q 690 428 700 522 q 643 257 679 335 q 475 68 585 136 q 228 0 365 0 m 389 463 q 490 490 444 463 q 563 566 536 518 q 589 672 589 614 q 563 778 589 731 q 490 853 536 826 q 389 881 444 881 q 288 852 335 881 q 214 776 242 824 q 186 672 186 728 q 214 568 186 617 q 288 491 242 519 q 389 463 335 463 z "}," ":{"ha":375,"x_min":0,"x_max":0,"o":""},"A":{"ha":847,"x_min":46,"x_max":799,"o":"m 71 0 q 52 9 58 0 q 50 31 46 18 l 351 947 q 362 960 354 956 q 378 965 369 965 l 469 965 q 485 960 478 965 q 496 947 493 956 l 797 31 q 799 21 799 28 q 792 6 799 13 q 776 0 786 0 l 708 0 q 692 5 700 0 q 682 18 685 10 l 604 260 l 243 260 l 165 18 q 156 5 164 10 q 139 0 147 0 l 71 0 m 572 361 l 424 821 l 275 361 l 572 361 z "},"Á":{"ha":847,"x_min":46,"x_max":799,"o":"m 71 0 q 52 9 58 0 q 50 31 46 18 l 351 947 q 362 960 354 956 q 378 965 369 965 l 469 965 q 485 960 478 965 q 496 947 493 956 l 797 31 q 799 21 799 28 q 792 6 799 13 q 776 0 786 0 l 708 0 q 692 5 700 0 q 682 18 685 10 l 604 260 l 243 260 l 165 18 q 156 5 164 10 q 139 0 147 0 l 71 0 m 572 361 l 424 821 l 275 361 l 572 361 m 404 1044 q 389 1052 393 1044 q 389 1071 385 1060 l 440 1196 q 479 1222 451 1222 l 572 1222 q 586 1217 581 1222 q 592 1204 592 1213 q 586 1190 592 1196 l 474 1061 q 438 1044 460 1044 l 404 1044 z "},"Ă":{"ha":847,"x_min":46,"x_max":799,"o":"m 71 0 q 52 9 58 0 q 50 31 46 18 l 351 947 q 362 960 354 956 q 378 965 369 965 l 469 965 q 485 960 478 965 q 496 947 493 956 l 797 31 q 799 21 799 28 q 792 6 799 13 q 776 0 786 0 l 708 0 q 692 5 700 0 q 682 18 685 10 l 604 260 l 243 260 l 165 18 q 156 5 164 10 q 139 0 147 0 l 71 0 m 572 361 l 424 821 l 275 361 l 572 361 m 426 1060 q 315 1085 363 1060 q 251 1136 268 1111 q 246 1150 246 1147 q 254 1164 246 1158 l 299 1203 q 307 1207 303 1207 q 318 1201 313 1207 q 343 1181 319 1200 q 428 1163 367 1163 q 485 1172 461 1163 q 536 1203 508 1182 q 554 1203 546 1211 l 599 1163 q 606 1149 606 1156 q 601 1136 606 1143 q 569 1106 593 1124 q 508 1074 546 1088 q 426 1060 471 1060 z "},"Â":{"ha":847,"x_min":46,"x_max":799,"o":"m 71 0 q 52 9 58 0 q 50 31 46 18 l 351 947 q 362 960 354 956 q 378 965 369 965 l 469 965 q 485 960 478 965 q 496 947 493 956 l 797 31 q 799 21 799 28 q 792 6 799 13 q 776 0 786 0 l 708 0 q 692 5 700 0 q 682 18 685 10 l 604 260 l 243 260 l 165 18 q 156 5 164 10 q 139 0 147 0 l 71 0 m 572 361 l 424 821 l 275 361 l 572 361 m 256 1044 q 240 1053 244 1044 q 242 1071 235 1063 l 354 1210 q 379 1222 363 1222 l 468 1222 q 493 1210 485 1222 l 606 1071 q 610 1061 610 1067 q 605 1049 610 1054 q 592 1044 600 1044 l 546 1044 q 511 1058 529 1044 l 424 1126 l 336 1058 q 303 1044 318 1044 l 256 1044 z "},"Ä":{"ha":847,"x_min":46,"x_max":799,"o":"m 71 0 q 52 9 58 0 q 50 31 46 18 l 351 947 q 362 960 354 956 q 378 965 369 965 l 469 965 q 485 960 478 965 q 496 947 493 956 l 797 31 q 799 21 799 28 q 792 6 799 13 q 776 0 786 0 l 708 0 q 692 5 700 0 q 682 18 685 10 l 604 260 l 243 260 l 165 18 q 156 5 164 10 q 139 0 147 0 l 71 0 m 572 361 l 424 821 l 275 361 l 572 361 m 222 1063 q 208 1068 214 1063 q 203 1082 203 1074 l 203 1203 q 208 1217 203 1211 q 222 1222 214 1222 l 289 1222 q 303 1217 297 1222 q 308 1203 308 1211 l 308 1082 q 303 1068 308 1074 q 289 1063 297 1063 l 222 1063 m 558 1063 q 544 1068 550 1063 q 539 1082 539 1074 l 539 1203 q 544 1217 539 1211 q 558 1222 550 1222 l 625 1222 q 639 1217 633 1222 q 644 1203 644 1211 l 644 1082 q 639 1068 644 1074 q 625 1063 633 1063 l 558 1063 z "},"À":{"ha":847,"x_min":46,"x_max":799,"o":"m 71 0 q 52 9 58 0 q 50 31 46 18 l 351 947 q 362 960 354 956 q 378 965 369 965 l 469 965 q 485 960 478 965 q 496 947 493 956 l 797 31 q 799 21 799 28 q 792 6 799 13 q 776 0 786 0 l 708 0 q 692 5 700 0 q 682 18 685 10 l 604 260 l 243 260 l 165 18 q 156 5 164 10 q 139 0 147 0 l 71 0 m 572 361 l 424 821 l 275 361 l 572 361 m 422 1044 q 386 1061 400 1044 l 274 1190 q 268 1204 268 1196 q 273 1217 268 1213 q 288 1222 278 1222 l 381 1222 q 419 1196 408 1222 l 471 1071 q 474 1061 474 1063 q 469 1049 474 1054 q 456 1044 464 1044 l 422 1044 z "},"Ā":{"ha":847,"x_min":46,"x_max":799,"o":"m 71 0 q 52 9 58 0 q 50 31 46 18 l 351 947 q 362 960 354 956 q 378 965 369 965 l 469 965 q 485 960 478 965 q 496 947 493 956 l 797 31 q 799 21 799 28 q 792 6 799 13 q 776 0 786 0 l 708 0 q 692 5 700 0 q 682 18 685 10 l 604 260 l 243 260 l 165 18 q 156 5 164 10 q 139 0 147 0 l 71 0 m 572 361 l 424 821 l 275 361 l 572 361 m 242 1089 q 228 1094 233 1089 q 222 1107 222 1099 l 222 1158 q 228 1172 222 1167 q 242 1176 233 1176 l 603 1176 q 617 1172 611 1176 q 622 1158 622 1167 l 622 1107 q 617 1094 622 1099 q 603 1089 611 1089 l 242 1089 z "},"Ą":{"ha":853,"x_min":46,"x_max":814,"o":"m 738 -274 q 631 -241 675 -274 q 588 -156 588 -208 q 616 -67 588 -110 q 685 10 644 -24 l 604 260 l 243 260 l 165 18 q 156 5 164 10 q 139 0 147 0 l 71 0 q 52 9 58 0 q 50 31 46 18 l 351 947 q 362 960 354 956 q 378 965 369 965 l 469 965 q 485 960 478 965 q 496 947 493 956 l 789 60 q 792 43 792 49 q 775 6 792 22 q 715 -69 732 -40 q 697 -125 697 -99 q 756 -176 697 -176 l 793 -176 q 808 -183 801 -176 q 814 -197 814 -189 l 814 -253 q 808 -267 814 -261 q 793 -274 801 -274 l 738 -274 m 571 361 l 424 821 l 275 361 l 571 361 z "},"Å":{"ha":847,"x_min":46,"x_max":799,"o":"m 424 1026 q 343 1060 376 1026 q 310 1140 310 1093 q 343 1221 310 1188 q 424 1254 376 1254 q 504 1221 471 1254 q 538 1140 538 1188 q 504 1060 538 1093 q 424 1026 471 1026 m 424 1100 q 452 1112 440 1100 q 464 1140 464 1124 q 452 1169 464 1157 q 424 1181 440 1181 q 395 1169 407 1181 q 383 1140 383 1157 q 395 1112 383 1124 q 424 1100 407 1100 m 71 0 q 52 9 58 0 q 50 31 46 18 l 351 947 q 362 960 354 956 q 378 965 369 965 l 469 965 q 485 960 478 965 q 496 947 493 956 l 797 31 q 799 21 799 28 q 792 6 799 13 q 776 0 786 0 l 708 0 q 692 5 700 0 q 682 18 685 10 l 604 260 l 243 260 l 165 18 q 156 5 164 10 q 139 0 147 0 l 71 0 m 572 361 l 424 821 l 275 361 l 572 361 z "},"Ã":{"ha":847,"x_min":46,"x_max":799,"o":"m 71 0 q 52 9 58 0 q 50 31 46 18 l 351 947 q 362 960 354 956 q 378 965 369 965 l 469 965 q 485 960 478 965 q 496 947 493 956 l 797 31 q 799 21 799 28 q 792 6 799 13 q 776 0 786 0 l 708 0 q 692 5 700 0 q 682 18 685 10 l 604 260 l 243 260 l 165 18 q 156 5 164 10 q 139 0 147 0 l 71 0 m 572 361 l 424 821 l 275 361 l 572 361 m 515 1061 q 467 1068 492 1061 q 410 1088 443 1075 q 338 1107 354 1107 q 309 1101 319 1107 q 290 1083 299 1096 q 283 1076 286 1076 q 271 1076 279 1075 l 232 1089 q 221 1107 219 1093 q 269 1177 232 1150 q 353 1204 306 1204 q 400 1197 376 1204 q 460 1178 424 1190 q 532 1157 511 1157 q 578 1181 563 1157 q 588 1189 583 1188 q 600 1188 592 1190 l 638 1176 q 649 1158 653 1171 q 601 1088 639 1115 q 515 1061 564 1061 z "},"Æ":{"ha":1210,"x_min":0,"x_max":1133,"o":"m 19 0 q 6 5 11 0 q 0 17 0 10 q 6 31 0 24 l 599 947 q 631 965 610 965 l 1114 965 q 1128 960 1122 965 q 1133 946 1133 954 l 1133 878 q 1128 864 1133 869 q 1114 858 1122 858 l 721 858 l 721 561 l 1021 561 q 1035 556 1029 561 q 1040 542 1040 550 l 1040 476 q 1035 463 1040 468 q 1021 457 1029 457 l 721 457 l 721 107 l 1114 107 q 1128 101 1122 107 q 1133 88 1133 96 l 1133 19 q 1128 6 1133 11 q 1114 0 1122 0 l 657 0 q 622 15 636 0 q 607 50 607 29 l 607 260 l 285 260 l 132 18 q 99 0 121 0 l 19 0 m 607 361 l 607 767 l 350 361 l 607 361 z "},"B":{"ha":788,"x_min":125,"x_max":732,"o":"m 175 0 q 140 15 154 0 q 125 50 125 29 l 125 915 q 140 951 125 936 q 175 965 154 965 l 415 965 q 544 934 486 965 q 635 847 603 903 q 668 721 668 790 q 644 613 668 663 q 574 526 619 563 q 690 431 647 496 q 732 283 732 365 q 694 140 732 204 q 592 38 657 75 q 450 0 528 0 l 175 0 m 397 553 q 509 601 463 553 q 556 714 556 649 q 513 819 556 776 q 404 863 469 863 l 236 863 l 236 553 l 397 553 m 443 104 q 567 154 518 104 q 617 278 617 204 q 567 400 617 351 q 443 449 518 449 l 236 449 l 236 104 l 443 104 z "},"C":{"ha":758,"x_min":97,"x_max":686,"o":"m 429 -18 q 263 28 339 -18 q 142 151 186 74 q 97 321 97 229 l 97 646 q 142 815 97 738 q 263 939 186 893 q 429 985 339 985 q 567 959 503 985 q 679 885 631 933 q 686 868 686 879 q 679 850 686 858 q 642 808 650 817 q 622 801 632 801 q 601 811 611 801 q 431 878 532 878 q 321 846 371 878 q 242 760 271 814 q 213 646 213 707 l 213 321 q 242 206 213 260 q 321 121 271 153 q 431 89 371 89 q 601 156 532 89 q 622 165 611 165 q 642 158 632 165 q 679 117 650 150 q 686 99 686 110 q 679 82 686 89 q 567 8 631 33 q 429 -18 503 -18 z "},"Ć":{"ha":758,"x_min":97,"x_max":686,"o":"m 429 -18 q 263 28 339 -18 q 142 151 186 74 q 97 321 97 229 l 97 646 q 142 815 97 738 q 263 939 186 893 q 429 985 339 985 q 567 959 503 985 q 679 885 631 933 q 686 868 686 879 q 679 850 686 858 q 642 808 650 817 q 622 801 632 801 q 601 811 611 801 q 431 878 532 878 q 321 846 371 878 q 242 760 271 814 q 213 646 213 707 l 213 321 q 242 206 213 260 q 321 121 271 153 q 431 89 371 89 q 601 156 532 89 q 622 165 611 165 q 642 158 632 165 q 679 117 650 150 q 686 99 686 110 q 679 82 686 89 q 567 8 631 33 q 429 -18 503 -18 m 410 1044 q 394 1052 399 1044 q 394 1071 390 1060 l 446 1196 q 485 1222 457 1222 l 578 1222 q 592 1217 586 1222 q 597 1204 597 1213 q 592 1190 597 1196 l 479 1061 q 443 1044 465 1044 l 410 1044 z "},"Č":{"ha":758,"x_min":97,"x_max":686,"o":"m 429 -18 q 263 28 339 -18 q 142 151 186 74 q 97 321 97 229 l 97 646 q 142 815 97 738 q 263 939 186 893 q 429 985 339 985 q 567 959 503 985 q 679 885 631 933 q 686 868 686 879 q 679 850 686 858 q 642 808 650 817 q 622 801 632 801 q 601 811 611 801 q 431 878 532 878 q 321 846 371 878 q 242 760 271 814 q 213 646 213 707 l 213 321 q 242 206 213 260 q 321 121 271 153 q 431 89 371 89 q 601 156 532 89 q 622 165 611 165 q 642 158 632 165 q 679 117 650 150 q 686 99 686 110 q 679 82 686 89 q 567 8 631 33 q 429 -18 503 -18 m 390 1044 q 365 1057 374 1044 l 253 1196 q 249 1206 249 1200 q 253 1217 249 1213 q 267 1222 258 1222 l 313 1222 q 347 1208 329 1222 l 435 1140 l 522 1208 q 556 1222 540 1222 l 603 1222 q 619 1213 614 1222 q 617 1196 624 1204 l 504 1057 q 479 1044 496 1044 l 390 1044 z "},"Ç":{"ha":758,"x_min":97,"x_max":686,"o":"m 429 -18 q 263 28 339 -18 q 142 151 186 74 q 97 321 97 229 l 97 646 q 142 815 97 738 q 263 939 186 893 q 429 985 339 985 q 567 959 503 985 q 679 885 631 933 q 686 868 686 879 q 679 850 686 858 q 642 808 650 817 q 622 801 632 801 q 601 811 611 801 q 431 878 532 878 q 321 846 371 878 q 242 760 271 814 q 213 646 213 707 l 213 321 q 242 206 213 260 q 321 121 271 153 q 431 89 371 89 q 601 156 532 89 q 622 165 611 165 q 642 158 632 165 q 679 117 650 150 q 686 99 686 110 q 679 82 686 89 q 567 8 631 33 q 429 -18 503 -18 m 357 -290 q 335 -276 342 -290 l 315 -228 q 314 -221 314 -225 q 326 -206 314 -211 q 372 -136 372 -187 l 372 -110 q 377 -96 372 -101 q 390 -90 382 -90 l 463 -90 q 479 -97 472 -90 q 486 -115 486 -104 l 486 -131 q 447 -237 486 -197 q 363 -290 408 -276 l 357 -290 z "},"Ċ":{"ha":758,"x_min":97,"x_max":686,"o":"m 429 -18 q 263 28 339 -18 q 142 151 186 74 q 97 321 97 229 l 97 646 q 142 815 97 738 q 263 939 186 893 q 429 985 339 985 q 567 959 503 985 q 679 885 631 933 q 686 868 686 879 q 679 850 686 858 q 642 808 650 817 q 622 801 632 801 q 601 811 611 801 q 431 878 532 878 q 321 846 371 878 q 242 760 271 814 q 213 646 213 707 l 213 321 q 242 206 213 260 q 321 121 271 153 q 431 89 371 89 q 601 156 532 89 q 622 165 611 165 q 642 158 632 165 q 679 117 650 150 q 686 99 686 110 q 679 82 686 89 q 567 8 631 33 q 429 -18 503 -18 m 396 1063 q 382 1068 388 1063 q 376 1082 376 1074 l 376 1203 q 382 1217 376 1211 q 396 1222 388 1222 l 463 1222 q 476 1217 471 1222 q 482 1203 482 1211 l 482 1082 q 476 1068 482 1074 q 463 1063 471 1063 l 396 1063 z "},"D":{"ha":875,"x_min":125,"x_max":785,"o":"m 175 0 q 140 15 154 0 q 125 50 125 29 l 125 915 q 140 951 125 936 q 175 965 154 965 l 422 965 q 604 916 521 965 q 736 783 688 867 q 785 599 785 699 l 785 367 q 736 183 785 267 q 604 49 688 99 q 422 0 521 0 l 175 0 m 422 107 q 547 140 490 107 q 638 231 604 174 q 671 357 671 289 l 671 610 q 638 735 671 678 q 547 825 604 792 q 422 858 490 858 l 239 858 l 239 107 l 422 107 z "},"Ð":{"ha":875,"x_min":18,"x_max":785,"o":"m 422 965 q 604 916 521 965 q 736 783 688 867 q 785 599 785 699 l 785 367 q 736 183 785 267 q 604 49 688 99 q 422 0 521 0 l 175 0 q 140 15 154 0 q 125 50 125 29 l 125 436 l 38 436 q 24 442 29 436 q 18 456 18 447 l 18 513 q 24 526 18 521 q 38 532 29 532 l 125 532 l 125 915 q 140 951 125 936 q 175 965 154 965 l 422 965 m 671 610 q 638 735 671 678 q 547 825 604 792 q 422 858 490 858 l 239 858 l 239 532 l 429 532 q 443 526 438 532 q 449 513 449 521 l 449 456 q 443 442 449 447 q 429 436 438 436 l 239 436 l 239 107 l 422 107 q 547 140 490 107 q 638 231 604 174 q 671 357 671 289 l 671 610 z "},"Ď":{"ha":875,"x_min":125,"x_max":785,"o":"m 175 0 q 140 15 154 0 q 125 50 125 29 l 125 915 q 140 951 125 936 q 175 965 154 965 l 422 965 q 604 916 521 965 q 736 783 688 867 q 785 599 785 699 l 785 367 q 736 183 785 267 q 604 49 688 99 q 422 0 521 0 l 175 0 m 422 107 q 547 140 490 107 q 638 231 604 174 q 671 357 671 289 l 671 610 q 638 735 671 678 q 547 825 604 792 q 422 858 490 858 l 239 858 l 239 107 l 422 107 m 342 1044 q 317 1057 325 1044 l 204 1196 q 200 1206 200 1200 q 205 1217 200 1213 q 218 1222 210 1222 l 264 1222 q 299 1208 281 1222 l 386 1140 l 474 1208 q 507 1222 492 1222 l 554 1222 q 570 1213 565 1222 q 568 1196 575 1204 l 456 1057 q 431 1044 447 1044 l 342 1044 z "},"Đ":{"ha":875,"x_min":18,"x_max":785,"o":"m 422 965 q 604 916 521 965 q 736 783 688 867 q 785 599 785 699 l 785 367 q 736 183 785 267 q 604 49 688 99 q 422 0 521 0 l 175 0 q 140 15 154 0 q 125 50 125 29 l 125 436 l 38 436 q 24 442 29 436 q 18 456 18 447 l 18 513 q 24 526 18 521 q 38 532 29 532 l 125 532 l 125 915 q 140 951 125 936 q 175 965 154 965 l 422 965 m 671 610 q 638 735 671 678 q 547 825 604 792 q 422 858 490 858 l 239 858 l 239 532 l 429 532 q 443 526 438 532 q 449 513 449 521 l 449 456 q 443 442 449 447 q 429 436 438 436 l 239 436 l 239 107 l 422 107 q 547 140 490 107 q 638 231 604 174 q 671 357 671 289 l 671 610 z "},"E":{"ha":728,"x_min":125,"x_max":651,"o":"m 175 0 q 140 15 154 0 q 125 50 125 29 l 125 915 q 140 951 125 936 q 175 965 154 965 l 632 965 q 646 960 640 965 q 651 946 651 954 l 651 878 q 646 864 651 869 q 632 858 640 858 l 239 858 l 239 561 l 539 561 q 553 556 547 561 q 558 542 558 550 l 558 476 q 553 463 558 468 q 539 457 547 457 l 239 457 l 239 107 l 632 107 q 646 101 640 107 q 651 88 651 96 l 651 19 q 646 6 651 11 q 632 0 640 0 l 175 0 z "},"É":{"ha":728,"x_min":125,"x_max":651,"o":"m 175 0 q 140 15 154 0 q 125 50 125 29 l 125 915 q 140 951 125 936 q 175 965 154 965 l 632 965 q 646 960 640 965 q 651 946 651 954 l 651 878 q 646 864 651 869 q 632 858 640 858 l 239 858 l 239 561 l 539 561 q 553 556 547 561 q 558 542 558 550 l 558 476 q 553 463 558 468 q 539 457 547 457 l 239 457 l 239 107 l 632 107 q 646 101 640 107 q 651 88 651 96 l 651 19 q 646 6 651 11 q 632 0 640 0 l 175 0 m 369 1044 q 354 1052 358 1044 q 354 1071 350 1060 l 406 1196 q 444 1222 417 1222 l 538 1222 q 551 1217 546 1222 q 557 1204 557 1213 q 551 1190 557 1196 l 439 1061 q 403 1044 425 1044 l 369 1044 z "},"Ě":{"ha":728,"x_min":125,"x_max":651,"o":"m 175 0 q 140 15 154 0 q 125 50 125 29 l 125 915 q 140 951 125 936 q 175 965 154 965 l 632 965 q 646 960 640 965 q 651 946 651 954 l 651 878 q 646 864 651 869 q 632 858 640 858 l 239 858 l 239 561 l 539 561 q 553 556 547 561 q 558 542 558 550 l 558 476 q 553 463 558 468 q 539 457 547 457 l 239 457 l 239 107 l 632 107 q 646 101 640 107 q 651 88 651 96 l 651 19 q 646 6 651 11 q 632 0 640 0 l 175 0 m 350 1044 q 325 1057 333 1044 l 213 1196 q 208 1206 208 1200 q 213 1217 208 1213 q 226 1222 218 1222 l 272 1222 q 307 1208 289 1222 l 394 1140 l 482 1208 q 515 1222 500 1222 l 563 1222 q 578 1213 574 1222 q 576 1196 583 1204 l 464 1057 q 439 1044 456 1044 l 350 1044 z "},"Ê":{"ha":728,"x_min":125,"x_max":651,"o":"m 175 0 q 140 15 154 0 q 125 50 125 29 l 125 915 q 140 951 125 936 q 175 965 154 965 l 632 965 q 646 960 640 965 q 651 946 651 954 l 651 878 q 646 864 651 869 q 632 858 640 858 l 239 858 l 239 561 l 539 561 q 553 556 547 561 q 558 542 558 550 l 558 476 q 553 463 558 468 q 539 457 547 457 l 239 457 l 239 107 l 632 107 q 646 101 640 107 q 651 88 651 96 l 651 19 q 646 6 651 11 q 632 0 640 0 l 175 0 m 221 1044 q 205 1053 210 1044 q 207 1071 200 1063 l 319 1210 q 344 1222 328 1222 l 433 1222 q 458 1210 450 1222 l 571 1071 q 575 1061 575 1067 q 570 1049 575 1054 q 557 1044 565 1044 l 511 1044 q 476 1058 494 1044 l 389 1126 l 301 1058 q 268 1044 283 1044 l 221 1044 z "},"Ë":{"ha":728,"x_min":125,"x_max":651,"o":"m 175 0 q 140 15 154 0 q 125 50 125 29 l 125 915 q 140 951 125 936 q 175 965 154 965 l 632 965 q 646 960 640 965 q 651 946 651 954 l 651 878 q 646 864 651 869 q 632 858 640 858 l 239 858 l 239 561 l 539 561 q 553 556 547 561 q 558 542 558 550 l 558 476 q 553 463 558 468 q 539 457 547 457 l 239 457 l 239 107 l 632 107 q 646 101 640 107 q 651 88 651 96 l 651 19 q 646 6 651 11 q 632 0 640 0 l 175 0 m 188 1063 q 174 1068 179 1063 q 168 1082 168 1074 l 168 1203 q 174 1217 168 1211 q 188 1222 179 1222 l 254 1222 q 268 1217 263 1222 q 274 1203 274 1211 l 274 1082 q 268 1068 274 1074 q 254 1063 263 1063 l 188 1063 m 524 1063 q 510 1068 515 1063 q 504 1082 504 1074 l 504 1203 q 510 1217 504 1211 q 524 1222 515 1222 l 590 1222 q 604 1217 599 1222 q 610 1203 610 1211 l 610 1082 q 604 1068 610 1074 q 590 1063 599 1063 l 524 1063 z "},"Ė":{"ha":728,"x_min":125,"x_max":651,"o":"m 175 0 q 140 15 154 0 q 125 50 125 29 l 125 915 q 140 951 125 936 q 175 965 154 965 l 632 965 q 646 960 640 965 q 651 946 651 954 l 651 878 q 646 864 651 869 q 632 858 640 858 l 239 858 l 239 561 l 539 561 q 553 556 547 561 q 558 542 558 550 l 558 476 q 553 463 558 468 q 539 457 547 457 l 239 457 l 239 107 l 632 107 q 646 101 640 107 q 651 88 651 96 l 651 19 q 646 6 651 11 q 632 0 640 0 l 175 0 m 356 1063 q 342 1068 347 1063 q 336 1082 336 1074 l 336 1203 q 342 1217 336 1211 q 356 1222 347 1222 l 422 1222 q 436 1217 431 1222 q 442 1203 442 1211 l 442 1082 q 436 1068 442 1074 q 422 1063 431 1063 l 356 1063 z "},"È":{"ha":728,"x_min":125,"x_max":651,"o":"m 175 0 q 140 15 154 0 q 125 50 125 29 l 125 915 q 140 951 125 936 q 175 965 154 965 l 632 965 q 646 960 640 965 q 651 946 651 954 l 651 878 q 646 864 651 869 q 632 858 640 858 l 239 858 l 239 561 l 539 561 q 553 556 547 561 q 558 542 558 550 l 558 476 q 553 463 558 468 q 539 457 547 457 l 239 457 l 239 107 l 632 107 q 646 101 640 107 q 651 88 651 96 l 651 19 q 646 6 651 11 q 632 0 640 0 l 175 0 m 388 1044 q 351 1061 365 1044 l 239 1190 q 233 1204 233 1196 q 238 1217 233 1213 q 253 1222 243 1222 l 346 1222 q 385 1196 374 1222 l 436 1071 q 439 1061 439 1063 q 434 1049 439 1054 q 421 1044 429 1044 l 388 1044 z "},"Ē":{"ha":728,"x_min":125,"x_max":651,"o":"m 175 0 q 140 15 154 0 q 125 50 125 29 l 125 915 q 140 951 125 936 q 175 965 154 965 l 632 965 q 646 960 640 965 q 651 946 651 954 l 651 878 q 646 864 651 869 q 632 858 640 858 l 239 858 l 239 561 l 539 561 q 553 556 547 561 q 558 542 558 550 l 558 476 q 553 463 558 468 q 539 457 547 457 l 239 457 l 239 107 l 632 107 q 646 101 640 107 q 651 88 651 96 l 651 19 q 646 6 651 11 q 632 0 640 0 l 175 0 m 207 1089 q 193 1094 199 1089 q 188 1107 188 1099 l 188 1158 q 193 1172 188 1167 q 207 1176 199 1176 l 568 1176 q 582 1172 576 1176 q 588 1158 588 1167 l 588 1107 q 582 1094 588 1099 q 568 1089 576 1089 l 207 1089 z "},"Ę":{"ha":739,"x_min":125,"x_max":663,"o":"m 596 -274 q 490 -241 533 -274 q 446 -156 446 -208 q 473 -73 446 -112 q 539 0 500 -33 l 175 0 q 140 15 154 0 q 125 50 125 29 l 125 915 q 140 951 125 936 q 175 965 154 965 l 632 965 q 646 960 640 965 q 651 946 651 954 l 651 878 q 646 864 651 869 q 632 858 640 858 l 239 858 l 239 561 l 539 561 q 553 556 547 561 q 558 542 558 550 l 558 476 q 553 463 558 468 q 539 457 547 457 l 239 457 l 239 107 l 632 107 q 646 101 640 107 q 651 88 651 96 l 651 39 q 633 0 651 18 q 574 -68 593 -42 q 556 -125 556 -94 q 614 -176 556 -176 l 642 -176 q 656 -183 650 -176 q 663 -197 663 -189 l 663 -253 q 656 -267 663 -261 q 642 -274 650 -274 l 596 -274 z "},"F":{"ha":707,"x_min":125,"x_max":651,"o":"m 144 0 q 131 6 136 0 q 125 19 125 11 l 125 915 q 140 951 125 936 q 175 965 154 965 l 632 965 q 646 960 640 965 q 651 946 651 954 l 651 878 q 646 864 651 869 q 632 858 640 858 l 239 858 l 239 533 l 539 533 q 553 528 547 533 q 558 514 558 522 l 558 449 q 553 435 558 440 q 539 429 547 429 l 239 429 l 239 19 q 233 6 239 11 q 219 0 228 0 l 144 0 z "},"G":{"ha":857,"x_min":97,"x_max":774,"o":"m 436 -17 q 267 29 344 -17 q 143 153 189 75 q 97 322 97 231 l 97 646 q 143 815 97 738 q 267 939 189 893 q 436 985 344 985 q 579 958 513 985 q 694 883 646 932 q 701 867 701 878 q 694 849 701 857 q 656 808 685 838 q 636 801 646 801 q 615 811 625 801 q 438 878 544 878 q 324 846 376 878 q 242 760 272 814 q 211 646 211 707 l 211 322 q 242 208 211 261 q 324 122 272 154 q 438 90 376 90 q 550 121 499 90 q 632 203 601 151 q 663 317 663 256 l 663 426 l 467 426 q 453 432 458 426 q 447 446 447 438 l 447 510 q 453 524 447 518 q 467 529 458 529 l 724 529 q 759 515 744 529 q 774 479 774 500 l 774 322 q 728 153 774 231 q 606 29 683 75 q 436 -17 528 -17 z "},"Ğ":{"ha":857,"x_min":97,"x_max":774,"o":"m 436 -17 q 267 29 344 -17 q 143 153 189 75 q 97 322 97 231 l 97 646 q 143 815 97 738 q 267 939 189 893 q 436 985 344 985 q 579 958 513 985 q 694 883 646 932 q 701 867 701 878 q 694 849 701 857 q 656 808 685 838 q 636 801 646 801 q 615 811 625 801 q 438 878 544 878 q 324 846 376 878 q 242 760 272 814 q 211 646 211 707 l 211 322 q 242 208 211 261 q 324 122 272 154 q 438 90 376 90 q 550 121 499 90 q 632 203 601 151 q 663 317 663 256 l 663 426 l 467 426 q 453 432 458 426 q 447 446 447 438 l 447 510 q 453 524 447 518 q 467 529 458 529 l 724 529 q 759 515 744 529 q 774 479 774 500 l 774 322 q 728 153 774 231 q 606 29 683 75 q 436 -17 528 -17 m 439 1060 q 328 1085 375 1060 q 264 1136 281 1111 q 258 1150 258 1147 q 267 1164 258 1158 l 311 1203 q 319 1207 315 1207 q 331 1201 325 1207 q 356 1181 332 1200 q 440 1163 379 1163 q 497 1172 474 1163 q 549 1203 521 1182 q 567 1203 558 1211 l 611 1163 q 618 1149 618 1156 q 614 1136 618 1143 q 582 1106 606 1124 q 521 1074 558 1088 q 439 1060 483 1060 z "},"Ģ":{"ha":857,"x_min":97,"x_max":774,"o":"m 436 -17 q 267 29 344 -17 q 143 153 189 75 q 97 322 97 231 l 97 646 q 143 815 97 738 q 267 939 189 893 q 436 985 344 985 q 579 958 513 985 q 694 883 646 932 q 701 867 701 878 q 694 849 701 857 q 656 808 685 838 q 636 801 646 801 q 615 811 625 801 q 438 878 544 878 q 324 846 376 878 q 242 760 272 814 q 211 646 211 707 l 211 322 q 242 208 211 261 q 324 122 272 154 q 438 90 376 90 q 550 121 499 90 q 632 203 601 151 q 663 317 663 256 l 663 426 l 467 426 q 453 432 458 426 q 447 446 447 438 l 447 510 q 453 524 447 518 q 467 529 458 529 l 724 529 q 759 515 744 529 q 774 479 774 500 l 774 322 q 728 153 774 231 q 606 29 683 75 q 436 -17 528 -17 m 311 -268 q 296 -260 300 -268 q 296 -242 292 -253 l 347 -117 q 386 -90 358 -90 l 479 -90 q 493 -96 488 -90 q 499 -108 499 -101 q 493 -122 499 -117 l 381 -251 q 344 -268 367 -268 l 311 -268 z "},"Ġ":{"ha":857,"x_min":97,"x_max":774,"o":"m 436 -17 q 267 29 344 -17 q 143 153 189 75 q 97 322 97 231 l 97 646 q 143 815 97 738 q 267 939 189 893 q 436 985 344 985 q 579 958 513 985 q 694 883 646 932 q 701 867 701 878 q 694 849 701 857 q 656 808 685 838 q 636 801 646 801 q 615 811 625 801 q 438 878 544 878 q 324 846 376 878 q 242 760 272 814 q 211 646 211 707 l 211 322 q 242 208 211 261 q 324 122 272 154 q 438 90 376 90 q 550 121 499 90 q 632 203 601 151 q 663 317 663 256 l 663 426 l 467 426 q 453 432 458 426 q 447 446 447 438 l 447 510 q 453 524 447 518 q 467 529 458 529 l 724 529 q 759 515 744 529 q 774 479 774 500 l 774 322 q 728 153 774 231 q 606 29 683 75 q 436 -17 528 -17 m 403 1063 q 389 1068 394 1063 q 383 1082 383 1074 l 383 1203 q 389 1217 383 1211 q 403 1222 394 1222 l 469 1222 q 483 1217 478 1222 q 489 1203 489 1211 l 489 1082 q 483 1068 489 1074 q 469 1063 478 1063 l 403 1063 z "},"H":{"ha":944,"x_min":125,"x_max":819,"o":"m 144 0 q 131 6 136 0 q 125 19 125 11 l 125 946 q 131 960 125 954 q 144 965 136 965 l 219 965 q 233 960 228 965 q 239 946 239 954 l 239 561 l 706 561 l 706 946 q 711 960 706 954 q 725 965 717 965 l 800 965 q 814 960 808 965 q 819 946 819 954 l 819 19 q 814 6 819 11 q 800 0 808 0 l 725 0 q 711 6 717 0 q 706 19 706 11 l 706 457 l 239 457 l 239 19 q 233 6 239 11 q 219 0 228 0 l 144 0 z "},"Ħ":{"ha":944,"x_min":125,"x_max":819,"o":"m 800 965 q 814 960 808 965 q 819 946 819 954 l 819 19 q 814 6 819 11 q 800 0 808 0 l 725 0 q 711 6 717 0 q 706 19 706 11 l 706 457 l 239 457 l 239 19 q 233 6 239 11 q 219 0 228 0 l 144 0 q 131 6 136 0 q 125 19 125 11 l 125 946 q 131 960 125 954 q 144 965 136 965 l 219 965 q 233 960 228 965 q 239 946 239 954 l 239 786 l 706 786 l 706 946 q 711 960 706 954 q 725 965 717 965 l 800 965 m 706 561 l 706 690 l 239 690 l 239 561 l 706 561 z "},"I":{"ha":614,"x_min":90,"x_max":524,"o":"m 110 0 q 96 6 101 0 q 90 19 90 11 l 90 85 q 96 99 90 93 q 110 104 101 104 l 250 104 l 250 861 l 110 861 q 96 867 101 861 q 90 881 90 872 l 90 946 q 96 960 90 954 q 110 965 101 965 l 504 965 q 518 960 513 965 q 524 946 524 954 l 524 881 q 518 867 524 872 q 504 861 513 861 l 364 861 l 364 104 l 504 104 q 518 99 513 104 q 524 85 524 93 l 524 19 q 518 6 524 11 q 504 0 513 0 l 110 0 z "},"Í":{"ha":614,"x_min":90,"x_max":524,"o":"m 110 0 q 96 6 101 0 q 90 19 90 11 l 90 85 q 96 99 90 93 q 110 104 101 104 l 250 104 l 250 861 l 110 861 q 96 867 101 861 q 90 881 90 872 l 90 946 q 96 960 90 954 q 110 965 101 965 l 504 965 q 518 960 513 965 q 524 946 524 954 l 524 881 q 518 867 524 872 q 504 861 513 861 l 364 861 l 364 104 l 504 104 q 518 99 513 104 q 524 85 524 93 l 524 19 q 518 6 524 11 q 504 0 513 0 l 110 0 m 288 1044 q 272 1052 276 1044 q 272 1071 268 1060 l 324 1196 q 363 1222 335 1222 l 456 1222 q 469 1217 464 1222 q 475 1204 475 1213 q 469 1190 475 1196 l 357 1061 q 321 1044 343 1044 l 288 1044 z "},"Î":{"ha":614,"x_min":90,"x_max":524,"o":"m 110 0 q 96 6 101 0 q 90 19 90 11 l 90 85 q 96 99 90 93 q 110 104 101 104 l 250 104 l 250 861 l 110 861 q 96 867 101 861 q 90 881 90 872 l 90 946 q 96 960 90 954 q 110 965 101 965 l 504 965 q 518 960 513 965 q 524 946 524 954 l 524 881 q 518 867 524 872 q 504 861 513 861 l 364 861 l 364 104 l 504 104 q 518 99 513 104 q 524 85 524 93 l 524 19 q 518 6 524 11 q 504 0 513 0 l 110 0 m 139 1044 q 123 1053 128 1044 q 125 1071 118 1063 l 238 1210 q 263 1222 246 1222 l 351 1222 q 376 1210 368 1222 l 489 1071 q 493 1061 493 1067 q 488 1049 493 1054 q 475 1044 483 1044 l 429 1044 q 394 1058 413 1044 l 307 1126 l 219 1058 q 186 1044 201 1044 l 139 1044 z "},"Ï":{"ha":614,"x_min":86,"x_max":528,"o":"m 110 0 q 96 6 101 0 q 90 19 90 11 l 90 85 q 96 99 90 93 q 110 104 101 104 l 250 104 l 250 861 l 110 861 q 96 867 101 861 q 90 881 90 872 l 90 946 q 96 960 90 954 q 110 965 101 965 l 504 965 q 518 960 513 965 q 524 946 524 954 l 524 881 q 518 867 524 872 q 504 861 513 861 l 364 861 l 364 104 l 504 104 q 518 99 513 104 q 524 85 524 93 l 524 19 q 518 6 524 11 q 504 0 513 0 l 110 0 m 106 1063 q 92 1068 97 1063 q 86 1082 86 1074 l 86 1203 q 92 1217 86 1211 q 106 1222 97 1222 l 172 1222 q 186 1217 181 1222 q 192 1203 192 1211 l 192 1082 q 186 1068 192 1074 q 172 1063 181 1063 l 106 1063 m 442 1063 q 428 1068 433 1063 q 422 1082 422 1074 l 422 1203 q 428 1217 422 1211 q 442 1222 433 1222 l 508 1222 q 522 1217 517 1222 q 528 1203 528 1211 l 528 1082 q 522 1068 528 1074 q 508 1063 517 1063 l 442 1063 z "},"İ":{"ha":614,"x_min":90,"x_max":524,"o":"m 110 0 q 96 6 101 0 q 90 19 90 11 l 90 85 q 96 99 90 93 q 110 104 101 104 l 250 104 l 250 861 l 110 861 q 96 867 101 861 q 90 881 90 872 l 90 946 q 96 960 90 954 q 110 965 101 965 l 504 965 q 518 960 513 965 q 524 946 524 954 l 524 881 q 518 867 524 872 q 504 861 513 861 l 364 861 l 364 104 l 504 104 q 518 99 513 104 q 524 85 524 93 l 524 19 q 518 6 524 11 q 504 0 513 0 l 110 0 m 274 1063 q 260 1068 265 1063 q 254 1082 254 1074 l 254 1203 q 260 1217 254 1211 q 274 1222 265 1222 l 340 1222 q 354 1217 349 1222 q 360 1203 360 1211 l 360 1082 q 354 1068 360 1074 q 340 1063 349 1063 l 274 1063 z "},"Ì":{"ha":614,"x_min":90,"x_max":524,"o":"m 110 0 q 96 6 101 0 q 90 19 90 11 l 90 85 q 96 99 90 93 q 110 104 101 104 l 250 104 l 250 861 l 110 861 q 96 867 101 861 q 90 881 90 872 l 90 946 q 96 960 90 954 q 110 965 101 965 l 504 965 q 518 960 513 965 q 524 946 524 954 l 524 881 q 518 867 524 872 q 504 861 513 861 l 364 861 l 364 104 l 504 104 q 518 99 513 104 q 524 85 524 93 l 524 19 q 518 6 524 11 q 504 0 513 0 l 110 0 m 306 1044 q 269 1061 283 1044 l 157 1190 q 151 1204 151 1196 q 156 1217 151 1213 q 171 1222 161 1222 l 264 1222 q 303 1196 292 1222 l 354 1071 q 357 1061 357 1063 q 352 1049 357 1054 q 339 1044 347 1044 l 306 1044 z "},"Ī":{"ha":614,"x_min":90,"x_max":524,"o":"m 110 0 q 96 6 101 0 q 90 19 90 11 l 90 85 q 96 99 90 93 q 110 104 101 104 l 250 104 l 250 861 l 110 861 q 96 867 101 861 q 90 881 90 872 l 90 946 q 96 960 90 954 q 110 965 101 965 l 504 965 q 518 960 513 965 q 524 946 524 954 l 524 881 q 518 867 524 872 q 504 861 513 861 l 364 861 l 364 104 l 504 104 q 518 99 513 104 q 524 85 524 93 l 524 19 q 518 6 524 11 q 504 0 513 0 l 110 0 m 125 1089 q 111 1094 117 1089 q 106 1107 106 1099 l 106 1158 q 111 1172 106 1167 q 125 1176 117 1176 l 486 1176 q 500 1172 494 1176 q 506 1158 506 1167 l 506 1107 q 500 1094 506 1099 q 486 1089 494 1089 l 125 1089 z "},"Į":{"ha":607,"x_min":90,"x_max":531,"o":"m 468 -274 q 362 -241 406 -274 q 318 -156 318 -208 q 345 -73 318 -112 q 411 0 372 -33 l 110 0 q 96 6 101 0 q 90 19 90 11 l 90 88 q 96 101 90 96 q 110 107 101 107 l 250 107 l 250 858 l 110 858 q 96 864 101 858 q 90 878 90 869 l 90 946 q 96 960 90 954 q 110 965 101 965 l 504 965 q 518 960 513 965 q 524 946 524 954 l 524 878 q 518 864 524 869 q 504 858 513 858 l 364 858 l 364 107 l 504 107 q 518 101 513 107 q 524 88 524 96 l 524 39 q 506 0 524 18 q 447 -68 465 -42 q 428 -125 428 -94 q 486 -176 428 -176 l 510 -176 q 524 -183 518 -176 q 531 -197 531 -189 l 531 -253 q 524 -267 531 -261 q 510 -274 518 -274 l 468 -274 z "},"J":{"ha":499,"x_min":42,"x_max":367,"o":"m 63 0 q 47 6 53 0 q 42 21 42 11 l 42 85 q 47 100 42 94 q 63 106 53 106 l 144 106 q 223 136 193 106 q 253 218 253 167 l 253 946 q 258 960 253 954 q 272 965 264 965 l 347 965 q 361 960 356 965 q 367 946 367 954 l 367 217 q 342 108 367 158 q 269 29 317 58 q 158 0 222 0 l 63 0 z "},"K":{"ha":782,"x_min":125,"x_max":747,"o":"m 146 0 q 131 5 138 0 q 125 18 125 10 l 125 946 q 131 960 125 954 q 144 965 136 965 l 219 965 q 233 960 228 965 q 239 946 239 954 l 239 532 l 279 532 l 615 953 q 640 965 626 965 l 728 965 q 742 960 738 965 q 747 947 747 956 q 742 933 747 939 l 382 488 l 740 35 q 746 21 746 29 q 740 6 746 11 q 725 0 733 0 l 638 0 q 614 13 625 0 l 285 428 l 239 428 l 239 18 q 233 5 239 10 q 218 0 226 0 l 146 0 z "},"Ķ":{"ha":782,"x_min":125,"x_max":747,"o":"m 146 0 q 131 5 138 0 q 125 18 125 10 l 125 946 q 131 960 125 954 q 144 965 136 965 l 219 965 q 233 960 228 965 q 239 946 239 954 l 239 532 l 279 532 l 615 953 q 640 965 626 965 l 728 965 q 742 960 738 965 q 747 947 747 956 q 742 933 747 939 l 382 488 l 740 35 q 746 21 746 29 q 740 6 746 11 q 725 0 733 0 l 638 0 q 614 13 625 0 l 285 428 l 239 428 l 239 18 q 233 5 239 10 q 218 0 226 0 l 146 0 m 314 -268 q 299 -260 303 -268 q 299 -242 294 -253 l 350 -117 q 389 -90 361 -90 l 482 -90 q 496 -96 490 -90 q 501 -108 501 -101 q 496 -122 501 -117 l 383 -251 q 347 -268 369 -268 l 314 -268 z "},"L":{"ha":658,"x_min":125,"x_max":610,"o":"m 175 0 q 140 15 154 0 q 125 50 125 29 l 125 946 q 131 960 125 954 q 144 965 136 965 l 219 965 q 233 960 228 965 q 239 946 239 954 l 239 107 l 590 107 q 604 101 599 107 q 610 88 610 96 l 610 19 q 604 6 610 11 q 590 0 599 0 l 175 0 z "},"Ĺ":{"ha":658,"x_min":125,"x_max":610,"o":"m 175 0 q 140 15 154 0 q 125 50 125 29 l 125 946 q 131 960 125 954 q 144 965 136 965 l 219 965 q 233 960 228 965 q 239 946 239 954 l 239 107 l 590 107 q 604 101 599 107 q 610 88 610 96 l 610 19 q 604 6 610 11 q 590 0 599 0 l 175 0 m 161 1044 q 146 1052 150 1044 q 146 1071 142 1060 l 197 1196 q 236 1222 208 1222 l 329 1222 q 343 1217 338 1222 q 349 1204 349 1213 q 343 1190 349 1196 l 231 1061 q 194 1044 217 1044 l 161 1044 z "},"Ľ":{"ha":658,"x_min":125,"x_max":635,"o":"m 175 0 q 140 15 154 0 q 125 50 125 29 l 125 946 q 131 960 125 954 q 144 965 136 965 l 219 965 q 233 960 228 965 q 239 946 239 954 l 239 107 l 590 107 q 604 101 599 107 q 610 88 610 96 l 610 19 q 604 6 610 11 q 590 0 599 0 l 175 0 m 447 788 q 432 795 436 788 q 432 814 428 803 l 483 939 q 522 965 494 965 l 615 965 q 630 960 625 965 q 635 947 635 956 q 629 933 635 939 l 517 804 q 481 788 503 788 l 447 788 z "},"Ļ":{"ha":658,"x_min":125,"x_max":610,"o":"m 175 0 q 140 15 154 0 q 125 50 125 29 l 125 946 q 131 960 125 954 q 144 965 136 965 l 219 965 q 233 960 228 965 q 239 946 239 954 l 239 107 l 590 107 q 604 101 599 107 q 610 88 610 96 l 610 19 q 604 6 610 11 q 590 0 599 0 l 175 0 m 253 -268 q 238 -260 242 -268 q 238 -242 233 -253 l 289 -117 q 328 -90 300 -90 l 421 -90 q 435 -96 429 -90 q 440 -108 440 -101 q 435 -122 440 -117 l 322 -251 q 286 -268 308 -268 l 253 -268 z "},"Ł":{"ha":679,"x_min":28,"x_max":631,"o":"m 611 107 q 625 101 619 107 q 631 88 631 96 l 631 19 q 625 6 631 11 q 611 0 619 0 l 196 0 q 160 15 175 0 q 146 50 146 29 l 146 347 l 60 271 q 46 265 51 265 q 33 271 39 265 q 28 286 28 276 l 28 357 q 36 375 28 367 l 146 472 l 146 946 q 151 960 146 954 q 165 965 157 965 l 240 965 q 254 960 249 965 q 260 946 260 954 l 260 572 l 438 729 q 451 735 446 735 q 464 729 458 735 q 469 714 469 724 l 469 644 q 461 626 469 635 l 260 449 l 260 107 l 611 107 z "},"M":{"ha":1251,"x_min":89,"x_max":1161,"o":"m 590 -18 q 574 -13 582 -18 q 564 0 567 -8 l 297 772 l 206 24 q 197 6 204 13 q 178 0 189 0 l 113 0 q 95 8 101 0 q 90 25 89 15 l 211 950 q 217 961 213 957 q 228 965 222 965 l 325 965 q 342 960 333 965 q 351 947 350 956 l 625 154 l 901 953 q 918 965 906 965 l 1014 965 q 1033 959 1025 965 q 1042 942 1040 953 l 1161 25 l 1161 22 q 1155 7 1161 14 q 1139 0 1149 0 l 1072 0 q 1053 6 1061 0 q 1044 24 1046 13 l 953 769 l 686 0 q 676 -13 683 -8 q 660 -18 668 -18 l 590 -18 z "},"N":{"ha":944,"x_min":125,"x_max":819,"o":"m 144 0 q 131 6 136 0 q 125 19 125 11 l 125 936 q 133 957 125 949 q 154 965 142 965 l 236 965 q 257 960 247 965 q 272 946 267 956 l 711 179 l 711 946 q 717 960 711 954 q 731 965 722 965 l 800 965 q 814 960 808 965 q 819 946 819 954 l 819 29 q 811 8 819 17 q 790 0 803 0 l 707 0 q 686 5 696 0 q 671 19 676 10 l 233 785 l 233 19 q 228 6 233 11 q 214 0 222 0 l 144 0 z "},"Ń":{"ha":944,"x_min":125,"x_max":819,"o":"m 144 0 q 131 6 136 0 q 125 19 125 11 l 125 936 q 133 957 125 949 q 154 965 142 965 l 236 965 q 257 960 247 965 q 272 946 267 956 l 711 179 l 711 946 q 717 960 711 954 q 731 965 722 965 l 800 965 q 814 960 808 965 q 819 946 819 954 l 819 29 q 811 8 819 17 q 790 0 803 0 l 707 0 q 686 5 696 0 q 671 19 676 10 l 233 785 l 233 19 q 228 6 233 11 q 214 0 222 0 l 144 0 m 453 1044 q 438 1052 442 1044 q 438 1071 433 1060 l 489 1196 q 528 1222 500 1222 l 621 1222 q 635 1217 629 1222 q 640 1204 640 1213 q 635 1190 640 1196 l 522 1061 q 486 1044 508 1044 l 453 1044 z "},"Ň":{"ha":944,"x_min":125,"x_max":819,"o":"m 144 0 q 131 6 136 0 q 125 19 125 11 l 125 936 q 133 957 125 949 q 154 965 142 965 l 236 965 q 257 960 247 965 q 272 946 267 956 l 711 179 l 711 946 q 717 960 711 954 q 731 965 722 965 l 800 965 q 814 960 808 965 q 819 946 819 954 l 819 29 q 811 8 819 17 q 790 0 803 0 l 707 0 q 686 5 696 0 q 671 19 676 10 l 233 785 l 233 19 q 228 6 233 11 q 214 0 222 0 l 144 0 m 433 1044 q 408 1057 417 1044 l 296 1196 q 292 1206 292 1200 q 297 1217 292 1213 q 310 1222 301 1222 l 356 1222 q 390 1208 372 1222 l 478 1140 l 565 1208 q 599 1222 583 1222 l 646 1222 q 662 1213 657 1222 q 660 1196 667 1204 l 547 1057 q 522 1044 539 1044 l 433 1044 z "},"Ņ":{"ha":944,"x_min":125,"x_max":819,"o":"m 144 0 q 131 6 136 0 q 125 19 125 11 l 125 936 q 133 957 125 949 q 154 965 142 965 l 236 965 q 257 960 247 965 q 272 946 267 956 l 711 179 l 711 946 q 717 960 711 954 q 731 965 722 965 l 800 965 q 814 960 808 965 q 819 946 819 954 l 819 29 q 811 8 819 17 q 790 0 803 0 l 707 0 q 686 5 696 0 q 671 19 676 10 l 233 785 l 233 19 q 228 6 233 11 q 214 0 222 0 l 144 0 m 347 -268 q 332 -260 336 -268 q 332 -242 328 -253 l 383 -117 q 422 -90 394 -90 l 515 -90 q 529 -96 524 -90 q 535 -108 535 -101 q 529 -122 535 -117 l 417 -251 q 381 -268 403 -268 l 347 -268 z "},"Ŋ":{"ha":944,"x_min":125,"x_max":819,"o":"m 515 -274 q 500 -268 506 -274 q 494 -253 494 -262 l 494 -189 q 500 -174 494 -179 q 515 -168 506 -168 l 597 -168 q 676 -137 646 -168 q 706 -56 706 -107 l 706 -1 l 233 788 l 233 19 q 228 6 233 11 q 214 0 222 0 l 144 0 q 131 6 136 0 q 125 19 125 11 l 125 936 q 133 957 125 949 q 154 965 142 965 l 236 965 q 257 960 247 965 q 272 946 267 956 l 711 218 l 711 946 q 717 960 711 954 q 731 965 722 965 l 800 965 q 814 960 808 965 q 819 946 819 954 l 819 -57 q 794 -165 819 -115 q 722 -244 769 -215 q 611 -274 675 -274 l 515 -274 z "},"Ñ":{"ha":944,"x_min":125,"x_max":819,"o":"m 144 0 q 131 6 136 0 q 125 19 125 11 l 125 936 q 133 957 125 949 q 154 965 142 965 l 236 965 q 257 960 247 965 q 272 946 267 956 l 711 179 l 711 946 q 717 960 711 954 q 731 965 722 965 l 800 965 q 814 960 808 965 q 819 946 819 954 l 819 29 q 811 8 819 17 q 790 0 803 0 l 707 0 q 686 5 696 0 q 671 19 676 10 l 233 785 l 233 19 q 228 6 233 11 q 214 0 222 0 l 144 0 m 564 1061 q 516 1068 540 1061 q 458 1088 492 1075 q 386 1107 403 1107 q 358 1101 368 1107 q 339 1083 347 1096 q 331 1076 335 1076 q 319 1076 328 1075 l 281 1089 q 269 1107 268 1093 q 317 1177 281 1150 q 401 1204 354 1204 q 449 1197 425 1204 q 508 1178 472 1190 q 581 1157 560 1157 q 626 1181 611 1157 q 636 1189 632 1188 q 649 1188 640 1190 l 686 1176 q 697 1158 701 1171 q 650 1088 688 1115 q 564 1061 613 1061 z "},"O":{"ha":875,"x_min":97,"x_max":778,"o":"m 438 -18 q 267 28 346 -18 q 143 151 189 74 q 97 321 97 229 l 97 644 q 143 814 97 736 q 267 938 189 892 q 438 983 346 983 q 608 938 529 983 q 732 814 686 892 q 778 644 778 736 l 778 321 q 732 151 778 229 q 608 28 686 74 q 438 -18 529 -18 m 438 89 q 551 121 499 89 q 633 206 603 153 q 664 321 664 260 l 664 644 q 633 759 664 706 q 551 844 603 813 q 438 876 499 876 q 324 844 376 876 q 242 759 272 813 q 211 644 211 706 l 211 321 q 242 206 211 260 q 324 121 272 153 q 438 89 376 89 z "},"Ó":{"ha":875,"x_min":97,"x_max":778,"o":"m 438 -18 q 267 28 346 -18 q 143 151 189 74 q 97 321 97 229 l 97 644 q 143 814 97 736 q 267 938 189 892 q 438 983 346 983 q 608 938 529 983 q 732 814 686 892 q 778 644 778 736 l 778 321 q 732 151 778 229 q 608 28 686 74 q 438 -18 529 -18 m 438 89 q 551 121 499 89 q 633 206 603 153 q 664 321 664 260 l 664 644 q 633 759 664 706 q 551 844 603 813 q 438 876 499 876 q 324 844 376 876 q 242 759 272 813 q 211 644 211 706 l 211 321 q 242 206 211 260 q 324 121 272 153 q 438 89 376 89 m 418 1044 q 403 1052 407 1044 q 403 1071 399 1060 l 454 1196 q 493 1222 465 1222 l 586 1222 q 600 1217 594 1222 q 606 1204 606 1213 q 600 1190 606 1196 l 488 1061 q 451 1044 474 1044 l 418 1044 z "},"Ô":{"ha":875,"x_min":97,"x_max":778,"o":"m 438 -18 q 267 28 346 -18 q 143 151 189 74 q 97 321 97 229 l 97 644 q 143 814 97 736 q 267 938 189 892 q 438 983 346 983 q 608 938 529 983 q 732 814 686 892 q 778 644 778 736 l 778 321 q 732 151 778 229 q 608 28 686 74 q 438 -18 529 -18 m 438 89 q 551 121 499 89 q 633 206 603 153 q 664 321 664 260 l 664 644 q 633 759 664 706 q 551 844 603 813 q 438 876 499 876 q 324 844 376 876 q 242 759 272 813 q 211 644 211 706 l 211 321 q 242 206 211 260 q 324 121 272 153 q 438 89 376 89 m 269 1044 q 253 1053 258 1044 q 256 1071 249 1063 l 368 1210 q 393 1222 376 1222 l 482 1222 q 507 1210 499 1222 l 619 1071 q 624 1061 624 1067 q 619 1049 624 1054 q 606 1044 614 1044 l 560 1044 q 525 1058 543 1044 l 438 1126 l 350 1058 q 317 1044 332 1044 l 269 1044 z "},"Ö":{"ha":875,"x_min":97,"x_max":778,"o":"m 438 -18 q 267 28 346 -18 q 143 151 189 74 q 97 321 97 229 l 97 644 q 143 814 97 736 q 267 938 189 892 q 438 983 346 983 q 608 938 529 983 q 732 814 686 892 q 778 644 778 736 l 778 321 q 732 151 778 229 q 608 28 686 74 q 438 -18 529 -18 m 438 89 q 551 121 499 89 q 633 206 603 153 q 664 321 664 260 l 664 644 q 633 759 664 706 q 551 844 603 813 q 438 876 499 876 q 324 844 376 876 q 242 759 272 813 q 211 644 211 706 l 211 321 q 242 206 211 260 q 324 121 272 153 q 438 89 376 89 m 236 1063 q 222 1068 228 1063 q 217 1082 217 1074 l 217 1203 q 222 1217 217 1211 q 236 1222 228 1222 l 303 1222 q 317 1217 311 1222 q 322 1203 322 1211 l 322 1082 q 317 1068 322 1074 q 303 1063 311 1063 l 236 1063 m 572 1063 q 558 1068 564 1063 q 553 1082 553 1074 l 553 1203 q 558 1217 553 1211 q 572 1222 564 1222 l 639 1222 q 653 1217 647 1222 q 658 1203 658 1211 l 658 1082 q 653 1068 658 1074 q 639 1063 647 1063 l 572 1063 z "},"Ò":{"ha":875,"x_min":97,"x_max":778,"o":"m 438 -18 q 267 28 346 -18 q 143 151 189 74 q 97 321 97 229 l 97 644 q 143 814 97 736 q 267 938 189 892 q 438 983 346 983 q 608 938 529 983 q 732 814 686 892 q 778 644 778 736 l 778 321 q 732 151 778 229 q 608 28 686 74 q 438 -18 529 -18 m 438 89 q 551 121 499 89 q 633 206 603 153 q 664 321 664 260 l 664 644 q 633 759 664 706 q 551 844 603 813 q 438 876 499 876 q 324 844 376 876 q 242 759 272 813 q 211 644 211 706 l 211 321 q 242 206 211 260 q 324 121 272 153 q 438 89 376 89 m 436 1044 q 400 1061 414 1044 l 288 1190 q 282 1204 282 1196 q 287 1217 282 1213 q 301 1222 292 1222 l 394 1222 q 433 1196 422 1222 l 485 1071 q 488 1061 488 1063 q 483 1049 488 1054 q 469 1044 478 1044 l 436 1044 z "},"Ő":{"ha":875,"x_min":97,"x_max":778,"o":"m 438 -18 q 267 28 346 -18 q 143 151 189 74 q 97 321 97 229 l 97 644 q 143 814 97 736 q 267 938 189 892 q 438 983 346 983 q 608 938 529 983 q 732 814 686 892 q 778 644 778 736 l 778 321 q 732 151 778 229 q 608 28 686 74 q 438 -18 529 -18 m 438 89 q 551 121 499 89 q 633 206 603 153 q 664 321 664 260 l 664 644 q 633 759 664 706 q 551 844 603 813 q 438 876 499 876 q 324 844 376 876 q 242 759 272 813 q 211 644 211 706 l 211 321 q 242 206 211 260 q 324 121 272 153 q 438 89 376 89 m 272 1044 q 257 1052 261 1044 q 257 1071 253 1060 l 308 1196 q 347 1222 319 1222 l 440 1222 q 454 1217 449 1222 q 460 1204 460 1213 q 454 1190 460 1196 l 342 1061 q 306 1044 328 1044 l 272 1044 m 501 1044 q 486 1052 490 1044 q 486 1071 482 1060 l 538 1196 q 576 1222 549 1222 l 669 1222 q 683 1217 678 1222 q 689 1204 689 1213 q 683 1190 689 1196 l 571 1061 q 535 1044 557 1044 l 501 1044 z "},"Ō":{"ha":875,"x_min":97,"x_max":778,"o":"m 438 -18 q 267 28 346 -18 q 143 151 189 74 q 97 321 97 229 l 97 644 q 143 814 97 736 q 267 938 189 892 q 438 983 346 983 q 608 938 529 983 q 732 814 686 892 q 778 644 778 736 l 778 321 q 732 151 778 229 q 608 28 686 74 q 438 -18 529 -18 m 438 89 q 551 121 499 89 q 633 206 603 153 q 664 321 664 260 l 664 644 q 633 759 664 706 q 551 844 603 813 q 438 876 499 876 q 324 844 376 876 q 242 759 272 813 q 211 644 211 706 l 211 321 q 242 206 211 260 q 324 121 272 153 q 438 89 376 89 m 256 1089 q 242 1094 247 1089 q 236 1107 236 1099 l 236 1158 q 242 1172 236 1167 q 256 1176 247 1176 l 617 1176 q 631 1172 625 1176 q 636 1158 636 1167 l 636 1107 q 631 1094 636 1099 q 617 1089 625 1089 l 256 1089 z "},"Ø":{"ha":894,"x_min":74,"x_max":818,"o":"m 803 965 q 814 962 810 965 q 818 953 818 958 q 814 942 818 949 l 735 824 q 786 644 786 740 l 786 321 q 740 151 786 229 q 616 28 694 74 q 446 -18 538 -18 q 328 3 385 -18 q 225 63 271 24 l 194 17 q 182 5 190 10 q 165 0 174 0 l 92 0 q 78 7 82 0 q 79 24 74 14 l 158 140 q 106 321 106 224 l 106 644 q 151 814 106 736 q 276 938 197 892 q 446 983 354 983 q 566 961 508 983 q 669 900 624 939 l 701 949 q 714 960 706 956 q 731 965 722 965 l 803 965 m 219 321 q 231 249 219 286 l 606 807 q 533 858 575 840 q 446 876 492 876 q 333 844 385 876 q 250 759 281 813 q 219 644 219 706 l 219 321 m 672 644 q 661 714 672 678 l 288 156 q 360 107 319 125 q 446 89 401 89 q 559 121 507 89 q 642 206 611 153 q 672 321 672 260 l 672 644 z "},"Õ":{"ha":875,"x_min":97,"x_max":778,"o":"m 438 -18 q 267 28 346 -18 q 143 151 189 74 q 97 321 97 229 l 97 644 q 143 814 97 736 q 267 938 189 892 q 438 983 346 983 q 608 938 529 983 q 732 814 686 892 q 778 644 778 736 l 778 321 q 732 151 778 229 q 608 28 686 74 q 438 -18 529 -18 m 438 89 q 551 121 499 89 q 633 206 603 153 q 664 321 664 260 l 664 644 q 633 759 664 706 q 551 844 603 813 q 438 876 499 876 q 324 844 376 876 q 242 759 272 813 q 211 644 211 706 l 211 321 q 242 206 211 260 q 324 121 272 153 q 438 89 376 89 m 529 1061 q 481 1068 506 1061 q 424 1088 457 1075 q 351 1107 368 1107 q 323 1101 333 1107 q 304 1083 313 1096 q 297 1076 300 1076 q 285 1076 293 1075 l 246 1089 q 235 1107 233 1093 q 283 1177 246 1150 q 367 1204 319 1204 q 414 1197 390 1204 q 474 1178 438 1190 q 546 1157 525 1157 q 592 1181 576 1157 q 601 1189 597 1188 q 614 1188 606 1190 l 651 1176 q 663 1158 667 1171 q 615 1088 653 1115 q 529 1061 578 1061 z "},"Œ":{"ha":1142,"x_min":97,"x_max":1065,"o":"m 438 0 q 267 46 346 0 q 143 169 189 92 q 97 339 97 247 l 97 626 q 143 796 97 718 q 267 919 189 874 q 438 965 346 965 l 1046 965 q 1060 960 1054 965 q 1065 946 1065 954 l 1065 878 q 1060 864 1065 869 q 1046 858 1054 858 l 653 858 l 653 561 l 953 561 q 967 556 961 561 q 972 542 972 550 l 972 476 q 967 463 972 468 q 953 457 961 457 l 653 457 l 653 107 l 1046 107 q 1060 101 1054 107 q 1065 88 1065 96 l 1065 19 q 1060 6 1065 11 q 1046 0 1054 0 l 438 0 m 539 107 l 539 858 l 438 858 q 324 826 376 858 q 242 741 272 794 q 211 626 211 688 l 211 339 q 242 224 211 278 q 324 139 272 171 q 438 107 376 107 l 539 107 z "},"P":{"ha":774,"x_min":125,"x_max":711,"o":"m 144 0 q 131 6 136 0 q 125 19 125 11 l 125 915 q 140 951 125 936 q 175 965 154 965 l 408 965 q 561 925 492 965 q 671 817 631 885 q 711 667 711 749 q 671 517 711 585 q 561 408 631 449 q 408 368 492 368 l 239 368 l 239 19 q 233 6 239 11 q 219 0 228 0 l 144 0 m 401 475 q 499 501 454 475 q 569 571 543 526 q 594 667 594 615 q 569 763 594 718 q 499 833 543 807 q 401 858 454 858 l 239 858 l 239 475 l 401 475 z "},"Þ":{"ha":774,"x_min":125,"x_max":711,"o":"m 144 0 q 131 6 136 0 q 125 19 125 11 l 125 946 q 131 960 125 954 q 144 965 136 965 l 219 965 q 233 960 228 965 q 239 946 239 954 l 239 786 l 408 786 q 561 746 492 786 q 671 638 631 706 q 711 488 711 569 q 671 338 711 406 q 561 229 631 269 q 408 189 492 189 l 239 189 l 239 19 q 233 6 239 11 q 219 0 228 0 l 144 0 m 401 296 q 499 322 454 296 q 569 392 543 347 q 594 488 594 436 q 569 583 594 539 q 499 653 543 628 q 401 679 454 679 l 239 679 l 239 296 l 401 296 z "},"Q":{"ha":888,"x_min":97,"x_max":971,"o":"m 922 -268 q 820 -244 865 -268 q 711 -172 775 -221 l 679 -147 l 622 -104 q 523 -35 557 -53 q 438 -18 489 -18 q 267 28 346 -18 q 143 151 189 74 q 97 321 97 229 l 97 644 q 143 814 97 736 q 267 938 189 892 q 438 983 346 983 q 608 938 529 983 q 732 814 686 892 q 778 644 778 736 l 778 321 q 735 156 778 232 q 619 35 692 81 l 724 -49 l 756 -75 q 851 -145 813 -122 q 933 -168 890 -168 l 951 -168 q 965 -174 960 -168 q 971 -187 971 -179 l 971 -249 q 966 -262 971 -257 q 951 -268 961 -268 l 922 -268 m 438 89 q 551 121 499 89 q 633 206 603 153 q 664 321 664 260 l 664 644 q 633 759 664 706 q 551 844 603 813 q 438 876 499 876 q 324 844 376 876 q 242 759 272 813 q 211 644 211 706 l 211 321 q 242 206 211 260 q 324 121 272 153 q 438 89 376 89 z "},"R":{"ha":781,"x_min":125,"x_max":708,"o":"m 144 0 q 131 6 136 0 q 125 19 125 11 l 125 915 q 140 951 125 936 q 175 965 154 965 l 417 965 q 559 928 494 965 q 661 826 624 890 q 699 685 699 761 q 635 507 699 583 q 474 411 571 431 l 704 39 q 708 25 708 33 q 701 7 708 14 q 682 0 693 0 l 611 0 q 590 13 597 0 l 347 406 l 239 406 l 239 19 q 233 6 239 11 q 219 0 228 0 l 144 0 m 408 513 q 533 561 483 513 q 582 683 582 610 q 533 809 582 760 q 408 858 483 858 l 239 858 l 239 513 l 408 513 z "},"Ŕ":{"ha":781,"x_min":125,"x_max":708,"o":"m 144 0 q 131 6 136 0 q 125 19 125 11 l 125 915 q 140 951 125 936 q 175 965 154 965 l 417 965 q 559 928 494 965 q 661 826 624 890 q 699 685 699 761 q 635 507 699 583 q 474 411 571 431 l 704 39 q 708 25 708 33 q 701 7 708 14 q 682 0 693 0 l 611 0 q 590 13 597 0 l 347 406 l 239 406 l 239 19 q 233 6 239 11 q 219 0 228 0 l 144 0 m 408 513 q 533 561 483 513 q 582 683 582 610 q 533 809 582 760 q 408 858 483 858 l 239 858 l 239 513 l 408 513 m 346 1044 q 331 1052 335 1044 q 331 1071 326 1060 l 382 1196 q 421 1222 393 1222 l 514 1222 q 528 1217 522 1222 q 533 1204 533 1213 q 528 1190 533 1196 l 415 1061 q 379 1044 401 1044 l 346 1044 z "},"Ř":{"ha":781,"x_min":125,"x_max":708,"o":"m 144 0 q 131 6 136 0 q 125 19 125 11 l 125 915 q 140 951 125 936 q 175 965 154 965 l 417 965 q 559 928 494 965 q 661 826 624 890 q 699 685 699 761 q 635 507 699 583 q 474 411 571 431 l 704 39 q 708 25 708 33 q 701 7 708 14 q 682 0 693 0 l 611 0 q 590 13 597 0 l 347 406 l 239 406 l 239 19 q 233 6 239 11 q 219 0 228 0 l 144 0 m 408 513 q 533 561 483 513 q 582 683 582 610 q 533 809 582 760 q 408 858 483 858 l 239 858 l 239 513 l 408 513 m 326 1044 q 301 1057 310 1044 l 189 1196 q 185 1206 185 1200 q 190 1217 185 1213 q 203 1222 194 1222 l 249 1222 q 283 1208 265 1222 l 371 1140 l 458 1208 q 492 1222 476 1222 l 539 1222 q 555 1213 550 1222 q 553 1196 560 1204 l 440 1057 q 415 1044 432 1044 l 326 1044 z "},"Ŗ":{"ha":781,"x_min":125,"x_max":708,"o":"m 144 0 q 131 6 136 0 q 125 19 125 11 l 125 915 q 140 951 125 936 q 175 965 154 965 l 417 965 q 559 928 494 965 q 661 826 624 890 q 699 685 699 761 q 635 507 699 583 q 474 411 571 431 l 704 39 q 708 25 708 33 q 701 7 708 14 q 682 0 693 0 l 611 0 q 590 13 597 0 l 347 406 l 239 406 l 239 19 q 233 6 239 11 q 219 0 228 0 l 144 0 m 408 513 q 533 561 483 513 q 582 683 582 610 q 533 809 582 760 q 408 858 483 858 l 239 858 l 239 513 l 408 513 m 296 -268 q 281 -260 285 -268 q 281 -242 276 -253 l 332 -117 q 371 -90 343 -90 l 464 -90 q 478 -96 472 -90 q 483 -108 483 -101 q 478 -122 483 -117 l 365 -251 q 329 -268 351 -268 l 296 -268 z "},"S":{"ha":738,"x_min":75,"x_max":661,"o":"m 342 -18 q 203 1 272 -18 q 85 56 135 21 q 77 65 79 58 q 78 79 75 72 l 110 142 q 129 154 117 154 q 140 151 136 154 q 343 88 247 88 q 489 133 432 88 q 546 254 546 178 q 521 336 546 304 q 458 388 496 368 q 354 433 421 407 q 214 495 267 467 q 122 578 161 524 q 83 718 83 632 q 124 865 83 804 q 233 954 165 925 q 383 983 301 983 q 513 965 450 983 q 625 914 576 946 q 633 903 631 911 q 631 889 635 896 l 600 832 q 588 821 596 824 q 571 824 579 818 q 385 879 478 879 q 249 838 300 879 q 199 724 199 796 q 224 641 199 674 q 285 589 249 608 q 390 543 322 569 q 484 507 403 538 q 613 414 565 476 q 661 264 661 351 q 620 114 661 178 q 507 16 579 50 q 342 -18 435 -18 z "},"Ś":{"ha":738,"x_min":75,"x_max":661,"o":"m 342 -18 q 203 1 272 -18 q 85 56 135 21 q 77 65 79 58 q 78 79 75 72 l 110 142 q 129 154 117 154 q 140 151 136 154 q 343 88 247 88 q 489 133 432 88 q 546 254 546 178 q 521 336 546 304 q 458 388 496 368 q 354 433 421 407 q 214 495 267 467 q 122 578 161 524 q 83 718 83 632 q 124 865 83 804 q 233 954 165 925 q 383 983 301 983 q 513 965 450 983 q 625 914 576 946 q 633 903 631 911 q 631 889 635 896 l 600 832 q 588 821 596 824 q 571 824 579 818 q 385 879 478 879 q 249 838 300 879 q 199 724 199 796 q 224 641 199 674 q 285 589 249 608 q 390 543 322 569 q 484 507 403 538 q 613 414 565 476 q 661 264 661 351 q 620 114 661 178 q 507 16 579 50 q 342 -18 435 -18 m 342 1044 q 326 1052 331 1044 q 326 1071 322 1060 l 378 1196 q 417 1222 389 1222 l 510 1222 q 524 1217 518 1222 q 529 1204 529 1213 q 524 1190 529 1196 l 411 1061 q 375 1044 397 1044 l 342 1044 z "},"Š":{"ha":738,"x_min":75,"x_max":661,"o":"m 342 -18 q 203 1 272 -18 q 85 56 135 21 q 77 65 79 58 q 78 79 75 72 l 110 142 q 129 154 117 154 q 140 151 136 154 q 343 88 247 88 q 489 133 432 88 q 546 254 546 178 q 521 336 546 304 q 458 388 496 368 q 354 433 421 407 q 214 495 267 467 q 122 578 161 524 q 83 718 83 632 q 124 865 83 804 q 233 954 165 925 q 383 983 301 983 q 513 965 450 983 q 625 914 576 946 q 633 903 631 911 q 631 889 635 896 l 600 832 q 588 821 596 824 q 571 824 579 818 q 385 879 478 879 q 249 838 300 879 q 199 724 199 796 q 224 641 199 674 q 285 589 249 608 q 390 543 322 569 q 484 507 403 538 q 613 414 565 476 q 661 264 661 351 q 620 114 661 178 q 507 16 579 50 q 342 -18 435 -18 m 322 1044 q 297 1057 306 1044 l 185 1196 q 181 1206 181 1200 q 185 1217 181 1213 q 199 1222 190 1222 l 244 1222 q 279 1208 261 1222 l 367 1140 l 454 1208 q 488 1222 472 1222 l 535 1222 q 551 1213 546 1222 q 549 1196 556 1204 l 436 1057 q 411 1044 428 1044 l 322 1044 z "},"Ş":{"ha":738,"x_min":75,"x_max":661,"o":"m 342 -18 q 203 1 272 -18 q 85 56 135 21 q 77 65 79 58 q 78 79 75 72 l 110 142 q 129 154 117 154 q 140 151 136 154 q 343 88 247 88 q 489 133 432 88 q 546 254 546 178 q 521 336 546 304 q 458 388 496 368 q 354 433 421 407 q 214 495 267 467 q 122 578 161 524 q 83 718 83 632 q 124 865 83 804 q 233 954 165 925 q 383 983 301 983 q 513 965 450 983 q 625 914 576 946 q 633 903 631 911 q 631 889 635 896 l 600 832 q 588 821 596 824 q 571 824 579 818 q 385 879 478 879 q 249 838 300 879 q 199 724 199 796 q 224 641 199 674 q 285 589 249 608 q 390 543 322 569 q 484 507 403 538 q 613 414 565 476 q 661 264 661 351 q 620 114 661 178 q 507 16 579 50 q 342 -18 435 -18 m 289 -290 q 267 -276 274 -290 l 247 -228 q 246 -221 246 -225 q 258 -206 246 -211 q 304 -136 304 -187 l 304 -110 q 309 -96 304 -101 q 322 -90 314 -90 l 394 -90 q 411 -97 404 -90 q 418 -115 418 -104 l 418 -131 q 379 -237 418 -197 q 294 -290 340 -276 l 289 -290 z "},"Ș":{"ha":738,"x_min":75,"x_max":661,"o":"m 342 -18 q 203 1 272 -18 q 85 56 135 21 q 77 65 79 58 q 78 79 75 72 l 110 142 q 129 154 117 154 q 140 151 136 154 q 343 88 247 88 q 489 133 432 88 q 546 254 546 178 q 521 336 546 304 q 458 388 496 368 q 354 433 421 407 q 214 495 267 467 q 122 578 161 524 q 83 718 83 632 q 124 865 83 804 q 233 954 165 925 q 383 983 301 983 q 513 965 450 983 q 625 914 576 946 q 633 903 631 911 q 631 889 635 896 l 600 832 q 588 821 596 824 q 571 824 579 818 q 385 879 478 879 q 249 838 300 879 q 199 724 199 796 q 224 641 199 674 q 285 589 249 608 q 390 543 322 569 q 484 507 403 538 q 613 414 565 476 q 661 264 661 351 q 620 114 661 178 q 507 16 579 50 q 342 -18 435 -18 m 236 -268 q 221 -260 225 -268 q 221 -242 217 -253 l 272 -117 q 311 -90 283 -90 l 404 -90 q 418 -96 413 -90 q 424 -108 424 -101 q 418 -122 424 -117 l 306 -251 q 269 -268 292 -268 l 236 -268 z "},"T":{"ha":756,"x_min":61,"x_max":694,"o":"m 340 0 q 326 6 332 0 q 321 19 321 11 l 321 858 l 81 858 q 67 864 72 858 q 61 878 61 869 l 61 946 q 67 960 61 954 q 81 965 72 965 l 675 965 q 689 960 683 965 q 694 946 694 954 l 694 878 q 689 864 694 869 q 675 858 683 858 l 435 858 l 435 19 q 429 6 435 11 q 415 0 424 0 l 340 0 z "},"Ŧ":{"ha":758,"x_min":63,"x_max":696,"o":"m 676 965 q 690 960 685 965 q 696 946 696 954 l 696 878 q 690 864 696 869 q 676 858 685 858 l 436 858 l 436 601 l 601 601 q 615 596 610 601 q 621 582 621 590 l 621 531 q 615 517 621 522 q 601 511 610 511 l 436 511 l 436 19 q 431 6 436 11 q 417 0 425 0 l 342 0 q 328 6 333 0 q 322 19 322 11 l 322 511 l 157 511 q 143 517 149 511 q 138 531 138 522 l 138 582 q 143 596 138 590 q 157 601 149 601 l 322 601 l 322 858 l 82 858 q 68 864 74 858 q 63 878 63 869 l 63 946 q 68 960 63 954 q 82 965 74 965 l 676 965 z "},"Ť":{"ha":756,"x_min":61,"x_max":694,"o":"m 340 0 q 326 6 332 0 q 321 19 321 11 l 321 858 l 81 858 q 67 864 72 858 q 61 878 61 869 l 61 946 q 67 960 61 954 q 81 965 72 965 l 675 965 q 689 960 683 965 q 694 946 694 954 l 694 878 q 689 864 694 869 q 675 858 683 858 l 435 858 l 435 19 q 429 6 435 11 q 415 0 424 0 l 340 0 m 339 1044 q 314 1057 322 1044 l 201 1196 q 197 1206 197 1200 q 202 1217 197 1213 q 215 1222 207 1222 l 261 1222 q 296 1208 278 1222 l 383 1140 l 471 1208 q 504 1222 489 1222 l 551 1222 q 567 1213 563 1222 q 565 1196 572 1204 l 453 1057 q 428 1044 444 1044 l 339 1044 z "},"Ţ":{"ha":756,"x_min":61,"x_max":694,"o":"m 340 0 q 326 6 332 0 q 321 19 321 11 l 321 858 l 81 858 q 67 864 72 858 q 61 878 61 869 l 61 946 q 67 960 61 954 q 81 965 72 965 l 675 965 q 689 960 683 965 q 694 946 694 954 l 694 878 q 689 864 694 869 q 675 858 683 858 l 435 858 l 435 19 q 429 6 435 11 q 415 0 424 0 l 340 0 m 306 -290 q 283 -276 290 -290 l 264 -228 q 263 -221 263 -225 q 275 -206 263 -211 q 321 -136 321 -187 l 321 -110 q 326 -96 321 -101 q 339 -90 331 -90 l 411 -90 q 428 -97 421 -90 q 435 -115 435 -104 l 435 -131 q 396 -237 435 -197 q 311 -290 357 -276 l 306 -290 z "},"Ț":{"ha":756,"x_min":61,"x_max":694,"o":"m 340 0 q 326 6 332 0 q 321 19 321 11 l 321 858 l 81 858 q 67 864 72 858 q 61 878 61 869 l 61 946 q 67 960 61 954 q 81 965 72 965 l 675 965 q 689 960 683 965 q 694 946 694 954 l 694 878 q 689 864 694 869 q 675 858 683 858 l 435 858 l 435 19 q 429 6 435 11 q 415 0 424 0 l 340 0 m 253 -268 q 238 -260 242 -268 q 238 -242 233 -253 l 289 -117 q 328 -90 300 -90 l 421 -90 q 435 -96 429 -90 q 440 -108 440 -101 q 435 -122 440 -117 l 322 -251 q 286 -268 308 -268 l 253 -268 z "},"U":{"ha":932,"x_min":125,"x_max":807,"o":"m 467 -18 q 293 28 371 -18 q 170 158 215 74 q 125 349 125 242 l 125 946 q 131 960 125 954 q 144 965 136 965 l 219 965 q 233 960 228 965 q 239 946 239 954 l 239 342 q 269 210 239 267 q 350 122 299 153 q 467 92 401 92 q 582 122 531 92 q 663 210 633 153 q 693 342 693 267 l 693 946 q 699 960 693 954 q 713 965 704 965 l 788 965 q 801 960 796 965 q 807 946 807 954 l 807 349 q 762 158 807 242 q 639 28 717 74 q 467 -18 561 -18 z "},"Ú":{"ha":932,"x_min":125,"x_max":807,"o":"m 467 -18 q 293 28 371 -18 q 170 158 215 74 q 125 349 125 242 l 125 946 q 131 960 125 954 q 144 965 136 965 l 219 965 q 233 960 228 965 q 239 946 239 954 l 239 342 q 269 210 239 267 q 350 122 299 153 q 467 92 401 92 q 582 122 531 92 q 663 210 633 153 q 693 342 693 267 l 693 946 q 699 960 693 954 q 713 965 704 965 l 788 965 q 801 960 796 965 q 807 946 807 954 l 807 349 q 762 158 807 242 q 639 28 717 74 q 467 -18 561 -18 m 446 1044 q 431 1052 435 1044 q 431 1071 426 1060 l 482 1196 q 521 1222 493 1222 l 614 1222 q 628 1217 622 1222 q 633 1204 633 1213 q 628 1190 633 1196 l 515 1061 q 479 1044 501 1044 l 446 1044 z "},"Û":{"ha":932,"x_min":125,"x_max":807,"o":"m 467 -18 q 293 28 371 -18 q 170 158 215 74 q 125 349 125 242 l 125 946 q 131 960 125 954 q 144 965 136 965 l 219 965 q 233 960 228 965 q 239 946 239 954 l 239 342 q 269 210 239 267 q 350 122 299 153 q 467 92 401 92 q 582 122 531 92 q 663 210 633 153 q 693 342 693 267 l 693 946 q 699 960 693 954 q 713 965 704 965 l 788 965 q 801 960 796 965 q 807 946 807 954 l 807 349 q 762 158 807 242 q 639 28 717 74 q 467 -18 561 -18 m 297 1044 q 281 1053 286 1044 q 283 1071 276 1063 l 396 1210 q 421 1222 404 1222 l 510 1222 q 535 1210 526 1222 l 647 1071 q 651 1061 651 1067 q 647 1049 651 1054 q 633 1044 642 1044 l 588 1044 q 553 1058 571 1044 l 465 1126 l 378 1058 q 344 1044 360 1044 l 297 1044 z "},"Ü":{"ha":932,"x_min":125,"x_max":807,"o":"m 467 -18 q 293 28 371 -18 q 170 158 215 74 q 125 349 125 242 l 125 946 q 131 960 125 954 q 144 965 136 965 l 219 965 q 233 960 228 965 q 239 946 239 954 l 239 342 q 269 210 239 267 q 350 122 299 153 q 467 92 401 92 q 582 122 531 92 q 663 210 633 153 q 693 342 693 267 l 693 946 q 699 960 693 954 q 713 965 704 965 l 788 965 q 801 960 796 965 q 807 946 807 954 l 807 349 q 762 158 807 242 q 639 28 717 74 q 467 -18 561 -18 m 264 1063 q 250 1068 256 1063 q 244 1082 244 1074 l 244 1203 q 250 1217 244 1211 q 264 1222 256 1222 l 331 1222 q 344 1217 339 1222 q 350 1203 350 1211 l 350 1082 q 344 1068 350 1074 q 331 1063 339 1063 l 264 1063 m 600 1063 q 586 1068 592 1063 q 581 1082 581 1074 l 581 1203 q 586 1217 581 1211 q 600 1222 592 1222 l 667 1222 q 681 1217 675 1222 q 686 1203 686 1211 l 686 1082 q 681 1068 686 1074 q 667 1063 675 1063 l 600 1063 z "},"Ù":{"ha":932,"x_min":125,"x_max":807,"o":"m 467 -18 q 293 28 371 -18 q 170 158 215 74 q 125 349 125 242 l 125 946 q 131 960 125 954 q 144 965 136 965 l 219 965 q 233 960 228 965 q 239 946 239 954 l 239 342 q 269 210 239 267 q 350 122 299 153 q 467 92 401 92 q 582 122 531 92 q 663 210 633 153 q 693 342 693 267 l 693 946 q 699 960 693 954 q 713 965 704 965 l 788 965 q 801 960 796 965 q 807 946 807 954 l 807 349 q 762 158 807 242 q 639 28 717 74 q 467 -18 561 -18 m 464 1044 q 428 1061 442 1044 l 315 1190 q 310 1204 310 1196 q 315 1217 310 1213 q 329 1222 319 1222 l 422 1222 q 461 1196 450 1222 l 513 1071 q 515 1061 515 1063 q 510 1049 515 1054 q 497 1044 506 1044 l 464 1044 z "},"Ű":{"ha":932,"x_min":125,"x_max":807,"o":"m 467 -18 q 293 28 371 -18 q 170 158 215 74 q 125 349 125 242 l 125 946 q 131 960 125 954 q 144 965 136 965 l 219 965 q 233 960 228 965 q 239 946 239 954 l 239 342 q 269 210 239 267 q 350 122 299 153 q 467 92 401 92 q 582 122 531 92 q 663 210 633 153 q 693 342 693 267 l 693 946 q 699 960 693 954 q 713 965 704 965 l 788 965 q 801 960 796 965 q 807 946 807 954 l 807 349 q 762 158 807 242 q 639 28 717 74 q 467 -18 561 -18 m 300 1044 q 285 1052 289 1044 q 285 1071 281 1060 l 336 1196 q 375 1222 347 1222 l 468 1222 q 482 1217 476 1222 q 488 1204 488 1213 q 482 1190 488 1196 l 369 1061 q 333 1044 356 1044 l 300 1044 m 529 1044 q 514 1052 518 1044 q 514 1071 510 1060 l 565 1196 q 604 1222 576 1222 l 697 1222 q 711 1217 706 1222 q 717 1204 717 1213 q 711 1190 717 1196 l 599 1061 q 563 1044 585 1044 l 529 1044 z "},"Ū":{"ha":932,"x_min":125,"x_max":807,"o":"m 467 -18 q 293 28 371 -18 q 170 158 215 74 q 125 349 125 242 l 125 946 q 131 960 125 954 q 144 965 136 965 l 219 965 q 233 960 228 965 q 239 946 239 954 l 239 342 q 269 210 239 267 q 350 122 299 153 q 467 92 401 92 q 582 122 531 92 q 663 210 633 153 q 693 342 693 267 l 693 946 q 699 960 693 954 q 713 965 704 965 l 788 965 q 801 960 796 965 q 807 946 807 954 l 807 349 q 762 158 807 242 q 639 28 717 74 q 467 -18 561 -18 m 283 1089 q 269 1094 275 1089 q 264 1107 264 1099 l 264 1158 q 269 1172 264 1167 q 283 1176 275 1176 l 644 1176 q 658 1172 653 1176 q 664 1158 664 1167 l 664 1107 q 658 1094 664 1099 q 644 1089 653 1089 l 283 1089 z "},"Ų":{"ha":932,"x_min":125,"x_max":807,"o":"m 574 -274 q 467 -241 511 -274 q 424 -156 424 -208 q 444 -83 424 -119 q 499 -17 465 -46 q 467 -18 486 -18 q 293 28 371 -18 q 170 158 215 74 q 125 349 125 242 l 125 946 q 131 960 125 954 q 144 965 136 965 l 219 965 q 233 960 228 965 q 239 946 239 954 l 239 342 q 269 210 239 267 q 350 122 299 153 q 467 92 401 92 q 582 122 531 92 q 663 210 633 153 q 693 342 693 267 l 693 946 q 699 960 693 954 q 713 965 704 965 l 788 965 q 801 960 796 965 q 807 946 807 954 l 807 349 q 774 181 807 256 q 681 57 740 106 q 568 -47 603 -7 q 533 -125 533 -86 q 592 -176 533 -176 l 629 -176 q 644 -183 638 -176 q 650 -197 650 -189 l 650 -253 q 644 -267 650 -261 q 629 -274 638 -274 l 574 -274 z "},"Ů":{"ha":932,"x_min":125,"x_max":807,"o":"m 467 -18 q 293 28 371 -18 q 170 158 215 74 q 125 349 125 242 l 125 946 q 131 960 125 954 q 144 965 136 965 l 219 965 q 233 960 228 965 q 239 946 239 954 l 239 342 q 269 210 239 267 q 350 122 299 153 q 467 92 401 92 q 582 122 531 92 q 663 210 633 153 q 693 342 693 267 l 693 946 q 699 960 693 954 q 713 965 704 965 l 788 965 q 801 960 796 965 q 807 946 807 954 l 807 349 q 762 158 807 242 q 639 28 717 74 q 467 -18 561 -18 m 465 1025 q 385 1058 418 1025 q 351 1139 351 1092 q 385 1219 351 1186 q 465 1253 418 1253 q 546 1219 513 1253 q 579 1139 579 1186 q 546 1058 579 1092 q 465 1025 513 1025 m 465 1099 q 494 1110 482 1099 q 506 1139 506 1122 q 494 1167 506 1156 q 465 1179 482 1179 q 437 1167 449 1179 q 425 1139 425 1156 q 437 1110 425 1122 q 465 1099 449 1099 z "},"V":{"ha":844,"x_min":63,"x_max":785,"o":"m 376 0 q 360 5 368 0 q 350 18 353 10 l 64 935 q 63 944 63 938 q 69 959 63 953 q 85 965 75 965 l 153 965 q 169 960 161 965 q 179 947 178 956 l 422 144 l 665 947 q 676 960 668 956 q 692 965 683 965 l 760 965 q 778 956 772 965 q 781 935 785 947 l 494 18 q 485 5 493 10 q 468 0 476 0 l 376 0 z "},"W":{"ha":1388,"x_min":63,"x_max":1328,"o":"m 369 0 q 348 7 358 0 q 335 25 338 14 l 64 936 q 63 943 63 939 q 69 959 63 953 q 86 965 76 965 l 158 965 q 175 960 168 965 q 185 946 182 954 l 408 165 l 632 946 q 642 960 635 954 q 658 965 649 965 l 731 965 q 747 960 740 965 q 757 946 754 954 l 981 165 l 1204 946 q 1214 960 1207 954 q 1231 965 1221 965 l 1303 965 q 1321 956 1314 965 q 1325 936 1328 947 l 1054 25 q 1041 7 1051 14 q 1019 0 1031 0 l 942 0 q 920 7 931 0 q 907 25 910 14 l 693 768 l 482 25 q 469 7 479 14 q 447 0 458 0 l 369 0 z "},"Ẃ":{"ha":1388,"x_min":63,"x_max":1328,"o":"m 369 0 q 348 7 358 0 q 335 25 338 14 l 64 936 q 63 943 63 939 q 69 959 63 953 q 86 965 76 965 l 158 965 q 175 960 168 965 q 185 946 182 954 l 408 165 l 632 946 q 642 960 635 954 q 658 965 649 965 l 731 965 q 747 960 740 965 q 757 946 754 954 l 981 165 l 1204 946 q 1214 960 1207 954 q 1231 965 1221 965 l 1303 965 q 1321 956 1314 965 q 1325 936 1328 947 l 1054 25 q 1041 7 1051 14 q 1019 0 1031 0 l 942 0 q 920 7 931 0 q 907 25 910 14 l 693 768 l 482 25 q 469 7 479 14 q 447 0 458 0 l 369 0 m 674 1044 q 658 1052 663 1044 q 658 1071 654 1060 l 710 1196 q 749 1222 721 1222 l 842 1222 q 856 1217 850 1222 q 861 1204 861 1213 q 856 1190 861 1196 l 743 1061 q 707 1044 729 1044 l 674 1044 z "},"Ŵ":{"ha":1388,"x_min":63,"x_max":1328,"o":"m 369 0 q 348 7 358 0 q 335 25 338 14 l 64 936 q 63 943 63 939 q 69 959 63 953 q 86 965 76 965 l 158 965 q 175 960 168 965 q 185 946 182 954 l 408 165 l 632 946 q 642 960 635 954 q 658 965 649 965 l 731 965 q 747 960 740 965 q 757 946 754 954 l 981 165 l 1204 946 q 1214 960 1207 954 q 1231 965 1221 965 l 1303 965 q 1321 956 1314 965 q 1325 936 1328 947 l 1054 25 q 1041 7 1051 14 q 1019 0 1031 0 l 942 0 q 920 7 931 0 q 907 25 910 14 l 693 768 l 482 25 q 469 7 479 14 q 447 0 458 0 l 369 0 m 525 1044 q 509 1053 514 1044 q 511 1071 504 1063 l 624 1210 q 649 1222 632 1222 l 738 1222 q 763 1210 754 1222 l 875 1071 q 879 1061 879 1067 q 874 1049 879 1054 q 861 1044 869 1044 l 815 1044 q 781 1058 799 1044 l 693 1126 l 606 1058 q 572 1044 588 1044 l 525 1044 z "},"Ẅ":{"ha":1388,"x_min":63,"x_max":1328,"o":"m 369 0 q 348 7 358 0 q 335 25 338 14 l 64 936 q 63 943 63 939 q 69 959 63 953 q 86 965 76 965 l 158 965 q 175 960 168 965 q 185 946 182 954 l 408 165 l 632 946 q 642 960 635 954 q 658 965 649 965 l 731 965 q 747 960 740 965 q 757 946 754 954 l 981 165 l 1204 946 q 1214 960 1207 954 q 1231 965 1221 965 l 1303 965 q 1321 956 1314 965 q 1325 936 1328 947 l 1054 25 q 1041 7 1051 14 q 1019 0 1031 0 l 942 0 q 920 7 931 0 q 907 25 910 14 l 693 768 l 482 25 q 469 7 479 14 q 447 0 458 0 l 369 0 m 492 1063 q 478 1068 483 1063 q 472 1082 472 1074 l 472 1203 q 478 1217 472 1211 q 492 1222 483 1222 l 558 1222 q 572 1217 567 1222 q 578 1203 578 1211 l 578 1082 q 572 1068 578 1074 q 558 1063 567 1063 l 492 1063 m 828 1063 q 814 1068 819 1063 q 808 1082 808 1074 l 808 1203 q 814 1217 808 1211 q 828 1222 819 1222 l 894 1222 q 908 1217 903 1222 q 914 1203 914 1211 l 914 1082 q 908 1068 914 1074 q 894 1063 903 1063 l 828 1063 z "},"Ẁ":{"ha":1388,"x_min":63,"x_max":1328,"o":"m 369 0 q 348 7 358 0 q 335 25 338 14 l 64 936 q 63 943 63 939 q 69 959 63 953 q 86 965 76 965 l 158 965 q 175 960 168 965 q 185 946 182 954 l 408 165 l 632 946 q 642 960 635 954 q 658 965 649 965 l 731 965 q 747 960 740 965 q 757 946 754 954 l 981 165 l 1204 946 q 1214 960 1207 954 q 1231 965 1221 965 l 1303 965 q 1321 956 1314 965 q 1325 936 1328 947 l 1054 25 q 1041 7 1051 14 q 1019 0 1031 0 l 942 0 q 920 7 931 0 q 907 25 910 14 l 693 768 l 482 25 q 469 7 479 14 q 447 0 458 0 l 369 0 m 692 1044 q 656 1061 669 1044 l 543 1190 q 538 1204 538 1196 q 542 1217 538 1213 q 557 1222 547 1222 l 650 1222 q 689 1196 678 1222 l 740 1071 q 743 1061 743 1063 q 738 1049 743 1054 q 725 1044 733 1044 l 692 1044 z "},"X":{"ha":843,"x_min":69,"x_max":774,"o":"m 94 0 q 76 7 83 0 q 69 24 69 14 q 74 39 69 31 l 354 483 l 75 926 q 71 942 71 935 q 78 958 71 951 q 96 965 85 965 l 171 965 q 192 954 185 965 l 422 590 l 651 954 q 672 965 658 965 l 747 965 q 765 958 758 965 q 772 942 772 951 q 768 926 772 935 l 489 483 l 769 39 q 774 24 774 31 q 767 7 774 14 q 749 0 760 0 l 672 0 q 651 11 658 0 l 422 376 l 192 11 q 171 0 185 0 l 94 0 z "},"Y":{"ha":788,"x_min":49,"x_max":739,"o":"m 357 0 q 343 6 349 0 q 338 19 338 11 l 338 465 l 53 928 q 49 942 49 936 q 56 959 49 953 q 74 965 63 965 l 149 965 q 169 953 161 965 l 394 582 l 618 953 q 639 965 626 965 l 714 965 q 732 959 725 965 q 739 942 739 953 q 735 928 739 936 l 451 469 l 451 19 q 446 6 451 11 q 432 0 440 0 l 357 0 z "},"Ý":{"ha":788,"x_min":49,"x_max":739,"o":"m 357 0 q 343 6 349 0 q 338 19 338 11 l 338 465 l 53 928 q 49 942 49 936 q 56 959 49 953 q 74 965 63 965 l 149 965 q 169 953 161 965 l 394 582 l 618 953 q 639 965 626 965 l 714 965 q 732 959 725 965 q 739 942 739 953 q 735 928 739 936 l 451 469 l 451 19 q 446 6 451 11 q 432 0 440 0 l 357 0 m 375 1044 q 360 1052 364 1044 q 360 1071 356 1060 l 411 1196 q 450 1222 422 1222 l 543 1222 q 557 1217 551 1222 q 563 1204 563 1213 q 557 1190 563 1196 l 444 1061 q 408 1044 431 1044 l 375 1044 z "},"Ŷ":{"ha":788,"x_min":49,"x_max":739,"o":"m 357 0 q 343 6 349 0 q 338 19 338 11 l 338 465 l 53 928 q 49 942 49 936 q 56 959 49 953 q 74 965 63 965 l 149 965 q 169 953 161 965 l 394 582 l 618 953 q 639 965 626 965 l 714 965 q 732 959 725 965 q 739 942 739 953 q 735 928 739 936 l 451 469 l 451 19 q 446 6 451 11 q 432 0 440 0 l 357 0 m 226 1044 q 210 1053 215 1044 q 213 1071 206 1063 l 325 1210 q 350 1222 333 1222 l 439 1222 q 464 1210 456 1222 l 576 1071 q 581 1061 581 1067 q 576 1049 581 1054 q 563 1044 571 1044 l 517 1044 q 482 1058 500 1044 l 394 1126 l 307 1058 q 274 1044 289 1044 l 226 1044 z "},"Ÿ":{"ha":788,"x_min":49,"x_max":739,"o":"m 357 0 q 343 6 349 0 q 338 19 338 11 l 338 465 l 53 928 q 49 942 49 936 q 56 959 49 953 q 74 965 63 965 l 149 965 q 169 953 161 965 l 394 582 l 618 953 q 639 965 626 965 l 714 965 q 732 959 725 965 q 739 942 739 953 q 735 928 739 936 l 451 469 l 451 19 q 446 6 451 11 q 432 0 440 0 l 357 0 m 193 1063 q 179 1068 185 1063 q 174 1082 174 1074 l 174 1203 q 179 1217 174 1211 q 193 1222 185 1222 l 260 1222 q 274 1217 268 1222 q 279 1203 279 1211 l 279 1082 q 274 1068 279 1074 q 260 1063 268 1063 l 193 1063 m 529 1063 q 515 1068 521 1063 q 510 1082 510 1074 l 510 1203 q 515 1217 510 1211 q 529 1222 521 1222 l 596 1222 q 610 1217 604 1222 q 615 1203 615 1211 l 615 1082 q 610 1068 615 1074 q 596 1063 604 1063 l 529 1063 z "},"Ỳ":{"ha":788,"x_min":49,"x_max":739,"o":"m 357 0 q 343 6 349 0 q 338 19 338 11 l 338 465 l 53 928 q 49 942 49 936 q 56 959 49 953 q 74 965 63 965 l 149 965 q 169 953 161 965 l 394 582 l 618 953 q 639 965 626 965 l 714 965 q 732 959 725 965 q 739 942 739 953 q 735 928 739 936 l 451 469 l 451 19 q 446 6 451 11 q 432 0 440 0 l 357 0 m 393 1044 q 357 1061 371 1044 l 244 1190 q 239 1204 239 1196 q 244 1217 239 1213 q 258 1222 249 1222 l 351 1222 q 390 1196 379 1222 l 442 1071 q 444 1061 444 1063 q 440 1049 444 1054 q 426 1044 435 1044 l 393 1044 z "},"Z":{"ha":765,"x_min":76,"x_max":689,"o":"m 124 0 q 90 16 104 0 q 76 53 76 32 q 83 76 76 65 l 533 858 l 114 858 q 100 864 106 858 q 94 878 94 869 l 94 946 q 100 960 94 954 q 114 965 106 965 l 639 965 q 673 949 660 965 q 686 913 686 933 q 681 889 686 899 l 228 107 l 669 107 q 683 101 678 107 q 689 88 689 96 l 689 19 q 683 6 689 11 q 669 0 678 0 l 124 0 z "},"Ź":{"ha":765,"x_min":76,"x_max":689,"o":"m 124 0 q 90 16 104 0 q 76 53 76 32 q 83 76 76 65 l 533 858 l 114 858 q 100 864 106 858 q 94 878 94 869 l 94 946 q 100 960 94 954 q 114 965 106 965 l 639 965 q 673 949 660 965 q 686 913 686 933 q 681 889 686 899 l 228 107 l 669 107 q 683 101 678 107 q 689 88 689 96 l 689 19 q 683 6 689 11 q 669 0 678 0 l 124 0 m 361 1044 q 346 1052 350 1044 q 346 1071 342 1060 l 397 1196 q 436 1222 408 1222 l 529 1222 q 543 1217 538 1222 q 549 1204 549 1213 q 543 1190 549 1196 l 431 1061 q 394 1044 417 1044 l 361 1044 z "},"Ž":{"ha":765,"x_min":76,"x_max":689,"o":"m 124 0 q 90 16 104 0 q 76 53 76 32 q 83 76 76 65 l 533 858 l 114 858 q 100 864 106 858 q 94 878 94 869 l 94 946 q 100 960 94 954 q 114 965 106 965 l 639 965 q 673 949 660 965 q 686 913 686 933 q 681 889 686 899 l 228 107 l 669 107 q 683 101 678 107 q 689 88 689 96 l 689 19 q 683 6 689 11 q 669 0 678 0 l 124 0 m 342 1044 q 317 1057 325 1044 l 204 1196 q 200 1206 200 1200 q 205 1217 200 1213 q 218 1222 210 1222 l 264 1222 q 299 1208 281 1222 l 386 1140 l 474 1208 q 507 1222 492 1222 l 554 1222 q 570 1213 565 1222 q 568 1196 575 1204 l 456 1057 q 431 1044 447 1044 l 342 1044 z "},"Ż":{"ha":765,"x_min":76,"x_max":689,"o":"m 124 0 q 90 16 104 0 q 76 53 76 32 q 83 76 76 65 l 533 858 l 114 858 q 100 864 106 858 q 94 878 94 869 l 94 946 q 100 960 94 954 q 114 965 106 965 l 639 965 q 673 949 660 965 q 686 913 686 933 q 681 889 686 899 l 228 107 l 669 107 q 683 101 678 107 q 689 88 689 96 l 689 19 q 683 6 689 11 q 669 0 678 0 l 124 0 m 347 1063 q 333 1068 339 1063 q 328 1082 328 1074 l 328 1203 q 333 1217 328 1211 q 347 1222 339 1222 l 414 1222 q 428 1217 422 1222 q 433 1203 433 1211 l 433 1082 q 428 1068 433 1074 q 414 1063 422 1063 l 347 1063 z "},"a":{"ha":778,"x_min":69,"x_max":667,"o":"m 313 -18 q 138 42 206 -18 q 69 201 69 103 q 131 353 69 293 q 304 428 193 413 l 485 453 q 543 480 525 458 q 561 542 561 501 l 561 553 q 509 660 561 619 q 379 701 457 701 q 273 677 318 701 q 201 610 228 653 q 174 592 190 592 q 156 599 165 592 l 118 624 q 106 647 106 635 q 110 661 106 653 q 220 766 150 728 q 382 804 290 804 q 531 773 465 804 q 631 685 596 742 q 667 553 667 628 l 667 19 q 661 6 667 11 q 647 0 656 0 l 589 0 q 575 6 581 0 q 569 19 569 11 l 569 115 q 459 17 526 53 q 313 -18 392 -18 m 324 79 q 447 115 392 79 q 534 206 503 151 q 565 314 565 261 l 565 371 q 351 342 532 367 l 313 336 q 174 206 174 315 q 215 114 174 149 q 324 79 257 79 z "},"á":{"ha":778,"x_min":69,"x_max":667,"o":"m 313 -18 q 138 42 206 -18 q 69 201 69 103 q 131 353 69 293 q 304 428 193 413 l 485 453 q 543 480 525 458 q 561 542 561 501 l 561 553 q 509 660 561 619 q 379 701 457 701 q 273 677 318 701 q 201 610 228 653 q 174 592 190 592 q 156 599 165 592 l 118 624 q 106 647 106 635 q 110 661 106 653 q 220 766 150 728 q 382 804 290 804 q 531 773 465 804 q 631 685 596 742 q 667 553 667 628 l 667 19 q 661 6 667 11 q 647 0 656 0 l 589 0 q 575 6 581 0 q 569 19 569 11 l 569 115 q 459 17 526 53 q 313 -18 392 -18 m 324 79 q 447 115 392 79 q 534 206 503 151 q 565 314 565 261 l 565 371 q 351 342 532 367 l 313 336 q 174 206 174 315 q 215 114 174 149 q 324 79 257 79 m 361 876 q 346 884 350 876 q 346 903 342 892 l 397 1028 q 436 1054 408 1054 l 529 1054 q 543 1049 538 1054 q 549 1036 549 1044 q 543 1022 549 1028 l 431 893 q 394 876 417 876 l 361 876 z "},"ă":{"ha":778,"x_min":69,"x_max":667,"o":"m 313 -18 q 138 42 206 -18 q 69 201 69 103 q 131 353 69 293 q 304 428 193 413 l 485 453 q 543 480 525 458 q 561 542 561 501 l 561 553 q 509 660 561 619 q 379 701 457 701 q 273 677 318 701 q 201 610 228 653 q 174 592 190 592 q 156 599 165 592 l 118 624 q 106 647 106 635 q 110 661 106 653 q 220 766 150 728 q 382 804 290 804 q 531 773 465 804 q 631 685 596 742 q 667 553 667 628 l 667 19 q 661 6 667 11 q 647 0 656 0 l 589 0 q 575 6 581 0 q 569 19 569 11 l 569 115 q 459 17 526 53 q 313 -18 392 -18 m 324 79 q 447 115 392 79 q 534 206 503 151 q 565 314 565 261 l 565 371 q 351 342 532 367 l 313 336 q 174 206 174 315 q 215 114 174 149 q 324 79 257 79 m 383 892 q 272 917 319 892 q 208 968 225 943 q 203 982 203 979 q 211 996 203 990 l 256 1035 q 264 1039 260 1039 q 275 1033 269 1039 q 300 1013 276 1032 q 385 994 324 994 q 442 1004 418 994 q 493 1035 465 1014 q 511 1035 503 1043 l 556 994 q 563 981 563 988 q 558 968 563 975 q 526 938 550 956 q 465 906 503 919 q 383 892 428 892 z "},"â":{"ha":778,"x_min":69,"x_max":667,"o":"m 313 -18 q 138 42 206 -18 q 69 201 69 103 q 131 353 69 293 q 304 428 193 413 l 485 453 q 543 480 525 458 q 561 542 561 501 l 561 553 q 509 660 561 619 q 379 701 457 701 q 273 677 318 701 q 201 610 228 653 q 174 592 190 592 q 156 599 165 592 l 118 624 q 106 647 106 635 q 110 661 106 653 q 220 766 150 728 q 382 804 290 804 q 531 773 465 804 q 631 685 596 742 q 667 553 667 628 l 667 19 q 661 6 667 11 q 647 0 656 0 l 589 0 q 575 6 581 0 q 569 19 569 11 l 569 115 q 459 17 526 53 q 313 -18 392 -18 m 324 79 q 447 115 392 79 q 534 206 503 151 q 565 314 565 261 l 565 371 q 351 342 532 367 l 313 336 q 174 206 174 315 q 215 114 174 149 q 324 79 257 79 m 213 876 q 197 885 201 876 q 199 903 192 894 l 311 1042 q 336 1054 319 1054 l 425 1054 q 450 1042 442 1054 l 563 903 q 567 893 567 899 q 562 881 567 886 q 549 876 557 876 l 503 876 q 468 890 486 876 l 381 958 l 293 890 q 260 876 275 876 l 213 876 z "},"ä":{"ha":778,"x_min":69,"x_max":667,"o":"m 313 -18 q 138 42 206 -18 q 69 201 69 103 q 131 353 69 293 q 304 428 193 413 l 485 453 q 543 480 525 458 q 561 542 561 501 l 561 553 q 509 660 561 619 q 379 701 457 701 q 273 677 318 701 q 201 610 228 653 q 174 592 190 592 q 156 599 165 592 l 118 624 q 106 647 106 635 q 110 661 106 653 q 220 766 150 728 q 382 804 290 804 q 531 773 465 804 q 631 685 596 742 q 667 553 667 628 l 667 19 q 661 6 667 11 q 647 0 656 0 l 589 0 q 575 6 581 0 q 569 19 569 11 l 569 115 q 459 17 526 53 q 313 -18 392 -18 m 324 79 q 447 115 392 79 q 534 206 503 151 q 565 314 565 261 l 565 371 q 351 342 532 367 l 313 336 q 174 206 174 315 q 215 114 174 149 q 324 79 257 79 m 179 894 q 165 900 171 894 q 160 914 160 906 l 160 1035 q 165 1049 160 1043 q 179 1054 171 1054 l 246 1054 q 260 1049 254 1054 q 265 1035 265 1043 l 265 914 q 260 900 265 906 q 246 894 254 894 l 179 894 m 515 894 q 501 900 507 894 q 496 914 496 906 l 496 1035 q 501 1049 496 1043 q 515 1054 507 1054 l 582 1054 q 596 1049 590 1054 q 601 1035 601 1043 l 601 914 q 596 900 601 906 q 582 894 590 894 l 515 894 z "},"à":{"ha":778,"x_min":69,"x_max":667,"o":"m 313 -18 q 138 42 206 -18 q 69 201 69 103 q 131 353 69 293 q 304 428 193 413 l 485 453 q 543 480 525 458 q 561 542 561 501 l 561 553 q 509 660 561 619 q 379 701 457 701 q 273 677 318 701 q 201 610 228 653 q 174 592 190 592 q 156 599 165 592 l 118 624 q 106 647 106 635 q 110 661 106 653 q 220 766 150 728 q 382 804 290 804 q 531 773 465 804 q 631 685 596 742 q 667 553 667 628 l 667 19 q 661 6 667 11 q 647 0 656 0 l 589 0 q 575 6 581 0 q 569 19 569 11 l 569 115 q 459 17 526 53 q 313 -18 392 -18 m 324 79 q 447 115 392 79 q 534 206 503 151 q 565 314 565 261 l 565 371 q 351 342 532 367 l 313 336 q 174 206 174 315 q 215 114 174 149 q 324 79 257 79 m 379 876 q 343 893 357 876 l 231 1022 q 225 1036 225 1028 q 230 1049 225 1044 q 244 1054 235 1054 l 338 1054 q 376 1028 365 1054 l 428 903 q 431 893 431 894 q 426 881 431 886 q 413 876 421 876 l 379 876 z "},"ā":{"ha":778,"x_min":69,"x_max":667,"o":"m 313 -18 q 138 42 206 -18 q 69 201 69 103 q 131 353 69 293 q 304 428 193 413 l 485 453 q 543 480 525 458 q 561 542 561 501 l 561 553 q 509 660 561 619 q 379 701 457 701 q 273 677 318 701 q 201 610 228 653 q 174 592 190 592 q 156 599 165 592 l 118 624 q 106 647 106 635 q 110 661 106 653 q 220 766 150 728 q 382 804 290 804 q 531 773 465 804 q 631 685 596 742 q 667 553 667 628 l 667 19 q 661 6 667 11 q 647 0 656 0 l 589 0 q 575 6 581 0 q 569 19 569 11 l 569 115 q 459 17 526 53 q 313 -18 392 -18 m 324 79 q 447 115 392 79 q 534 206 503 151 q 565 314 565 261 l 565 371 q 351 342 532 367 l 313 336 q 174 206 174 315 q 215 114 174 149 q 324 79 257 79 m 199 921 q 185 926 190 921 q 179 939 179 931 l 179 990 q 185 1003 179 999 q 199 1008 190 1008 l 560 1008 q 574 1003 568 1008 q 579 990 579 999 l 579 939 q 574 926 579 931 q 560 921 568 921 l 199 921 z "},"ą":{"ha":785,"x_min":69,"x_max":674,"o":"m 611 -274 q 505 -241 549 -274 q 461 -156 461 -208 q 494 -64 461 -108 q 569 13 526 -19 l 569 115 q 459 17 526 53 q 313 -18 392 -18 q 138 42 206 -18 q 69 201 69 103 q 131 353 69 293 q 304 428 193 413 l 485 453 q 543 480 525 458 q 561 542 561 501 l 561 553 q 509 660 561 619 q 379 701 457 701 q 273 677 318 701 q 201 610 228 653 q 174 592 190 592 q 156 599 165 592 l 118 624 q 106 647 106 632 q 110 661 106 653 q 220 766 150 728 q 382 804 290 804 q 531 773 465 804 q 631 685 596 742 q 667 553 667 628 l 667 39 q 649 0 667 18 q 590 -68 608 -42 q 571 -125 571 -94 q 629 -176 571 -176 l 653 -176 q 667 -183 661 -176 q 674 -197 674 -189 l 674 -253 q 667 -267 674 -261 q 653 -274 661 -274 l 611 -274 m 324 79 q 447 115 392 79 q 534 206 503 151 q 565 314 565 261 l 565 371 q 351 342 532 367 l 313 336 q 174 206 174 315 q 215 114 174 149 q 324 79 257 79 z "},"å":{"ha":778,"x_min":69,"x_max":667,"o":"m 313 -18 q 138 42 206 -18 q 69 201 69 103 q 131 353 69 293 q 304 428 193 413 l 485 453 q 543 480 525 458 q 561 542 561 501 l 561 553 q 509 660 561 619 q 379 701 457 701 q 273 677 318 701 q 201 610 228 653 q 174 592 190 592 q 156 599 165 592 l 118 624 q 106 647 106 635 q 110 661 106 653 q 220 766 150 728 q 382 804 290 804 q 531 773 465 804 q 631 685 596 742 q 667 553 667 628 l 667 19 q 661 6 667 11 q 647 0 656 0 l 589 0 q 575 6 581 0 q 569 19 569 11 l 569 115 q 459 17 526 53 q 313 -18 392 -18 m 324 79 q 447 115 392 79 q 534 206 503 151 q 565 314 565 261 l 565 371 q 351 342 532 367 l 313 336 q 174 206 174 315 q 215 114 174 149 q 324 79 257 79 m 381 857 q 300 890 333 857 q 267 971 267 924 q 300 1051 267 1018 q 381 1085 333 1085 q 461 1051 428 1085 q 494 971 494 1018 q 461 890 494 924 q 381 857 428 857 m 381 931 q 409 942 397 931 q 421 971 421 954 q 409 999 421 988 q 381 1011 397 1011 q 352 999 364 1011 q 340 971 340 988 q 352 942 340 954 q 381 931 364 931 z "},"ã":{"ha":778,"x_min":69,"x_max":667,"o":"m 313 -18 q 138 42 206 -18 q 69 201 69 103 q 131 353 69 293 q 304 428 193 413 l 485 453 q 543 480 525 458 q 561 542 561 501 l 561 553 q 509 660 561 619 q 379 701 457 701 q 273 677 318 701 q 201 610 228 653 q 174 592 190 592 q 156 599 165 592 l 118 624 q 106 647 106 635 q 110 661 106 653 q 220 766 150 728 q 382 804 290 804 q 531 773 465 804 q 631 685 596 742 q 667 553 667 628 l 667 19 q 661 6 667 11 q 647 0 656 0 l 589 0 q 575 6 581 0 q 569 19 569 11 l 569 115 q 459 17 526 53 q 313 -18 392 -18 m 324 79 q 447 115 392 79 q 534 206 503 151 q 565 314 565 261 l 565 371 q 351 342 532 367 l 313 336 q 174 206 174 315 q 215 114 174 149 q 324 79 257 79 m 472 893 q 424 900 449 893 q 367 919 400 907 q 294 939 311 939 q 266 933 276 939 q 247 915 256 928 q 240 908 243 908 q 228 908 236 907 l 189 921 q 178 939 176 925 q 226 1009 189 982 q 310 1036 263 1036 q 357 1029 333 1036 q 417 1010 381 1022 q 489 989 468 989 q 535 1013 519 989 q 544 1021 540 1019 q 557 1019 549 1022 l 594 1008 q 606 990 610 1003 q 558 920 596 947 q 472 893 521 893 z "},"æ":{"ha":1249,"x_min":69,"x_max":1168,"o":"m 313 -18 q 138 42 206 -18 q 69 201 69 103 q 131 353 69 293 q 304 428 193 413 l 485 453 q 543 480 525 458 q 561 542 561 501 l 561 553 q 509 660 561 619 q 379 701 457 701 q 273 677 318 701 q 201 610 228 653 q 174 592 190 592 q 156 599 165 592 l 118 624 q 106 647 106 635 q 110 661 106 653 q 220 766 150 728 q 382 804 290 804 q 529 774 465 804 q 629 688 593 743 q 733 773 671 742 q 867 804 794 804 q 1018 764 949 804 q 1128 653 1088 724 q 1168 501 1168 583 l 1168 407 q 1153 372 1168 386 q 1118 357 1139 357 l 674 357 l 674 296 q 699 199 674 243 q 769 128 725 154 q 867 103 814 103 l 1068 103 q 1082 97 1076 103 q 1088 83 1088 92 l 1088 19 q 1082 6 1088 11 q 1068 0 1076 0 l 867 0 q 714 41 783 0 q 606 151 644 82 q 483 28 563 74 q 313 -18 404 -18 m 1060 457 l 1060 508 q 1034 606 1060 561 q 964 676 1008 650 q 867 701 919 701 q 769 676 814 701 q 699 606 725 650 q 674 508 674 561 l 674 457 l 1060 457 m 324 79 q 447 115 392 79 q 534 206 503 151 q 565 314 565 261 l 565 371 q 351 342 532 367 l 313 336 q 174 206 174 315 q 215 114 174 149 q 324 79 257 79 z "},"b":{"ha":819,"x_min":125,"x_max":729,"o":"m 439 -18 q 323 6 378 -18 q 228 74 268 31 l 228 19 q 222 6 228 11 q 208 0 217 0 l 144 0 q 131 6 136 0 q 125 19 125 11 l 125 1035 q 131 1049 125 1043 q 144 1054 136 1054 l 214 1054 q 228 1049 222 1054 q 233 1035 233 1043 l 233 707 q 326 778 272 753 q 439 804 379 804 q 585 765 518 804 q 690 660 651 726 q 729 514 729 593 l 729 272 q 690 126 729 193 q 585 21 651 60 q 439 -18 518 -18 m 428 85 q 525 110 481 85 q 595 181 569 136 q 621 278 621 225 l 621 508 q 595 606 621 561 q 525 676 569 650 q 428 701 481 701 q 330 676 375 701 q 259 606 285 650 q 233 508 233 561 l 233 278 q 259 181 233 225 q 330 110 285 136 q 428 85 375 85 z "},"c":{"ha":683,"x_min":90,"x_max":607,"o":"m 392 -18 q 240 22 310 -18 q 131 133 171 63 q 90 285 90 203 l 90 501 q 131 653 90 583 q 240 764 171 724 q 392 804 310 804 q 505 782 451 804 q 599 721 558 760 q 607 701 607 713 q 599 681 607 692 q 567 649 585 665 q 546 640 557 640 q 524 650 533 640 q 392 701 468 701 q 294 676 339 701 q 224 606 250 650 q 199 508 199 561 l 199 278 q 224 181 199 225 q 294 110 250 136 q 392 85 339 85 q 524 136 468 85 q 546 146 533 146 q 567 138 557 146 q 599 106 583 124 q 607 85 607 97 q 599 65 607 74 q 505 4 558 26 q 392 -18 451 -18 z "},"ć":{"ha":683,"x_min":90,"x_max":607,"o":"m 392 -18 q 240 22 310 -18 q 131 133 171 63 q 90 285 90 203 l 90 501 q 131 653 90 583 q 240 764 171 724 q 392 804 310 804 q 505 782 451 804 q 599 721 558 760 q 607 701 607 713 q 599 681 607 692 q 567 649 585 665 q 546 640 557 640 q 524 650 533 640 q 392 701 468 701 q 294 676 339 701 q 224 606 250 650 q 199 508 199 561 l 199 278 q 224 181 199 225 q 294 110 250 136 q 392 85 339 85 q 524 136 468 85 q 546 146 533 146 q 567 138 557 146 q 599 106 583 124 q 607 85 607 97 q 599 65 607 74 q 505 4 558 26 q 392 -18 451 -18 m 361 876 q 346 884 350 876 q 346 903 342 892 l 397 1028 q 436 1054 408 1054 l 529 1054 q 543 1049 538 1054 q 549 1036 549 1044 q 543 1022 549 1028 l 431 893 q 394 876 417 876 l 361 876 z "},"č":{"ha":683,"x_min":90,"x_max":607,"o":"m 392 -18 q 240 22 310 -18 q 131 133 171 63 q 90 285 90 203 l 90 501 q 131 653 90 583 q 240 764 171 724 q 392 804 310 804 q 505 782 451 804 q 599 721 558 760 q 607 701 607 713 q 599 681 607 692 q 567 649 585 665 q 546 640 557 640 q 524 650 533 640 q 392 701 468 701 q 294 676 339 701 q 224 606 250 650 q 199 508 199 561 l 199 278 q 224 181 199 225 q 294 110 250 136 q 392 85 339 85 q 524 136 468 85 q 546 146 533 146 q 567 138 557 146 q 599 106 583 124 q 607 85 607 97 q 599 65 607 74 q 505 4 558 26 q 392 -18 451 -18 m 342 876 q 317 889 325 876 l 204 1028 q 200 1038 200 1032 q 205 1049 200 1044 q 218 1054 210 1054 l 264 1054 q 299 1040 281 1054 l 386 972 l 474 1040 q 507 1054 492 1054 l 554 1054 q 570 1045 565 1054 q 568 1028 575 1036 l 456 889 q 431 876 447 876 l 342 876 z "},"ç":{"ha":683,"x_min":90,"x_max":607,"o":"m 392 -18 q 240 22 310 -18 q 131 133 171 63 q 90 285 90 203 l 90 501 q 131 653 90 583 q 240 764 171 724 q 392 804 310 804 q 505 782 451 804 q 599 721 558 760 q 607 701 607 713 q 599 681 607 692 q 567 649 585 665 q 546 640 557 640 q 524 650 533 640 q 392 701 468 701 q 294 676 339 701 q 224 606 250 650 q 199 508 199 561 l 199 278 q 224 181 199 225 q 294 110 250 136 q 392 85 339 85 q 524 136 468 85 q 546 146 533 146 q 567 138 557 146 q 599 106 583 124 q 607 85 607 97 q 599 65 607 74 q 505 4 558 26 q 392 -18 451 -18 m 319 -290 q 297 -276 304 -290 l 278 -228 q 276 -221 276 -225 q 289 -206 276 -211 q 335 -136 335 -187 l 335 -110 q 340 -96 335 -101 q 353 -90 344 -90 l 425 -90 q 442 -97 435 -90 q 449 -115 449 -104 l 449 -131 q 410 -237 449 -197 q 325 -290 371 -276 l 319 -290 z "},"ċ":{"ha":683,"x_min":90,"x_max":607,"o":"m 392 -18 q 240 22 310 -18 q 131 133 171 63 q 90 285 90 203 l 90 501 q 131 653 90 583 q 240 764 171 724 q 392 804 310 804 q 505 782 451 804 q 599 721 558 760 q 607 701 607 713 q 599 681 607 692 q 567 649 585 665 q 546 640 557 640 q 524 650 533 640 q 392 701 468 701 q 294 676 339 701 q 224 606 250 650 q 199 508 199 561 l 199 278 q 224 181 199 225 q 294 110 250 136 q 392 85 339 85 q 524 136 468 85 q 546 146 533 146 q 567 138 557 146 q 599 106 583 124 q 607 85 607 97 q 599 65 607 74 q 505 4 558 26 q 392 -18 451 -18 m 347 894 q 333 900 339 894 q 328 914 328 906 l 328 1035 q 333 1049 328 1043 q 347 1054 339 1054 l 414 1054 q 428 1049 422 1054 q 433 1035 433 1043 l 433 914 q 428 900 433 906 q 414 894 422 894 l 347 894 z "},"d":{"ha":819,"x_min":90,"x_max":694,"o":"m 381 -18 q 235 21 301 -18 q 129 126 168 60 q 90 272 90 193 l 90 514 q 129 660 90 593 q 235 765 168 726 q 382 804 303 804 q 492 783 439 804 q 586 725 546 763 l 586 1035 q 592 1049 586 1043 q 606 1054 597 1054 l 675 1054 q 689 1049 683 1054 q 694 1035 694 1043 l 694 19 q 689 6 694 11 q 675 0 683 0 l 611 0 q 597 6 603 0 q 592 19 592 11 l 592 81 q 498 8 553 33 q 381 -18 443 -18 m 392 85 q 490 110 444 85 q 560 181 535 136 q 586 278 586 225 l 586 508 q 560 606 586 561 q 490 676 535 650 q 392 701 444 701 q 294 676 339 701 q 224 606 250 650 q 199 508 199 561 l 199 278 q 224 181 199 225 q 294 110 250 136 q 392 85 339 85 z "},"ð":{"ha":797,"x_min":90,"x_max":693,"o":"m 392 -18 q 240 22 310 -18 q 131 133 171 63 q 90 285 90 203 l 90 428 q 131 581 90 511 q 240 690 171 650 q 392 731 310 731 q 568 674 489 731 q 461 864 542 788 l 269 774 q 263 772 267 772 q 251 777 256 772 q 246 789 246 782 l 246 844 q 250 858 246 851 q 261 868 254 865 l 374 921 q 218 953 303 953 q 206 959 211 953 q 200 972 200 965 l 200 1035 q 206 1049 200 1043 q 221 1054 211 1054 q 488 974 374 1054 l 656 1053 q 663 1054 658 1054 q 674 1049 669 1054 q 679 1038 679 1044 l 679 982 q 675 968 679 975 q 664 958 671 961 l 560 910 q 636 797 601 865 q 681 641 669 726 q 693 439 693 556 l 693 285 q 653 133 693 203 q 543 22 613 63 q 392 -18 474 -18 m 392 85 q 489 110 444 85 q 559 181 533 136 q 585 278 585 225 l 585 435 q 559 532 585 488 q 489 602 533 576 q 392 628 444 628 q 294 602 339 628 q 224 532 250 576 q 199 435 199 488 l 199 278 q 224 181 199 225 q 294 110 250 136 q 392 85 339 85 z "},"ď":{"ha":826,"x_min":90,"x_max":978,"o":"m 381 -18 q 235 21 301 -18 q 129 126 168 60 q 90 272 90 193 l 90 514 q 129 660 90 593 q 235 765 168 726 q 382 804 303 804 q 492 783 439 804 q 586 725 546 763 l 586 1035 q 592 1049 586 1043 q 606 1054 597 1054 l 675 1054 q 689 1049 683 1054 q 694 1035 694 1043 l 694 19 q 689 6 694 11 q 675 0 683 0 l 611 0 q 597 6 603 0 q 592 19 592 11 l 592 81 q 498 8 553 33 q 381 -18 443 -18 m 790 876 q 775 884 779 876 q 775 903 771 892 l 826 1028 q 865 1054 838 1054 l 958 1054 q 973 1049 968 1054 q 978 1036 978 1044 q 972 1022 978 1028 l 860 893 q 824 876 846 876 l 790 876 m 392 85 q 490 110 444 85 q 560 181 535 136 q 586 278 586 225 l 586 508 q 560 606 586 561 q 490 676 535 650 q 392 701 444 701 q 294 676 339 701 q 224 606 250 650 q 199 508 199 561 l 199 278 q 224 181 199 225 q 294 110 250 136 q 392 85 339 85 z "},"đ":{"ha":843,"x_min":90,"x_max":793,"o":"m 774 938 q 788 932 782 938 q 793 918 793 926 l 793 874 q 788 860 793 865 q 774 854 782 854 l 694 854 l 694 19 q 689 6 694 11 q 675 0 683 0 l 611 0 q 597 6 603 0 q 592 19 592 11 l 592 81 q 498 8 553 33 q 381 -18 443 -18 q 235 21 301 -18 q 129 126 168 60 q 90 272 90 193 l 90 514 q 129 660 90 593 q 235 765 168 726 q 382 804 303 804 q 492 783 439 804 q 586 725 546 763 l 586 854 l 463 854 q 449 860 454 854 q 443 874 443 865 l 443 918 q 449 932 443 926 q 463 938 454 938 l 586 938 l 586 1035 q 592 1049 586 1043 q 606 1054 597 1054 l 675 1054 q 689 1049 683 1054 q 694 1035 694 1043 l 694 938 l 774 938 m 586 508 q 560 606 586 561 q 490 676 535 650 q 392 701 444 701 q 294 676 339 701 q 224 606 250 650 q 199 508 199 561 l 199 278 q 224 181 199 225 q 294 110 250 136 q 392 85 339 85 q 490 110 444 85 q 560 181 535 136 q 586 278 586 225 l 586 508 z "},"e":{"ha":774,"x_min":90,"x_max":693,"o":"m 392 0 q 240 40 310 0 q 131 151 171 81 q 90 303 90 221 l 90 501 q 131 653 90 583 q 240 764 171 724 q 392 804 310 804 q 543 764 474 804 q 653 653 613 724 q 693 501 693 583 l 693 407 q 678 372 693 386 q 643 357 664 357 l 199 357 l 199 296 q 224 199 199 243 q 294 128 250 154 q 392 103 339 103 l 593 103 q 607 97 601 103 q 613 83 613 92 l 613 19 q 607 6 613 11 q 593 0 601 0 l 392 0 m 585 457 l 585 508 q 559 606 585 561 q 489 676 533 650 q 392 701 444 701 q 294 676 339 701 q 224 606 250 650 q 199 508 199 561 l 199 457 l 585 457 z "},"é":{"ha":774,"x_min":90,"x_max":693,"o":"m 392 0 q 240 40 310 0 q 131 151 171 81 q 90 303 90 221 l 90 501 q 131 653 90 583 q 240 764 171 724 q 392 804 310 804 q 543 764 474 804 q 653 653 613 724 q 693 501 693 583 l 693 407 q 678 372 693 386 q 643 357 664 357 l 199 357 l 199 296 q 224 199 199 243 q 294 128 250 154 q 392 103 339 103 l 593 103 q 607 97 601 103 q 613 83 613 92 l 613 19 q 607 6 613 11 q 593 0 601 0 l 392 0 m 585 457 l 585 508 q 559 606 585 561 q 489 676 533 650 q 392 701 444 701 q 294 676 339 701 q 224 606 250 650 q 199 508 199 561 l 199 457 l 585 457 m 372 876 q 357 884 361 876 q 357 903 353 892 l 408 1028 q 447 1054 419 1054 l 540 1054 q 554 1049 549 1054 q 560 1036 560 1044 q 554 1022 560 1028 l 442 893 q 406 876 428 876 l 372 876 z "},"ě":{"ha":774,"x_min":90,"x_max":693,"o":"m 392 0 q 240 40 310 0 q 131 151 171 81 q 90 303 90 221 l 90 501 q 131 653 90 583 q 240 764 171 724 q 392 804 310 804 q 543 764 474 804 q 653 653 613 724 q 693 501 693 583 l 693 407 q 678 372 693 386 q 643 357 664 357 l 199 357 l 199 296 q 224 199 199 243 q 294 128 250 154 q 392 103 339 103 l 593 103 q 607 97 601 103 q 613 83 613 92 l 613 19 q 607 6 613 11 q 593 0 601 0 l 392 0 m 585 457 l 585 508 q 559 606 585 561 q 489 676 533 650 q 392 701 444 701 q 294 676 339 701 q 224 606 250 650 q 199 508 199 561 l 199 457 l 585 457 m 353 876 q 328 889 336 876 l 215 1028 q 211 1038 211 1032 q 216 1049 211 1044 q 229 1054 221 1054 l 275 1054 q 310 1040 292 1054 l 397 972 l 485 1040 q 518 1054 503 1054 l 565 1054 q 581 1045 576 1054 q 579 1028 586 1036 l 467 889 q 442 876 458 876 l 353 876 z "},"ê":{"ha":774,"x_min":90,"x_max":693,"o":"m 392 0 q 240 40 310 0 q 131 151 171 81 q 90 303 90 221 l 90 501 q 131 653 90 583 q 240 764 171 724 q 392 804 310 804 q 543 764 474 804 q 653 653 613 724 q 693 501 693 583 l 693 407 q 678 372 693 386 q 643 357 664 357 l 199 357 l 199 296 q 224 199 199 243 q 294 128 250 154 q 392 103 339 103 l 593 103 q 607 97 601 103 q 613 83 613 92 l 613 19 q 607 6 613 11 q 593 0 601 0 l 392 0 m 585 457 l 585 508 q 559 606 585 561 q 489 676 533 650 q 392 701 444 701 q 294 676 339 701 q 224 606 250 650 q 199 508 199 561 l 199 457 l 585 457 m 224 876 q 208 885 213 876 q 210 903 203 894 l 322 1042 q 347 1054 331 1054 l 436 1054 q 461 1042 453 1054 l 574 903 q 578 893 578 899 q 573 881 578 886 q 560 876 568 876 l 514 876 q 479 890 497 876 l 392 958 l 304 890 q 271 876 286 876 l 224 876 z "},"ë":{"ha":774,"x_min":90,"x_max":693,"o":"m 392 0 q 240 40 310 0 q 131 151 171 81 q 90 303 90 221 l 90 501 q 131 653 90 583 q 240 764 171 724 q 392 804 310 804 q 543 764 474 804 q 653 653 613 724 q 693 501 693 583 l 693 407 q 678 372 693 386 q 643 357 664 357 l 199 357 l 199 296 q 224 199 199 243 q 294 128 250 154 q 392 103 339 103 l 593 103 q 607 97 601 103 q 613 83 613 92 l 613 19 q 607 6 613 11 q 593 0 601 0 l 392 0 m 585 457 l 585 508 q 559 606 585 561 q 489 676 533 650 q 392 701 444 701 q 294 676 339 701 q 224 606 250 650 q 199 508 199 561 l 199 457 l 585 457 m 190 894 q 176 900 182 894 q 171 914 171 906 l 171 1035 q 176 1049 171 1043 q 190 1054 182 1054 l 257 1054 q 271 1049 265 1054 q 276 1035 276 1043 l 276 914 q 271 900 276 906 q 257 894 265 894 l 190 894 m 526 894 q 513 900 518 894 q 507 914 507 906 l 507 1035 q 513 1049 507 1043 q 526 1054 518 1054 l 593 1054 q 607 1049 601 1054 q 613 1035 613 1043 l 613 914 q 607 900 613 906 q 593 894 601 894 l 526 894 z "},"ė":{"ha":774,"x_min":90,"x_max":693,"o":"m 392 0 q 240 40 310 0 q 131 151 171 81 q 90 303 90 221 l 90 501 q 131 653 90 583 q 240 764 171 724 q 392 804 310 804 q 543 764 474 804 q 653 653 613 724 q 693 501 693 583 l 693 407 q 678 372 693 386 q 643 357 664 357 l 199 357 l 199 296 q 224 199 199 243 q 294 128 250 154 q 392 103 339 103 l 593 103 q 607 97 601 103 q 613 83 613 92 l 613 19 q 607 6 613 11 q 593 0 601 0 l 392 0 m 585 457 l 585 508 q 559 606 585 561 q 489 676 533 650 q 392 701 444 701 q 294 676 339 701 q 224 606 250 650 q 199 508 199 561 l 199 457 l 585 457 m 358 894 q 344 900 350 894 q 339 914 339 906 l 339 1035 q 344 1049 339 1043 q 358 1054 350 1054 l 425 1054 q 439 1049 433 1054 q 444 1035 444 1043 l 444 914 q 439 900 444 906 q 425 894 433 894 l 358 894 z "},"è":{"ha":774,"x_min":90,"x_max":693,"o":"m 392 0 q 240 40 310 0 q 131 151 171 81 q 90 303 90 221 l 90 501 q 131 653 90 583 q 240 764 171 724 q 392 804 310 804 q 543 764 474 804 q 653 653 613 724 q 693 501 693 583 l 693 407 q 678 372 693 386 q 643 357 664 357 l 199 357 l 199 296 q 224 199 199 243 q 294 128 250 154 q 392 103 339 103 l 593 103 q 607 97 601 103 q 613 83 613 92 l 613 19 q 607 6 613 11 q 593 0 601 0 l 392 0 m 585 457 l 585 508 q 559 606 585 561 q 489 676 533 650 q 392 701 444 701 q 294 676 339 701 q 224 606 250 650 q 199 508 199 561 l 199 457 l 585 457 m 390 876 q 354 893 368 876 l 242 1022 q 236 1036 236 1028 q 241 1049 236 1044 q 256 1054 246 1054 l 349 1054 q 388 1028 376 1054 l 439 903 q 442 893 442 894 q 437 881 442 886 q 424 876 432 876 l 390 876 z "},"ē":{"ha":774,"x_min":90,"x_max":693,"o":"m 392 0 q 240 40 310 0 q 131 151 171 81 q 90 303 90 221 l 90 501 q 131 653 90 583 q 240 764 171 724 q 392 804 310 804 q 543 764 474 804 q 653 653 613 724 q 693 501 693 583 l 693 407 q 678 372 693 386 q 643 357 664 357 l 199 357 l 199 296 q 224 199 199 243 q 294 128 250 154 q 392 103 339 103 l 593 103 q 607 97 601 103 q 613 83 613 92 l 613 19 q 607 6 613 11 q 593 0 601 0 l 392 0 m 585 457 l 585 508 q 559 606 585 561 q 489 676 533 650 q 392 701 444 701 q 294 676 339 701 q 224 606 250 650 q 199 508 199 561 l 199 457 l 585 457 m 210 921 q 196 926 201 921 q 190 939 190 931 l 190 990 q 196 1003 190 999 q 210 1008 201 1008 l 571 1008 q 585 1003 579 1008 q 590 990 590 999 l 590 939 q 585 926 590 931 q 571 921 579 921 l 210 921 z "},"ę":{"ha":774,"x_min":90,"x_max":693,"o":"m 557 -274 q 451 -241 494 -274 q 407 -156 407 -208 q 434 -73 407 -112 q 500 0 461 -33 l 392 0 q 240 40 310 0 q 131 151 171 81 q 90 303 90 221 l 90 501 q 131 653 90 583 q 240 764 171 724 q 392 804 310 804 q 543 764 474 804 q 653 653 613 724 q 693 501 693 583 l 693 407 q 678 372 693 386 q 643 357 664 357 l 199 357 l 199 296 q 224 199 199 243 q 294 128 250 154 q 392 103 339 103 l 593 103 q 607 97 601 103 q 613 83 613 92 l 613 39 q 594 0 613 18 q 535 -68 554 -42 q 517 -125 517 -94 q 575 -176 517 -176 l 599 -176 q 613 -183 607 -176 q 619 -197 619 -189 l 619 -253 q 613 -267 619 -261 q 599 -274 607 -274 l 557 -274 m 585 457 l 585 508 q 559 606 585 561 q 489 676 533 650 q 392 701 444 701 q 294 676 339 701 q 224 606 250 650 q 199 508 199 561 l 199 457 l 585 457 z "},"f":{"ha":567,"x_min":56,"x_max":525,"o":"m 200 0 q 186 6 192 0 q 181 19 181 11 l 181 683 l 75 683 q 61 689 67 683 q 56 703 56 694 l 56 767 q 61 781 56 775 q 75 786 67 786 l 181 786 l 181 842 q 238 994 181 933 q 394 1054 294 1054 l 506 1054 q 519 1049 514 1054 q 525 1035 525 1043 l 525 975 q 519 961 525 967 q 506 956 514 956 l 393 956 q 317 926 346 956 q 289 847 289 896 l 289 786 l 478 786 q 492 781 486 786 q 497 767 497 775 l 497 703 q 492 689 497 694 q 478 683 486 683 l 289 683 l 289 19 q 283 6 289 11 q 269 0 278 0 l 200 0 z "},"g":{"ha":813,"x_min":90,"x_max":785,"o":"m 388 -286 q 173 -237 256 -286 q 90 -93 90 -189 q 113 0 90 -44 q 172 74 135 44 q 122 122 138 97 q 106 181 106 146 q 130 263 106 224 q 196 328 154 301 q 122 417 149 364 q 96 536 96 471 q 134 676 96 615 q 238 771 172 738 q 382 804 303 804 q 490 786 436 804 l 765 786 q 779 781 774 786 q 785 767 785 775 l 785 703 q 779 689 785 694 q 765 683 774 683 l 625 683 q 668 536 668 621 q 630 396 668 457 q 526 301 592 335 q 382 268 461 268 q 272 286 329 268 q 225 250 242 272 q 208 203 208 228 q 236 156 208 171 q 301 138 258 143 q 436 124 344 132 l 490 119 q 605 101 557 114 q 687 53 653 89 q 721 -53 721 17 q 628 -226 721 -167 q 388 -286 535 -286 m 382 364 q 513 412 464 364 q 563 536 563 460 q 513 660 563 613 q 382 708 464 708 q 251 660 300 708 q 201 536 201 613 q 251 412 201 460 q 382 364 300 364 m 400 -190 q 558 -160 497 -190 q 619 -64 619 -129 q 602 -14 619 -31 q 555 9 585 3 q 467 21 525 15 q 408 26 454 22 q 306 36 361 29 q 250 44 272 40 q 206 -7 222 24 q 190 -69 190 -37 q 249 -162 190 -133 q 400 -190 308 -190 z "},"ğ":{"ha":813,"x_min":90,"x_max":785,"o":"m 388 -286 q 173 -237 256 -286 q 90 -93 90 -189 q 113 0 90 -44 q 172 74 135 44 q 122 122 138 97 q 106 181 106 146 q 130 263 106 224 q 196 328 154 301 q 122 417 149 364 q 96 536 96 471 q 134 676 96 615 q 238 771 172 738 q 382 804 303 804 q 490 786 436 804 l 765 786 q 779 781 774 786 q 785 767 785 775 l 785 703 q 779 689 785 694 q 765 683 774 683 l 625 683 q 668 536 668 621 q 630 396 668 457 q 526 301 592 335 q 382 268 461 268 q 272 286 329 268 q 225 250 242 272 q 208 203 208 228 q 236 156 208 171 q 301 138 258 143 q 436 124 344 132 l 490 119 q 605 101 557 114 q 687 53 653 89 q 721 -53 721 17 q 628 -226 721 -167 q 388 -286 535 -286 m 382 364 q 513 412 464 364 q 563 536 563 460 q 513 660 563 613 q 382 708 464 708 q 251 660 300 708 q 201 536 201 613 q 251 412 201 460 q 382 364 300 364 m 400 -190 q 558 -160 497 -190 q 619 -64 619 -129 q 602 -14 619 -31 q 555 9 585 3 q 467 21 525 15 q 408 26 454 22 q 306 36 361 29 q 250 44 272 40 q 206 -7 222 24 q 190 -69 190 -37 q 249 -162 190 -133 q 400 -190 308 -190 m 385 892 q 274 917 321 892 q 210 968 226 943 q 204 982 204 979 q 213 996 204 990 l 257 1035 q 265 1039 261 1039 q 276 1033 271 1039 q 301 1013 278 1032 q 386 994 325 994 q 443 1004 419 994 q 494 1035 467 1014 q 513 1035 504 1043 l 557 994 q 564 981 564 988 q 560 968 564 975 q 528 938 551 956 q 467 906 504 919 q 385 892 429 892 z "},"ģ":{"ha":813,"x_min":90,"x_max":785,"o":"m 333 876 q 319 882 325 876 q 314 894 314 888 q 319 908 314 903 l 447 1054 q 483 1071 461 1071 l 517 1071 q 533 1063 528 1071 q 532 1044 538 1056 l 465 903 q 426 876 453 876 l 333 876 m 388 -286 q 173 -237 256 -286 q 90 -93 90 -189 q 113 0 90 -44 q 172 74 135 44 q 122 122 138 97 q 106 181 106 146 q 130 263 106 224 q 196 328 154 301 q 122 417 149 364 q 96 536 96 471 q 134 676 96 615 q 238 771 172 738 q 382 804 303 804 q 490 786 436 804 l 765 786 q 779 781 774 786 q 785 767 785 775 l 785 703 q 779 689 785 694 q 765 683 774 683 l 625 683 q 668 536 668 621 q 630 396 668 457 q 526 301 592 335 q 382 268 461 268 q 272 286 329 268 q 225 250 242 272 q 208 203 208 228 q 236 156 208 171 q 301 138 258 143 q 436 124 344 132 l 490 119 q 605 101 557 114 q 687 53 653 89 q 721 -53 721 17 q 628 -226 721 -167 q 388 -286 535 -286 m 382 364 q 513 412 464 364 q 563 536 563 460 q 513 660 563 613 q 382 708 464 708 q 251 660 300 708 q 201 536 201 613 q 251 412 201 460 q 382 364 300 364 m 400 -190 q 558 -160 497 -190 q 619 -64 619 -129 q 602 -14 619 -31 q 555 9 585 3 q 467 21 525 15 q 408 26 454 22 q 306 36 361 29 q 250 44 272 40 q 206 -7 222 24 q 190 -69 190 -37 q 249 -162 190 -133 q 400 -190 308 -190 z "},"ġ":{"ha":813,"x_min":90,"x_max":785,"o":"m 388 -286 q 173 -237 256 -286 q 90 -93 90 -189 q 113 0 90 -44 q 172 74 135 44 q 122 122 138 97 q 106 181 106 146 q 130 263 106 224 q 196 328 154 301 q 122 417 149 364 q 96 536 96 471 q 134 676 96 615 q 238 771 172 738 q 382 804 303 804 q 490 786 436 804 l 765 786 q 779 781 774 786 q 785 767 785 775 l 785 703 q 779 689 785 694 q 765 683 774 683 l 625 683 q 668 536 668 621 q 630 396 668 457 q 526 301 592 335 q 382 268 461 268 q 272 286 329 268 q 225 250 242 272 q 208 203 208 228 q 236 156 208 171 q 301 138 258 143 q 436 124 344 132 l 490 119 q 605 101 557 114 q 687 53 653 89 q 721 -53 721 17 q 628 -226 721 -167 q 388 -286 535 -286 m 382 364 q 513 412 464 364 q 563 536 563 460 q 513 660 563 613 q 382 708 464 708 q 251 660 300 708 q 201 536 201 613 q 251 412 201 460 q 382 364 300 364 m 400 -190 q 558 -160 497 -190 q 619 -64 619 -129 q 602 -14 619 -31 q 555 9 585 3 q 467 21 525 15 q 408 26 454 22 q 306 36 361 29 q 250 44 272 40 q 206 -7 222 24 q 190 -69 190 -37 q 249 -162 190 -133 q 400 -190 308 -190 m 349 894 q 335 900 340 894 q 329 914 329 906 l 329 1035 q 335 1049 329 1043 q 349 1054 340 1054 l 415 1054 q 429 1049 424 1054 q 435 1035 435 1043 l 435 914 q 429 900 435 906 q 415 894 424 894 l 349 894 z "},"h":{"ha":825,"x_min":125,"x_max":721,"o":"m 144 0 q 131 6 136 0 q 125 19 125 11 l 125 1035 q 131 1049 125 1043 q 144 1054 136 1054 l 214 1054 q 228 1049 222 1054 q 233 1035 233 1043 l 233 689 q 327 775 269 746 q 457 804 385 804 q 648 732 575 804 q 721 542 721 660 l 721 19 q 715 6 721 11 q 701 0 710 0 l 632 0 q 618 6 624 0 q 613 19 613 11 l 613 521 q 566 656 613 610 q 440 703 519 703 q 290 642 347 703 q 233 474 233 581 l 233 19 q 228 6 233 11 q 214 0 222 0 l 144 0 z "},"ħ":{"ha":828,"x_min":7,"x_max":724,"o":"m 460 804 q 651 732 578 804 q 724 542 724 660 l 724 21 q 717 6 724 13 q 703 0 711 0 l 635 0 q 621 6 626 0 q 615 19 615 11 l 615 521 q 569 656 615 610 q 443 703 522 703 q 293 642 350 703 q 236 474 236 581 l 236 21 q 230 6 236 13 q 215 0 224 0 l 149 0 q 134 6 140 0 q 128 21 128 13 l 128 854 l 26 854 q 13 860 18 854 q 7 874 7 865 l 7 918 q 13 932 7 926 q 26 938 18 938 l 128 938 l 128 1033 q 134 1048 128 1042 q 149 1054 140 1054 l 215 1054 q 230 1048 224 1054 q 236 1033 236 1042 l 236 938 l 365 938 q 379 932 374 938 q 385 918 385 926 l 385 874 q 379 860 385 865 q 365 854 374 854 l 236 854 l 236 689 q 330 775 272 746 q 460 804 388 804 z "},"i":{"ha":546,"x_min":63,"x_max":497,"o":"m 247 894 q 233 900 239 894 q 228 914 228 906 l 228 1035 q 233 1049 228 1043 q 247 1054 239 1054 l 314 1054 q 328 1049 322 1054 q 333 1035 333 1043 l 333 914 q 328 900 333 906 q 314 894 322 894 l 247 894 m 276 0 q 241 15 256 0 q 226 50 226 29 l 226 683 l 82 683 q 68 689 74 683 q 63 703 63 694 l 63 767 q 68 781 63 775 q 82 786 74 786 l 285 786 q 320 772 306 786 q 335 736 335 757 l 335 103 l 478 103 q 492 97 486 103 q 497 83 497 92 l 497 19 q 492 6 497 11 q 478 0 486 0 l 276 0 z "},"ı":{"ha":546,"x_min":63,"x_max":497,"o":"m 276 0 q 241 15 256 0 q 226 50 226 29 l 226 683 l 82 683 q 68 689 74 683 q 63 703 63 694 l 63 767 q 68 781 63 775 q 82 786 74 786 l 285 786 q 320 772 306 786 q 335 736 335 757 l 335 103 l 478 103 q 492 97 486 103 q 497 83 497 92 l 497 19 q 492 6 497 11 q 478 0 486 0 l 276 0 z "},"í":{"ha":546,"x_min":63,"x_max":497,"o":"m 276 0 q 241 15 256 0 q 226 50 226 29 l 226 683 l 82 683 q 68 689 74 683 q 63 703 63 694 l 63 767 q 68 781 63 775 q 82 786 74 786 l 285 786 q 320 772 306 786 q 335 736 335 757 l 335 103 l 478 103 q 492 97 486 103 q 497 83 497 92 l 497 19 q 492 6 497 11 q 478 0 486 0 l 276 0 m 246 876 q 231 884 235 876 q 231 903 226 892 l 282 1028 q 321 1054 293 1054 l 414 1054 q 428 1049 422 1054 q 433 1036 433 1044 q 428 1022 433 1028 l 315 893 q 279 876 301 876 l 246 876 z "},"î":{"ha":546,"x_min":63,"x_max":497,"o":"m 276 0 q 241 15 256 0 q 226 50 226 29 l 226 683 l 82 683 q 68 689 74 683 q 63 703 63 694 l 63 767 q 68 781 63 775 q 82 786 74 786 l 285 786 q 320 772 306 786 q 335 736 335 757 l 335 103 l 478 103 q 492 97 486 103 q 497 83 497 92 l 497 19 q 492 6 497 11 q 478 0 486 0 l 276 0 m 97 876 q 81 885 86 876 q 83 903 76 894 l 196 1042 q 221 1054 204 1054 l 310 1054 q 335 1042 326 1054 l 447 903 q 451 893 451 899 q 447 881 451 886 q 433 876 442 876 l 388 876 q 353 890 371 876 l 265 958 l 178 890 q 144 876 160 876 l 97 876 z "},"ï":{"ha":546,"x_min":44,"x_max":497,"o":"m 276 0 q 241 15 256 0 q 226 50 226 29 l 226 683 l 82 683 q 68 689 74 683 q 63 703 63 694 l 63 767 q 68 781 63 775 q 82 786 74 786 l 285 786 q 320 772 306 786 q 335 736 335 757 l 335 103 l 478 103 q 492 97 486 103 q 497 83 497 92 l 497 19 q 492 6 497 11 q 478 0 486 0 l 276 0 m 64 894 q 50 900 56 894 q 44 914 44 906 l 44 1035 q 50 1049 44 1043 q 64 1054 56 1054 l 131 1054 q 144 1049 139 1054 q 150 1035 150 1043 l 150 914 q 144 900 150 906 q 131 894 139 894 l 64 894 m 400 894 q 386 900 392 894 q 381 914 381 906 l 381 1035 q 386 1049 381 1043 q 400 1054 392 1054 l 467 1054 q 481 1049 475 1054 q 486 1035 486 1043 l 486 914 q 481 900 486 906 q 467 894 475 894 l 400 894 z "},"ì":{"ha":546,"x_min":63,"x_max":497,"o":"m 276 0 q 241 15 256 0 q 226 50 226 29 l 226 683 l 82 683 q 68 689 74 683 q 63 703 63 694 l 63 767 q 68 781 63 775 q 82 786 74 786 l 285 786 q 320 772 306 786 q 335 736 335 757 l 335 103 l 478 103 q 492 97 486 103 q 497 83 497 92 l 497 19 q 492 6 497 11 q 478 0 486 0 l 276 0 m 264 876 q 228 893 242 876 l 115 1022 q 110 1036 110 1028 q 115 1049 110 1044 q 129 1054 119 1054 l 222 1054 q 261 1028 250 1054 l 313 903 q 315 893 315 894 q 310 881 315 886 q 297 876 306 876 l 264 876 z "},"ī":{"ha":546,"x_min":63,"x_max":497,"o":"m 276 0 q 241 15 256 0 q 226 50 226 29 l 226 683 l 82 683 q 68 689 74 683 q 63 703 63 694 l 63 767 q 68 781 63 775 q 82 786 74 786 l 285 786 q 320 772 306 786 q 335 736 335 757 l 335 103 l 478 103 q 492 97 486 103 q 497 83 497 92 l 497 19 q 492 6 497 11 q 478 0 486 0 l 276 0 m 83 921 q 69 926 75 921 q 64 939 64 931 l 64 990 q 69 1003 64 999 q 83 1008 75 1008 l 444 1008 q 458 1003 453 1008 q 464 990 464 999 l 464 939 q 458 926 464 931 q 444 921 453 921 l 83 921 z "},"į":{"ha":546,"x_min":63,"x_max":504,"o":"m 243 922 q 229 928 235 922 q 224 942 224 933 l 224 1063 q 229 1076 224 1071 q 243 1082 235 1082 l 310 1082 q 324 1076 318 1082 q 329 1063 329 1071 l 329 942 q 324 928 329 933 q 310 922 318 922 l 243 922 m 442 -274 q 335 -241 379 -274 q 292 -156 292 -208 q 319 -73 292 -112 q 385 0 346 -33 l 276 0 q 241 15 256 0 q 226 50 226 29 l 226 683 l 82 683 q 68 689 74 683 q 63 703 63 694 l 63 767 q 68 781 63 775 q 82 786 74 786 l 285 786 q 320 772 306 786 q 335 736 335 757 l 335 103 l 478 103 q 492 97 486 103 q 497 83 497 92 l 497 39 q 479 0 497 18 q 420 -68 439 -42 q 401 -125 401 -94 q 460 -176 401 -176 l 483 -176 q 498 -183 492 -176 q 504 -197 504 -189 l 504 -253 q 498 -267 504 -261 q 483 -274 492 -274 l 442 -274 z "},"j":{"ha":493,"x_min":49,"x_max":361,"o":"m 274 922 q 260 928 265 922 q 254 942 254 933 l 254 1063 q 260 1076 254 1071 q 274 1082 265 1082 l 340 1082 q 354 1076 349 1082 q 360 1063 360 1071 l 360 942 q 354 928 360 933 q 340 922 349 922 l 274 922 m 68 -268 q 54 -262 60 -268 q 49 -249 49 -257 l 49 -187 q 54 -174 49 -179 q 68 -168 60 -168 l 149 -168 q 224 -138 196 -168 q 253 -60 253 -108 l 253 683 l 68 683 q 54 689 60 683 q 49 703 49 694 l 49 767 q 54 781 49 775 q 68 786 60 786 l 311 786 q 347 772 332 786 q 361 736 361 757 l 361 -60 q 306 -208 361 -147 q 161 -268 251 -268 l 68 -268 z "},"k":{"ha":746,"x_min":125,"x_max":711,"o":"m 146 0 q 131 5 138 0 q 125 18 125 10 l 125 1035 q 131 1049 125 1043 q 144 1054 136 1054 l 214 1054 q 228 1049 222 1054 q 233 1035 233 1043 l 233 481 l 290 481 l 564 774 q 588 786 575 786 l 678 786 q 691 781 686 786 q 696 769 696 776 q 690 756 696 761 l 382 433 l 707 28 q 711 17 711 22 q 707 5 711 10 q 694 0 703 0 l 604 0 q 581 13 592 0 l 290 378 l 233 378 l 233 18 q 227 5 233 10 q 213 0 221 0 l 146 0 z "},"ķ":{"ha":746,"x_min":125,"x_max":711,"o":"m 146 0 q 131 5 138 0 q 125 18 125 10 l 125 1035 q 131 1049 125 1043 q 144 1054 136 1054 l 214 1054 q 228 1049 222 1054 q 233 1035 233 1043 l 233 481 l 290 481 l 564 774 q 588 786 575 786 l 678 786 q 691 781 686 786 q 696 769 696 776 q 690 756 696 761 l 382 433 l 707 28 q 711 17 711 22 q 707 5 711 10 q 694 0 703 0 l 604 0 q 581 13 592 0 l 290 378 l 233 378 l 233 18 q 227 5 233 10 q 213 0 221 0 l 146 0 m 282 -268 q 267 -260 271 -268 q 267 -242 263 -253 l 318 -117 q 357 -90 329 -90 l 450 -90 q 464 -96 458 -90 q 469 -108 469 -101 q 464 -122 469 -117 l 351 -251 q 315 -268 338 -268 l 282 -268 z "},"l":{"ha":486,"x_min":21,"x_max":444,"o":"m 219 0 q 184 15 199 0 q 169 50 169 29 l 169 951 l 40 951 q 26 957 32 951 q 21 971 21 963 l 21 1035 q 26 1049 21 1043 q 40 1054 32 1054 l 228 1054 q 263 1040 249 1054 q 278 1004 278 1025 l 278 103 l 425 103 q 439 97 433 103 q 444 83 444 92 l 444 19 q 439 6 444 11 q 425 0 433 0 l 219 0 z "},"ĺ":{"ha":486,"x_min":21,"x_max":444,"o":"m 219 0 q 184 15 199 0 q 169 50 169 29 l 169 951 l 40 951 q 26 957 32 951 q 21 971 21 963 l 21 1035 q 26 1049 21 1043 q 40 1054 32 1054 l 228 1054 q 263 1040 249 1054 q 278 1004 278 1025 l 278 103 l 425 103 q 439 97 433 103 q 444 83 444 92 l 444 19 q 439 6 444 11 q 425 0 433 0 l 219 0 m 213 1144 q 197 1152 201 1144 q 197 1171 193 1160 l 249 1296 q 288 1322 260 1322 l 381 1322 q 394 1317 389 1322 q 400 1304 400 1313 q 394 1290 400 1296 l 282 1161 q 246 1144 268 1144 l 213 1144 z "},"ľ":{"ha":503,"x_min":21,"x_max":586,"o":"m 219 0 q 184 15 199 0 q 169 50 169 29 l 169 951 l 40 951 q 26 957 32 951 q 21 971 21 963 l 21 1035 q 26 1049 21 1043 q 40 1054 32 1054 l 228 1054 q 263 1040 249 1054 q 278 1004 278 1025 l 278 103 l 425 103 q 439 97 433 103 q 444 83 444 92 l 444 19 q 439 6 444 11 q 425 0 433 0 l 219 0 m 399 876 q 383 884 388 876 q 383 903 379 892 l 435 1028 q 474 1054 446 1054 l 567 1054 q 581 1049 576 1054 q 586 1036 586 1044 q 581 1022 586 1028 l 468 893 q 432 876 454 876 l 399 876 z "},"ļ":{"ha":486,"x_min":21,"x_max":444,"o":"m 219 0 q 184 15 199 0 q 169 50 169 29 l 169 951 l 40 951 q 26 957 32 951 q 21 971 21 963 l 21 1035 q 26 1049 21 1043 q 40 1054 32 1054 l 228 1054 q 263 1040 249 1054 q 278 1004 278 1025 l 278 103 l 425 103 q 439 97 433 103 q 444 83 444 92 l 444 19 q 439 6 444 11 q 425 0 433 0 l 219 0 m 186 -268 q 171 -260 175 -268 q 171 -242 167 -253 l 222 -117 q 261 -90 233 -90 l 354 -90 q 368 -96 363 -90 q 374 -108 374 -101 q 368 -122 374 -117 l 256 -251 q 219 -268 242 -268 l 186 -268 z "},"ł":{"ha":549,"x_min":63,"x_max":486,"o":"m 319 535 l 319 103 l 467 103 q 481 97 475 103 q 486 83 486 92 l 486 19 q 481 6 486 11 q 467 0 475 0 l 261 0 q 226 15 240 0 q 211 50 211 29 l 211 435 l 94 326 q 81 321 86 321 q 68 326 74 321 q 63 342 63 332 l 63 413 q 71 431 63 422 l 211 560 l 211 951 l 82 951 q 68 957 74 951 q 63 971 63 963 l 63 1035 q 68 1049 63 1043 q 82 1054 74 1054 l 269 1054 q 305 1040 290 1054 q 319 1004 319 1025 l 319 660 l 454 785 q 468 790 463 790 q 481 785 475 790 q 486 769 486 779 l 486 699 q 478 681 486 689 l 319 535 z "},"m":{"ha":1285,"x_min":125,"x_max":1181,"o":"m 144 0 q 131 6 136 0 q 125 19 125 11 l 125 767 q 131 781 125 775 q 144 786 136 786 l 214 786 q 228 781 222 786 q 233 767 233 775 l 233 692 q 322 776 267 747 q 443 804 376 804 q 595 763 531 804 q 688 651 660 722 q 778 764 717 725 q 917 803 839 803 q 1108 731 1035 803 q 1181 540 1181 658 l 1181 19 q 1175 6 1181 11 q 1161 0 1169 0 l 1092 0 q 1078 6 1083 0 q 1072 19 1072 11 l 1072 519 q 1026 655 1072 608 q 900 701 979 701 q 760 640 814 701 q 707 472 707 579 l 707 19 q 701 6 707 11 q 688 0 696 0 l 618 0 q 604 6 610 0 q 599 19 599 11 l 599 521 q 552 656 599 610 q 426 703 506 703 q 287 642 340 703 q 233 474 233 581 l 233 19 q 228 6 233 11 q 214 0 222 0 l 144 0 z "},"n":{"ha":825,"x_min":125,"x_max":721,"o":"m 144 1 q 131 7 136 1 q 125 21 125 13 l 125 767 q 131 781 125 775 q 144 786 136 786 l 214 786 q 228 781 222 786 q 233 767 233 775 l 233 690 q 327 776 269 747 q 457 806 385 806 q 648 733 575 806 q 721 543 721 661 l 721 21 q 715 7 721 13 q 701 1 710 1 l 632 1 q 618 7 624 1 q 613 21 613 13 l 613 522 q 566 658 613 611 q 440 704 519 704 q 290 643 347 704 q 233 475 233 582 l 233 21 q 228 7 233 13 q 214 1 222 1 l 144 1 z "},"ń":{"ha":825,"x_min":125,"x_max":721,"o":"m 144 1 q 131 7 136 1 q 125 21 125 13 l 125 767 q 131 781 125 775 q 144 786 136 786 l 214 786 q 228 781 222 786 q 233 767 233 775 l 233 690 q 327 776 269 747 q 457 806 385 806 q 648 733 575 806 q 721 543 721 661 l 721 21 q 715 7 721 13 q 701 1 710 1 l 632 1 q 618 7 624 1 q 613 21 613 13 l 613 522 q 566 658 613 611 q 440 704 519 704 q 290 643 347 704 q 233 475 233 582 l 233 21 q 228 7 233 13 q 214 1 222 1 l 144 1 m 404 876 q 389 884 393 876 q 389 903 385 892 l 440 1028 q 479 1054 451 1054 l 572 1054 q 586 1049 581 1054 q 592 1036 592 1044 q 586 1022 592 1028 l 474 893 q 438 876 460 876 l 404 876 z "},"ň":{"ha":825,"x_min":125,"x_max":721,"o":"m 144 1 q 131 7 136 1 q 125 21 125 13 l 125 767 q 131 781 125 775 q 144 786 136 786 l 214 786 q 228 781 222 786 q 233 767 233 775 l 233 690 q 327 776 269 747 q 457 806 385 806 q 648 733 575 806 q 721 543 721 661 l 721 21 q 715 7 721 13 q 701 1 710 1 l 632 1 q 618 7 624 1 q 613 21 613 13 l 613 522 q 566 658 613 611 q 440 704 519 704 q 290 643 347 704 q 233 475 233 582 l 233 21 q 228 7 233 13 q 214 1 222 1 l 144 1 m 385 876 q 360 889 368 876 l 247 1028 q 243 1038 243 1032 q 248 1049 243 1044 q 261 1054 253 1054 l 307 1054 q 342 1040 324 1054 l 429 972 l 517 1040 q 550 1054 535 1054 l 597 1054 q 613 1045 608 1054 q 611 1028 618 1036 l 499 889 q 474 876 490 876 l 385 876 z "},"ņ":{"ha":825,"x_min":125,"x_max":721,"o":"m 144 1 q 131 7 136 1 q 125 21 125 13 l 125 767 q 131 781 125 775 q 144 786 136 786 l 214 786 q 228 781 222 786 q 233 767 233 775 l 233 690 q 327 776 269 747 q 457 806 385 806 q 648 733 575 806 q 721 543 721 661 l 721 21 q 715 7 721 13 q 701 1 710 1 l 632 1 q 618 7 624 1 q 613 21 613 13 l 613 522 q 566 658 613 611 q 440 704 519 704 q 290 643 347 704 q 233 475 233 582 l 233 21 q 228 7 233 13 q 214 1 222 1 l 144 1 m 297 -268 q 282 -260 286 -268 q 282 -242 278 -253 l 333 -117 q 372 -90 344 -90 l 465 -90 q 479 -96 474 -90 q 485 -108 485 -101 q 479 -122 485 -117 l 367 -251 q 331 -268 353 -268 l 297 -268 z "},"ŋ":{"ha":839,"x_min":125,"x_max":721,"o":"m 428 -268 q 414 -262 419 -268 q 408 -249 408 -257 l 408 -187 q 414 -174 408 -179 q 428 -168 419 -168 l 508 -168 q 584 -138 556 -168 q 613 -60 613 -108 l 613 522 q 566 658 613 611 q 440 704 519 704 q 290 643 347 704 q 233 475 233 582 l 233 21 q 228 7 233 13 q 214 1 222 1 l 144 1 q 131 7 136 1 q 125 21 125 13 l 125 767 q 131 781 125 775 q 144 786 136 786 l 214 786 q 228 781 222 786 q 233 767 233 775 l 233 690 q 327 776 269 747 q 457 806 385 806 q 648 733 575 806 q 721 543 721 661 l 721 -60 q 666 -208 721 -147 q 521 -268 611 -268 l 428 -268 z "},"ñ":{"ha":825,"x_min":125,"x_max":721,"o":"m 144 1 q 131 7 136 1 q 125 21 125 13 l 125 767 q 131 781 125 775 q 144 786 136 786 l 214 786 q 228 781 222 786 q 233 767 233 775 l 233 690 q 327 776 269 747 q 457 806 385 806 q 648 733 575 806 q 721 543 721 661 l 721 21 q 715 7 721 13 q 701 1 710 1 l 632 1 q 618 7 624 1 q 613 21 613 13 l 613 522 q 566 658 613 611 q 440 704 519 704 q 290 643 347 704 q 233 475 233 582 l 233 21 q 228 7 233 13 q 214 1 222 1 l 144 1 m 515 893 q 467 900 492 893 q 410 919 443 907 q 338 939 354 939 q 309 933 319 939 q 290 915 299 928 q 283 908 286 908 q 271 908 279 907 l 232 921 q 221 939 219 925 q 269 1009 232 982 q 353 1036 306 1036 q 400 1029 376 1036 q 460 1010 424 1022 q 532 989 511 989 q 578 1013 563 989 q 588 1021 583 1019 q 600 1019 592 1022 l 638 1008 q 649 990 653 1003 q 601 920 639 947 q 515 893 564 893 z "},"o":{"ha":783,"x_min":90,"x_max":693,"o":"m 392 -18 q 240 22 310 -18 q 131 133 171 63 q 90 285 90 203 l 90 501 q 131 653 90 583 q 240 764 171 724 q 392 804 310 804 q 543 764 474 804 q 653 653 613 724 q 693 501 693 583 l 693 285 q 653 133 693 203 q 543 22 613 63 q 392 -18 474 -18 m 392 85 q 489 110 444 85 q 559 181 533 136 q 585 278 585 225 l 585 508 q 559 606 585 561 q 489 676 533 650 q 392 701 444 701 q 294 676 339 701 q 224 606 250 650 q 199 508 199 561 l 199 278 q 224 181 199 225 q 294 110 250 136 q 392 85 339 85 z "},"ó":{"ha":783,"x_min":90,"x_max":693,"o":"m 392 -18 q 240 22 310 -18 q 131 133 171 63 q 90 285 90 203 l 90 501 q 131 653 90 583 q 240 764 171 724 q 392 804 310 804 q 543 764 474 804 q 653 653 613 724 q 693 501 693 583 l 693 285 q 653 133 693 203 q 543 22 613 63 q 392 -18 474 -18 m 392 85 q 489 110 444 85 q 559 181 533 136 q 585 278 585 225 l 585 508 q 559 606 585 561 q 489 676 533 650 q 392 701 444 701 q 294 676 339 701 q 224 606 250 650 q 199 508 199 561 l 199 278 q 224 181 199 225 q 294 110 250 136 q 392 85 339 85 m 369 876 q 354 884 358 876 q 354 903 350 892 l 406 1028 q 444 1054 417 1054 l 538 1054 q 551 1049 546 1054 q 557 1036 557 1044 q 551 1022 557 1028 l 439 893 q 403 876 425 876 l 369 876 z "},"ô":{"ha":783,"x_min":90,"x_max":693,"o":"m 392 -18 q 240 22 310 -18 q 131 133 171 63 q 90 285 90 203 l 90 501 q 131 653 90 583 q 240 764 171 724 q 392 804 310 804 q 543 764 474 804 q 653 653 613 724 q 693 501 693 583 l 693 285 q 653 133 693 203 q 543 22 613 63 q 392 -18 474 -18 m 392 85 q 489 110 444 85 q 559 181 533 136 q 585 278 585 225 l 585 508 q 559 606 585 561 q 489 676 533 650 q 392 701 444 701 q 294 676 339 701 q 224 606 250 650 q 199 508 199 561 l 199 278 q 224 181 199 225 q 294 110 250 136 q 392 85 339 85 m 221 876 q 205 885 210 876 q 207 903 200 894 l 319 1042 q 344 1054 328 1054 l 433 1054 q 458 1042 450 1054 l 571 903 q 575 893 575 899 q 570 881 575 886 q 557 876 565 876 l 511 876 q 476 890 494 876 l 389 958 l 301 890 q 268 876 283 876 l 221 876 z "},"ö":{"ha":783,"x_min":90,"x_max":693,"o":"m 392 -18 q 240 22 310 -18 q 131 133 171 63 q 90 285 90 203 l 90 501 q 131 653 90 583 q 240 764 171 724 q 392 804 310 804 q 543 764 474 804 q 653 653 613 724 q 693 501 693 583 l 693 285 q 653 133 693 203 q 543 22 613 63 q 392 -18 474 -18 m 392 85 q 489 110 444 85 q 559 181 533 136 q 585 278 585 225 l 585 508 q 559 606 585 561 q 489 676 533 650 q 392 701 444 701 q 294 676 339 701 q 224 606 250 650 q 199 508 199 561 l 199 278 q 224 181 199 225 q 294 110 250 136 q 392 85 339 85 m 188 894 q 174 900 179 894 q 168 914 168 906 l 168 1035 q 174 1049 168 1043 q 188 1054 179 1054 l 254 1054 q 268 1049 263 1054 q 274 1035 274 1043 l 274 914 q 268 900 274 906 q 254 894 263 894 l 188 894 m 524 894 q 510 900 515 894 q 504 914 504 906 l 504 1035 q 510 1049 504 1043 q 524 1054 515 1054 l 590 1054 q 604 1049 599 1054 q 610 1035 610 1043 l 610 914 q 604 900 610 906 q 590 894 599 894 l 524 894 z "},"ò":{"ha":783,"x_min":90,"x_max":693,"o":"m 392 -18 q 240 22 310 -18 q 131 133 171 63 q 90 285 90 203 l 90 501 q 131 653 90 583 q 240 764 171 724 q 392 804 310 804 q 543 764 474 804 q 653 653 613 724 q 693 501 693 583 l 693 285 q 653 133 693 203 q 543 22 613 63 q 392 -18 474 -18 m 392 85 q 489 110 444 85 q 559 181 533 136 q 585 278 585 225 l 585 508 q 559 606 585 561 q 489 676 533 650 q 392 701 444 701 q 294 676 339 701 q 224 606 250 650 q 199 508 199 561 l 199 278 q 224 181 199 225 q 294 110 250 136 q 392 85 339 85 m 388 876 q 351 893 365 876 l 239 1022 q 233 1036 233 1028 q 238 1049 233 1044 q 253 1054 243 1054 l 346 1054 q 385 1028 374 1054 l 436 903 q 439 893 439 894 q 434 881 439 886 q 421 876 429 876 l 388 876 z "},"ő":{"ha":783,"x_min":90,"x_max":693,"o":"m 392 -18 q 240 22 310 -18 q 131 133 171 63 q 90 285 90 203 l 90 501 q 131 653 90 583 q 240 764 171 724 q 392 804 310 804 q 543 764 474 804 q 653 653 613 724 q 693 501 693 583 l 693 285 q 653 133 693 203 q 543 22 613 63 q 392 -18 474 -18 m 392 85 q 489 110 444 85 q 559 181 533 136 q 585 278 585 225 l 585 508 q 559 606 585 561 q 489 676 533 650 q 392 701 444 701 q 294 676 339 701 q 224 606 250 650 q 199 508 199 561 l 199 278 q 224 181 199 225 q 294 110 250 136 q 392 85 339 85 m 224 876 q 208 884 213 876 q 208 903 204 892 l 260 1028 q 299 1054 271 1054 l 392 1054 q 406 1049 400 1054 q 411 1036 411 1044 q 406 1022 411 1028 l 293 893 q 257 876 279 876 l 224 876 m 453 876 q 438 884 442 876 q 438 903 433 892 l 489 1028 q 528 1054 500 1054 l 621 1054 q 635 1049 629 1054 q 640 1036 640 1044 q 635 1022 640 1028 l 522 893 q 486 876 508 876 l 453 876 z "},"ō":{"ha":783,"x_min":90,"x_max":693,"o":"m 392 -18 q 240 22 310 -18 q 131 133 171 63 q 90 285 90 203 l 90 501 q 131 653 90 583 q 240 764 171 724 q 392 804 310 804 q 543 764 474 804 q 653 653 613 724 q 693 501 693 583 l 693 285 q 653 133 693 203 q 543 22 613 63 q 392 -18 474 -18 m 392 85 q 489 110 444 85 q 559 181 533 136 q 585 278 585 225 l 585 508 q 559 606 585 561 q 489 676 533 650 q 392 701 444 701 q 294 676 339 701 q 224 606 250 650 q 199 508 199 561 l 199 278 q 224 181 199 225 q 294 110 250 136 q 392 85 339 85 m 207 921 q 193 926 199 921 q 188 939 188 931 l 188 990 q 193 1003 188 999 q 207 1008 199 1008 l 568 1008 q 582 1003 576 1008 q 588 990 588 999 l 588 939 q 582 926 588 931 q 568 921 576 921 l 207 921 z "},"ø":{"ha":783,"x_min":90,"x_max":693,"o":"m 581 738 q 663 634 632 696 q 693 501 693 572 l 693 285 q 653 133 693 203 q 543 22 613 63 q 392 -18 474 -18 q 281 3 333 -18 l 215 -156 q 190 -172 208 -172 l 128 -172 q 119 -168 122 -172 q 118 -157 115 -164 l 203 49 q 120 152 150 90 q 90 285 90 214 l 90 501 q 131 653 90 583 q 240 764 171 724 q 392 804 310 804 q 503 783 450 804 l 568 942 q 593 958 574 958 l 654 958 q 663 954 660 958 q 664 943 667 950 l 581 738 m 199 278 q 244 153 199 206 l 464 688 q 392 701 426 701 q 294 676 339 701 q 224 606 250 650 q 199 508 199 561 l 199 278 m 585 508 q 538 635 585 581 l 319 99 q 392 85 357 85 q 489 110 444 85 q 559 181 533 136 q 585 278 585 225 l 585 508 z "},"õ":{"ha":783,"x_min":90,"x_max":693,"o":"m 392 -18 q 240 22 310 -18 q 131 133 171 63 q 90 285 90 203 l 90 501 q 131 653 90 583 q 240 764 171 724 q 392 804 310 804 q 543 764 474 804 q 653 653 613 724 q 693 501 693 583 l 693 285 q 653 133 693 203 q 543 22 613 63 q 392 -18 474 -18 m 392 85 q 489 110 444 85 q 559 181 533 136 q 585 278 585 225 l 585 508 q 559 606 585 561 q 489 676 533 650 q 392 701 444 701 q 294 676 339 701 q 224 606 250 650 q 199 508 199 561 l 199 278 q 224 181 199 225 q 294 110 250 136 q 392 85 339 85 m 481 893 q 433 900 457 893 q 375 919 408 907 q 303 939 319 939 q 274 933 285 939 q 256 915 264 928 q 248 908 251 908 q 236 908 244 907 l 197 921 q 186 939 185 925 q 234 1009 197 982 q 318 1036 271 1036 q 365 1029 342 1036 q 425 1010 389 1022 q 497 989 476 989 q 543 1013 528 989 q 553 1021 549 1019 q 565 1019 557 1022 l 603 1008 q 614 990 618 1003 q 567 920 604 947 q 481 893 529 893 z "},"œ":{"ha":1268,"x_min":90,"x_max":1188,"o":"m 392 -18 q 240 22 310 -18 q 131 133 171 63 q 90 285 90 203 l 90 501 q 131 653 90 583 q 240 764 171 724 q 392 804 310 804 q 532 769 467 804 q 639 675 597 735 q 746 769 681 735 q 886 804 811 804 q 1038 764 968 804 q 1147 653 1107 724 q 1188 501 1188 583 l 1188 407 q 1173 372 1188 386 q 1138 357 1158 357 l 693 357 l 693 296 q 719 199 693 243 q 789 128 744 154 q 886 103 833 103 l 1088 103 q 1101 97 1096 103 q 1107 83 1107 92 l 1107 19 q 1101 6 1107 11 q 1088 0 1096 0 l 886 0 q 751 33 814 0 q 646 121 688 65 q 538 19 604 57 q 392 -18 471 -18 m 392 85 q 489 110 444 85 q 559 181 533 136 q 585 278 585 225 l 585 508 q 559 606 585 561 q 489 676 533 650 q 392 701 444 701 q 294 676 339 701 q 224 606 250 650 q 199 508 199 561 l 199 278 q 224 181 199 225 q 294 110 250 136 q 392 85 339 85 m 1079 457 l 1079 508 q 1053 606 1079 561 q 983 676 1028 650 q 886 701 939 701 q 789 676 833 701 q 719 606 744 650 q 693 508 693 561 l 693 457 l 1079 457 z "},"p":{"ha":819,"x_min":125,"x_max":729,"o":"m 144 -268 q 131 -262 136 -268 q 125 -249 125 -257 l 125 767 q 131 781 125 775 q 144 786 136 786 l 208 786 q 222 781 217 786 q 228 767 228 775 l 228 706 q 322 778 267 753 q 439 804 376 804 q 585 765 518 804 q 690 660 651 726 q 729 514 729 593 l 729 272 q 690 126 729 193 q 584 21 651 60 q 438 -18 517 -18 q 327 3 381 -18 q 233 61 274 24 l 233 -249 q 228 -262 233 -257 q 214 -268 222 -268 l 144 -268 m 428 85 q 525 110 481 85 q 595 181 569 136 q 621 278 621 225 l 621 508 q 595 606 621 561 q 525 676 569 650 q 428 701 481 701 q 330 676 375 701 q 259 606 285 650 q 233 508 233 561 l 233 278 q 259 181 233 225 q 330 110 285 136 q 428 85 375 85 z "},"þ":{"ha":819,"x_min":125,"x_max":729,"o":"m 144 -268 q 131 -262 136 -268 q 125 -249 125 -257 l 125 1035 q 131 1049 125 1043 q 144 1054 136 1054 l 208 1054 q 222 1049 217 1054 q 228 1035 228 1043 l 228 713 q 323 780 268 756 q 439 804 378 804 q 585 765 518 804 q 690 660 651 726 q 729 514 729 593 l 729 272 q 690 126 729 193 q 585 21 651 60 q 439 -18 518 -18 q 326 5 379 -18 q 233 68 274 28 l 233 -249 q 228 -262 233 -257 q 214 -268 222 -268 l 144 -268 m 428 85 q 525 110 481 85 q 595 181 569 136 q 621 278 621 225 l 621 508 q 595 606 621 561 q 525 676 569 650 q 428 701 481 701 q 330 676 375 701 q 259 606 285 650 q 233 508 233 561 l 233 278 q 259 181 233 225 q 330 110 285 136 q 428 85 375 85 z "},"q":{"ha":819,"x_min":90,"x_max":694,"o":"m 606 -268 q 592 -262 597 -268 q 586 -249 586 -257 l 586 79 q 494 8 547 33 q 381 -18 440 -18 q 235 21 301 -18 q 129 126 168 60 q 90 272 90 193 l 90 514 q 129 660 90 593 q 235 765 168 726 q 381 804 301 804 q 497 780 442 804 q 592 713 551 756 l 592 767 q 597 781 592 775 q 611 786 603 786 l 675 786 q 689 781 683 786 q 694 767 694 775 l 694 -249 q 689 -262 694 -257 q 675 -268 683 -268 l 606 -268 m 392 85 q 490 110 444 85 q 560 181 535 136 q 586 278 586 225 l 586 508 q 560 606 586 561 q 490 676 535 650 q 392 701 444 701 q 294 676 339 701 q 224 606 250 650 q 199 508 199 561 l 199 278 q 224 181 199 225 q 294 110 250 136 q 392 85 339 85 z "},"r":{"ha":643,"x_min":69,"x_max":601,"o":"m 89 0 q 75 6 81 0 q 69 19 69 11 l 69 83 q 75 97 69 92 q 89 103 81 103 l 204 103 l 204 688 l 89 688 q 75 693 81 688 q 69 707 69 699 l 69 767 q 75 781 69 775 q 89 786 81 786 l 263 786 q 298 772 283 786 q 313 736 313 757 l 313 667 l 393 729 q 474 781 443 768 q 540 794 506 794 l 582 794 q 597 789 592 794 q 601 775 601 783 l 601 707 q 596 693 601 699 q 582 688 590 688 l 551 688 q 486 673 517 688 q 394 610 456 658 l 313 544 l 313 103 l 474 103 q 488 97 482 103 q 493 83 493 92 l 493 19 q 488 6 493 11 q 474 0 482 0 l 89 0 z "},"ŕ":{"ha":643,"x_min":69,"x_max":601,"o":"m 89 0 q 75 6 81 0 q 69 19 69 11 l 69 83 q 75 97 69 92 q 89 103 81 103 l 204 103 l 204 688 l 89 688 q 75 693 81 688 q 69 707 69 699 l 69 767 q 75 781 69 775 q 89 786 81 786 l 263 786 q 298 772 283 786 q 313 736 313 757 l 313 667 l 393 729 q 474 781 443 768 q 540 794 506 794 l 582 794 q 597 789 592 794 q 601 775 601 783 l 601 707 q 596 693 601 699 q 582 688 590 688 l 551 688 q 486 673 517 688 q 394 610 456 658 l 313 544 l 313 103 l 474 103 q 488 97 482 103 q 493 83 493 92 l 493 19 q 488 6 493 11 q 474 0 482 0 l 89 0 m 239 876 q 224 884 228 876 q 224 903 219 892 l 275 1028 q 314 1054 286 1054 l 407 1054 q 421 1049 415 1054 q 426 1036 426 1044 q 421 1022 426 1028 l 308 893 q 272 876 294 876 l 239 876 z "},"ř":{"ha":643,"x_min":69,"x_max":601,"o":"m 89 0 q 75 6 81 0 q 69 19 69 11 l 69 83 q 75 97 69 92 q 89 103 81 103 l 204 103 l 204 688 l 89 688 q 75 693 81 688 q 69 707 69 699 l 69 767 q 75 781 69 775 q 89 786 81 786 l 263 786 q 298 772 283 786 q 313 736 313 757 l 313 667 l 393 729 q 474 781 443 768 q 540 794 506 794 l 582 794 q 597 789 592 794 q 601 775 601 783 l 601 707 q 596 693 601 699 q 582 688 590 688 l 551 688 q 486 673 517 688 q 394 610 456 658 l 313 544 l 313 103 l 474 103 q 488 97 482 103 q 493 83 493 92 l 493 19 q 488 6 493 11 q 474 0 482 0 l 89 0 m 219 876 q 194 889 203 876 l 82 1028 q 78 1038 78 1032 q 83 1049 78 1044 q 96 1054 88 1054 l 142 1054 q 176 1040 158 1054 l 264 972 l 351 1040 q 385 1054 369 1054 l 432 1054 q 448 1045 443 1054 q 446 1028 453 1036 l 333 889 q 308 876 325 876 l 219 876 z "},"ŗ":{"ha":643,"x_min":69,"x_max":601,"o":"m 89 0 q 75 6 81 0 q 69 19 69 11 l 69 83 q 75 97 69 92 q 89 103 81 103 l 204 103 l 204 688 l 89 688 q 75 693 81 688 q 69 707 69 699 l 69 767 q 75 781 69 775 q 89 786 81 786 l 263 786 q 298 772 283 786 q 313 736 313 757 l 313 667 l 393 729 q 474 781 443 768 q 540 794 506 794 l 582 794 q 597 789 592 794 q 601 775 601 783 l 601 707 q 596 693 601 699 q 582 688 590 688 l 551 688 q 486 673 517 688 q 394 610 456 658 l 313 544 l 313 103 l 474 103 q 488 97 482 103 q 493 83 493 92 l 493 19 q 488 6 493 11 q 474 0 482 0 l 89 0 m 138 -268 q 122 -260 126 -268 q 122 -242 118 -253 l 174 -117 q 213 -90 185 -90 l 306 -90 q 319 -96 314 -90 q 325 -108 325 -101 q 319 -122 325 -117 l 207 -251 q 171 -268 193 -268 l 138 -268 z "},"s":{"ha":653,"x_min":74,"x_max":586,"o":"m 314 -14 q 189 3 250 -14 q 83 51 128 19 q 76 60 78 54 q 76 74 74 67 l 106 132 q 124 143 113 143 q 135 140 126 143 q 319 85 226 85 q 435 117 393 85 q 478 210 478 150 q 459 269 478 246 q 410 306 440 292 q 314 346 379 321 q 181 406 229 378 q 104 476 132 433 q 76 586 76 519 q 147 749 76 693 q 329 804 218 804 q 445 788 388 804 q 549 740 503 771 q 556 731 554 738 q 554 718 557 724 l 526 661 q 516 650 524 653 q 500 653 508 647 q 329 706 411 706 q 223 676 261 706 q 185 592 185 647 q 206 522 185 549 q 256 483 226 496 q 349 446 285 469 q 478 392 431 417 q 556 325 525 367 q 586 217 586 283 q 512 48 586 110 q 314 -14 438 -14 z "},"ś":{"ha":653,"x_min":74,"x_max":586,"o":"m 314 -14 q 189 3 250 -14 q 83 51 128 19 q 76 60 78 54 q 76 74 74 67 l 106 132 q 124 143 113 143 q 135 140 126 143 q 319 85 226 85 q 435 117 393 85 q 478 210 478 150 q 459 269 478 246 q 410 306 440 292 q 314 346 379 321 q 181 406 229 378 q 104 476 132 433 q 76 586 76 519 q 147 749 76 693 q 329 804 218 804 q 445 788 388 804 q 549 740 503 771 q 556 731 554 738 q 554 718 557 724 l 526 661 q 516 650 524 653 q 500 653 508 647 q 329 706 411 706 q 223 676 261 706 q 185 592 185 647 q 206 522 185 549 q 256 483 226 496 q 349 446 285 469 q 478 392 431 417 q 556 325 525 367 q 586 217 586 283 q 512 48 586 110 q 314 -14 438 -14 m 304 876 q 289 884 293 876 q 289 903 285 892 l 340 1028 q 379 1054 351 1054 l 472 1054 q 486 1049 481 1054 q 492 1036 492 1044 q 486 1022 492 1028 l 374 893 q 338 876 360 876 l 304 876 z "},"š":{"ha":653,"x_min":74,"x_max":586,"o":"m 314 -14 q 189 3 250 -14 q 83 51 128 19 q 76 60 78 54 q 76 74 74 67 l 106 132 q 124 143 113 143 q 135 140 126 143 q 319 85 226 85 q 435 117 393 85 q 478 210 478 150 q 459 269 478 246 q 410 306 440 292 q 314 346 379 321 q 181 406 229 378 q 104 476 132 433 q 76 586 76 519 q 147 749 76 693 q 329 804 218 804 q 445 788 388 804 q 549 740 503 771 q 556 731 554 738 q 554 718 557 724 l 526 661 q 516 650 524 653 q 500 653 508 647 q 329 706 411 706 q 223 676 261 706 q 185 592 185 647 q 206 522 185 549 q 256 483 226 496 q 349 446 285 469 q 478 392 431 417 q 556 325 525 367 q 586 217 586 283 q 512 48 586 110 q 314 -14 438 -14 m 285 876 q 260 889 268 876 l 147 1028 q 143 1038 143 1032 q 148 1049 143 1044 q 161 1054 153 1054 l 207 1054 q 242 1040 224 1054 l 329 972 l 417 1040 q 450 1054 435 1054 l 497 1054 q 513 1045 508 1054 q 511 1028 518 1036 l 399 889 q 374 876 390 876 l 285 876 z "},"ş":{"ha":653,"x_min":74,"x_max":586,"o":"m 314 -14 q 189 3 250 -14 q 83 51 128 19 q 76 60 78 54 q 76 74 74 67 l 106 132 q 124 143 113 143 q 135 140 126 143 q 319 85 226 85 q 435 117 393 85 q 478 210 478 150 q 459 269 478 246 q 410 306 440 292 q 314 346 379 321 q 181 406 229 378 q 104 476 132 433 q 76 586 76 519 q 147 749 76 693 q 329 804 218 804 q 445 788 388 804 q 549 740 503 771 q 556 731 554 738 q 554 718 557 724 l 526 661 q 516 650 524 653 q 500 653 508 647 q 329 706 411 706 q 223 676 261 706 q 185 592 185 647 q 206 522 185 549 q 256 483 226 496 q 349 446 285 469 q 478 392 431 417 q 556 325 525 367 q 586 217 586 283 q 512 48 586 110 q 314 -14 438 -14 m 254 -290 q 232 -276 239 -290 l 213 -228 q 211 -221 211 -225 q 224 -206 211 -211 q 269 -136 269 -187 l 269 -110 q 274 -96 269 -101 q 288 -90 279 -90 l 360 -90 q 376 -97 369 -90 q 383 -115 383 -104 l 383 -131 q 344 -237 383 -197 q 260 -290 306 -276 l 254 -290 z "},"ș":{"ha":653,"x_min":74,"x_max":586,"o":"m 314 -14 q 189 3 250 -14 q 83 51 128 19 q 76 60 78 54 q 76 74 74 67 l 106 132 q 124 143 113 143 q 135 140 126 143 q 319 85 226 85 q 435 117 393 85 q 478 210 478 150 q 459 269 478 246 q 410 306 440 292 q 314 346 379 321 q 181 406 229 378 q 104 476 132 433 q 76 586 76 519 q 147 749 76 693 q 329 804 218 804 q 445 788 388 804 q 549 740 503 771 q 556 731 554 738 q 554 718 557 724 l 526 661 q 516 650 524 653 q 500 653 508 647 q 329 706 411 706 q 223 676 261 706 q 185 592 185 647 q 206 522 185 549 q 256 483 226 496 q 349 446 285 469 q 478 392 431 417 q 556 325 525 367 q 586 217 586 283 q 512 48 586 110 q 314 -14 438 -14 m 201 -268 q 186 -260 190 -268 q 186 -242 182 -253 l 238 -117 q 276 -90 249 -90 l 369 -90 q 383 -96 378 -90 q 389 -108 389 -101 q 383 -122 389 -117 l 271 -251 q 235 -268 257 -268 l 201 -268 z "},"ß":{"ha":815,"x_min":125,"x_max":753,"o":"m 144 -268 q 131 -262 136 -268 q 125 -249 125 -257 l 125 750 q 161 916 125 843 q 264 1030 197 989 q 419 1071 331 1071 q 555 1042 494 1071 q 650 961 615 1013 q 685 844 685 910 q 647 719 685 769 q 540 615 608 669 q 488 569 504 588 q 471 533 471 551 q 492 498 471 514 q 557 458 513 482 q 655 400 615 428 q 724 325 694 372 q 753 210 753 278 q 722 91 753 142 q 638 13 692 40 q 521 -14 585 -14 q 434 -4 481 -14 q 360 19 388 6 q 345 30 349 25 q 342 44 342 35 l 343 106 q 349 119 343 115 q 364 121 356 124 q 515 85 453 85 q 608 117 572 85 q 644 204 644 149 q 625 272 644 243 q 578 319 606 300 q 501 363 550 338 q 397 431 432 399 q 361 518 361 464 q 388 600 361 567 q 469 678 414 633 q 550 755 524 722 q 576 835 576 788 q 534 932 576 893 q 418 971 492 971 q 281 911 329 971 q 233 743 233 851 l 233 -249 q 228 -262 233 -257 q 214 -268 222 -268 l 144 -268 z "},"t":{"ha":615,"x_min":56,"x_max":539,"o":"m 381 0 q 224 60 281 0 q 167 213 167 121 l 167 685 l 75 685 q 61 690 67 685 q 56 704 56 696 l 56 767 q 61 781 56 775 q 75 786 67 786 l 167 786 l 167 932 q 172 946 167 940 q 186 951 178 951 l 256 951 q 269 946 264 951 q 275 932 275 940 l 275 786 l 519 786 q 533 781 528 786 q 539 767 539 775 l 539 703 q 533 689 539 694 q 519 683 528 683 l 275 683 l 275 225 q 308 138 275 171 q 393 104 340 106 l 519 103 q 533 97 528 103 q 539 83 539 92 l 539 19 q 533 6 539 11 q 519 0 528 0 l 381 0 z "},"ŧ":{"ha":629,"x_min":63,"x_max":546,"o":"m 282 683 l 282 511 l 526 511 q 540 506 535 511 q 546 492 546 500 l 546 447 q 540 433 546 439 q 526 428 535 428 l 282 428 l 282 225 q 315 138 282 171 q 400 104 347 106 l 526 103 q 540 97 535 103 q 546 83 546 92 l 546 19 q 540 6 546 11 q 526 0 535 0 l 388 0 q 231 60 288 0 q 174 213 174 121 l 174 428 l 82 428 q 68 433 74 428 q 63 447 63 439 l 63 492 q 68 506 63 500 q 82 511 74 511 l 174 511 l 174 685 l 82 685 q 68 690 74 685 q 63 704 63 696 l 63 767 q 68 781 63 775 q 82 786 74 786 l 174 786 l 174 932 q 179 946 174 940 q 193 951 185 951 l 263 951 q 276 946 271 951 q 282 932 282 940 l 282 786 l 526 786 q 540 781 535 786 q 546 767 546 775 l 546 703 q 540 689 546 694 q 526 683 535 683 l 282 683 z "},"ť":{"ha":622,"x_min":56,"x_max":715,"o":"m 528 876 q 513 884 517 876 q 513 903 508 892 l 564 1028 q 603 1054 575 1054 l 696 1054 q 710 1049 706 1054 q 715 1036 715 1044 q 710 1022 715 1028 l 597 893 q 561 876 583 876 l 528 876 m 381 0 q 224 60 281 0 q 167 213 167 121 l 167 685 l 75 685 q 61 690 67 685 q 56 704 56 696 l 56 767 q 61 781 56 775 q 75 786 67 786 l 167 786 l 167 932 q 172 946 167 940 q 186 951 178 951 l 256 951 q 269 946 264 951 q 275 932 275 940 l 275 786 l 506 786 q 519 781 514 786 q 525 767 525 775 l 525 703 q 519 689 525 694 q 506 683 514 683 l 275 683 l 275 225 q 308 138 275 171 q 393 104 340 106 l 519 103 q 533 97 528 103 q 539 83 539 92 l 539 19 q 533 6 539 11 q 519 0 528 0 l 381 0 z "},"ţ":{"ha":615,"x_min":56,"x_max":539,"o":"m 381 0 q 224 60 281 0 q 167 213 167 121 l 167 685 l 75 685 q 61 690 67 685 q 56 704 56 696 l 56 767 q 61 781 56 775 q 75 786 67 786 l 167 786 l 167 932 q 172 946 167 940 q 186 951 178 951 l 256 951 q 269 946 264 951 q 275 932 275 940 l 275 786 l 519 786 q 533 781 528 786 q 539 767 539 775 l 539 703 q 533 689 539 694 q 519 683 528 683 l 275 683 l 275 225 q 308 138 275 171 q 393 104 340 106 l 519 103 q 533 97 528 103 q 539 83 539 92 l 539 19 q 533 6 539 11 q 519 0 528 0 l 381 0 m 308 -290 q 286 -276 293 -290 l 267 -228 q 265 -221 265 -225 q 278 -206 265 -211 q 324 -136 324 -187 l 324 -110 q 328 -96 324 -101 q 342 -90 333 -90 l 414 -90 q 431 -97 424 -90 q 438 -115 438 -104 l 438 -131 q 399 -237 438 -197 q 314 -290 360 -276 l 308 -290 z "},"ț":{"ha":615,"x_min":56,"x_max":539,"o":"m 381 0 q 224 60 281 0 q 167 213 167 121 l 167 685 l 75 685 q 61 690 67 685 q 56 704 56 696 l 56 767 q 61 781 56 775 q 75 786 67 786 l 167 786 l 167 932 q 172 946 167 940 q 186 951 178 951 l 256 951 q 269 946 264 951 q 275 932 275 940 l 275 786 l 519 786 q 533 781 528 786 q 539 767 539 775 l 539 703 q 533 689 539 694 q 519 683 528 683 l 275 683 l 275 225 q 308 138 275 171 q 393 104 340 106 l 519 103 q 533 97 528 103 q 539 83 539 92 l 539 19 q 533 6 539 11 q 519 0 528 0 l 381 0 m 256 -268 q 240 -260 244 -268 q 240 -242 236 -253 l 292 -117 q 331 -90 303 -90 l 424 -90 q 438 -96 432 -90 q 443 -108 443 -101 q 438 -122 443 -117 l 325 -251 q 289 -268 311 -268 l 256 -268 z "},"u":{"ha":825,"x_min":104,"x_max":700,"o":"m 368 -18 q 177 54 250 -18 q 104 244 104 126 l 104 767 q 110 781 104 775 q 124 786 115 786 l 193 786 q 207 781 201 786 q 213 767 213 775 l 213 265 q 260 131 213 178 q 385 83 307 83 q 535 144 478 83 q 592 313 592 206 l 592 767 q 597 781 592 775 q 611 786 603 786 l 681 786 q 694 781 689 786 q 700 767 700 775 l 700 19 q 694 6 700 11 q 681 0 689 0 l 611 0 q 597 6 603 0 q 592 19 592 11 l 592 97 q 498 11 556 40 q 368 -18 440 -18 z "},"ú":{"ha":825,"x_min":104,"x_max":700,"o":"m 368 -18 q 177 54 250 -18 q 104 244 104 126 l 104 767 q 110 781 104 775 q 124 786 115 786 l 193 786 q 207 781 201 786 q 213 767 213 775 l 213 265 q 260 131 213 178 q 385 83 307 83 q 535 144 478 83 q 592 313 592 206 l 592 767 q 597 781 592 775 q 611 786 603 786 l 681 786 q 694 781 689 786 q 700 767 700 775 l 700 19 q 694 6 700 11 q 681 0 689 0 l 611 0 q 597 6 603 0 q 592 19 592 11 l 592 97 q 498 11 556 40 q 368 -18 440 -18 m 381 876 q 365 884 369 876 q 365 903 361 892 l 417 1028 q 456 1054 428 1054 l 549 1054 q 563 1049 557 1054 q 568 1036 568 1044 q 563 1022 568 1028 l 450 893 q 414 876 436 876 l 381 876 z "},"û":{"ha":825,"x_min":104,"x_max":700,"o":"m 368 -18 q 177 54 250 -18 q 104 244 104 126 l 104 767 q 110 781 104 775 q 124 786 115 786 l 193 786 q 207 781 201 786 q 213 767 213 775 l 213 265 q 260 131 213 178 q 385 83 307 83 q 535 144 478 83 q 592 313 592 206 l 592 767 q 597 781 592 775 q 611 786 603 786 l 681 786 q 694 781 689 786 q 700 767 700 775 l 700 19 q 694 6 700 11 q 681 0 689 0 l 611 0 q 597 6 603 0 q 592 19 592 11 l 592 97 q 498 11 556 40 q 368 -18 440 -18 m 232 876 q 216 885 221 876 q 218 903 211 894 l 331 1042 q 356 1054 339 1054 l 444 1054 q 469 1042 461 1054 l 582 903 q 586 893 586 899 q 581 881 586 886 q 568 876 576 876 l 522 876 q 488 890 506 876 l 400 958 l 313 890 q 279 876 294 876 l 232 876 z "},"ü":{"ha":825,"x_min":104,"x_max":700,"o":"m 368 -18 q 177 54 250 -18 q 104 244 104 126 l 104 767 q 110 781 104 775 q 124 786 115 786 l 193 786 q 207 781 201 786 q 213 767 213 775 l 213 265 q 260 131 213 178 q 385 83 307 83 q 535 144 478 83 q 592 313 592 206 l 592 767 q 597 781 592 775 q 611 786 603 786 l 681 786 q 694 781 689 786 q 700 767 700 775 l 700 19 q 694 6 700 11 q 681 0 689 0 l 611 0 q 597 6 603 0 q 592 19 592 11 l 592 97 q 498 11 556 40 q 368 -18 440 -18 m 199 894 q 185 900 190 894 q 179 914 179 906 l 179 1035 q 185 1049 179 1043 q 199 1054 190 1054 l 265 1054 q 279 1049 274 1054 q 285 1035 285 1043 l 285 914 q 279 900 285 906 q 265 894 274 894 l 199 894 m 535 894 q 521 900 526 894 q 515 914 515 906 l 515 1035 q 521 1049 515 1043 q 535 1054 526 1054 l 601 1054 q 615 1049 610 1054 q 621 1035 621 1043 l 621 914 q 615 900 621 906 q 601 894 610 894 l 535 894 z "},"ù":{"ha":825,"x_min":104,"x_max":700,"o":"m 368 -18 q 177 54 250 -18 q 104 244 104 126 l 104 767 q 110 781 104 775 q 124 786 115 786 l 193 786 q 207 781 201 786 q 213 767 213 775 l 213 265 q 260 131 213 178 q 385 83 307 83 q 535 144 478 83 q 592 313 592 206 l 592 767 q 597 781 592 775 q 611 786 603 786 l 681 786 q 694 781 689 786 q 700 767 700 775 l 700 19 q 694 6 700 11 q 681 0 689 0 l 611 0 q 597 6 603 0 q 592 19 592 11 l 592 97 q 498 11 556 40 q 368 -18 440 -18 m 399 876 q 363 893 376 876 l 250 1022 q 244 1036 244 1028 q 249 1049 244 1044 q 264 1054 254 1054 l 357 1054 q 396 1028 385 1054 l 447 903 q 450 893 450 894 q 445 881 450 886 q 432 876 440 876 l 399 876 z "},"ű":{"ha":825,"x_min":104,"x_max":700,"o":"m 368 -18 q 177 54 250 -18 q 104 244 104 126 l 104 767 q 110 781 104 775 q 124 786 115 786 l 193 786 q 207 781 201 786 q 213 767 213 775 l 213 265 q 260 131 213 178 q 385 83 307 83 q 535 144 478 83 q 592 313 592 206 l 592 767 q 597 781 592 775 q 611 786 603 786 l 681 786 q 694 781 689 786 q 700 767 700 775 l 700 19 q 694 6 700 11 q 681 0 689 0 l 611 0 q 597 6 603 0 q 592 19 592 11 l 592 97 q 498 11 556 40 q 368 -18 440 -18 m 235 876 q 219 884 224 876 q 219 903 215 892 l 271 1028 q 310 1054 282 1054 l 403 1054 q 417 1049 411 1054 q 422 1036 422 1044 q 417 1022 422 1028 l 304 893 q 268 876 290 876 l 235 876 m 464 876 q 449 884 453 876 q 449 903 444 892 l 500 1028 q 539 1054 511 1054 l 632 1054 q 646 1049 640 1054 q 651 1036 651 1044 q 646 1022 651 1028 l 533 893 q 497 876 519 876 l 464 876 z "},"ū":{"ha":825,"x_min":104,"x_max":700,"o":"m 368 -18 q 177 54 250 -18 q 104 244 104 126 l 104 767 q 110 781 104 775 q 124 786 115 786 l 193 786 q 207 781 201 786 q 213 767 213 775 l 213 265 q 260 131 213 178 q 385 83 307 83 q 535 144 478 83 q 592 313 592 206 l 592 767 q 597 781 592 775 q 611 786 603 786 l 681 786 q 694 781 689 786 q 700 767 700 775 l 700 19 q 694 6 700 11 q 681 0 689 0 l 611 0 q 597 6 603 0 q 592 19 592 11 l 592 97 q 498 11 556 40 q 368 -18 440 -18 m 218 921 q 204 926 210 921 q 199 939 199 931 l 199 990 q 204 1003 199 999 q 218 1008 210 1008 l 579 1008 q 593 1003 588 1008 q 599 990 599 999 l 599 939 q 593 926 599 931 q 579 921 588 921 l 218 921 z "},"ų":{"ha":832,"x_min":104,"x_max":707,"o":"m 644 -274 q 538 -241 582 -274 q 494 -156 494 -208 q 592 4 494 -78 l 592 97 q 498 11 556 40 q 368 -18 440 -18 q 177 54 250 -18 q 104 244 104 126 l 104 767 q 110 781 104 775 q 124 786 115 786 l 193 786 q 207 781 201 786 q 213 767 213 775 l 213 265 q 260 131 213 178 q 385 83 307 83 q 535 144 478 83 q 592 313 592 206 l 592 767 q 597 781 592 775 q 611 786 603 786 l 681 786 q 694 781 689 786 q 700 767 700 775 l 700 39 q 682 0 700 18 q 623 -68 642 -42 q 604 -125 604 -94 q 663 -176 604 -176 l 686 -176 q 701 -183 694 -176 q 707 -197 707 -189 l 707 -253 q 701 -267 707 -261 q 686 -274 694 -274 l 644 -274 z "},"ů":{"ha":825,"x_min":104,"x_max":700,"o":"m 368 -18 q 177 54 250 -18 q 104 244 104 126 l 104 767 q 110 781 104 775 q 124 786 115 786 l 193 786 q 207 781 201 786 q 213 767 213 775 l 213 265 q 260 131 213 178 q 385 83 307 83 q 535 144 478 83 q 592 313 592 206 l 592 767 q 597 781 592 775 q 611 786 603 786 l 681 786 q 694 781 689 786 q 700 767 700 775 l 700 19 q 694 6 700 11 q 681 0 689 0 l 611 0 q 597 6 603 0 q 592 19 592 11 l 592 97 q 498 11 556 40 q 368 -18 440 -18 m 400 857 q 319 890 353 857 q 286 971 286 924 q 319 1051 286 1018 q 400 1085 353 1085 q 481 1051 447 1085 q 514 971 514 1018 q 481 890 514 924 q 400 857 447 857 m 400 931 q 428 942 417 931 q 440 971 440 954 q 428 999 440 988 q 400 1011 417 1011 q 372 999 383 1011 q 360 971 360 988 q 372 942 360 954 q 400 931 383 931 z "},"v":{"ha":733,"x_min":35,"x_max":694,"o":"m 324 0 q 308 5 315 0 q 297 18 300 10 l 36 756 q 35 765 35 758 q 41 780 35 774 q 57 786 47 786 l 121 786 q 137 781 129 786 q 147 768 144 776 l 367 135 l 582 768 q 592 781 585 776 q 608 786 600 786 l 669 786 q 688 777 682 786 q 690 756 694 768 l 429 18 q 419 5 426 10 q 403 0 411 0 l 324 0 z "},"w":{"ha":1203,"x_min":35,"x_max":1163,"o":"m 310 0 q 294 5 301 0 q 283 18 286 10 l 36 756 q 35 765 35 758 q 41 780 35 774 q 57 786 47 786 l 118 786 q 134 781 126 786 q 144 768 142 776 l 350 135 l 536 768 q 563 786 542 786 l 631 786 q 657 768 653 786 l 843 135 l 1049 768 q 1059 781 1051 776 q 1075 786 1067 786 l 1138 786 q 1156 777 1150 786 q 1158 756 1163 768 l 911 18 q 901 5 908 10 q 885 0 893 0 l 806 0 q 790 5 797 0 q 779 18 782 10 l 596 621 l 415 18 q 405 5 413 10 q 389 0 397 0 l 310 0 z "},"ẃ":{"ha":1203,"x_min":35,"x_max":1163,"o":"m 310 0 q 294 5 301 0 q 283 18 286 10 l 36 756 q 35 765 35 758 q 41 780 35 774 q 57 786 47 786 l 118 786 q 134 781 126 786 q 144 768 142 776 l 350 135 l 536 768 q 563 786 542 786 l 631 786 q 657 768 653 786 l 843 135 l 1049 768 q 1059 781 1051 776 q 1075 786 1067 786 l 1138 786 q 1156 777 1150 786 q 1158 756 1163 768 l 911 18 q 901 5 908 10 q 885 0 893 0 l 806 0 q 790 5 797 0 q 779 18 782 10 l 596 621 l 415 18 q 405 5 413 10 q 389 0 397 0 l 310 0 m 576 876 q 561 884 565 876 q 561 903 557 892 l 613 1028 q 651 1054 624 1054 l 744 1054 q 758 1049 753 1054 q 764 1036 764 1044 q 758 1022 764 1028 l 646 893 q 610 876 632 876 l 576 876 z "},"ŵ":{"ha":1203,"x_min":35,"x_max":1163,"o":"m 310 0 q 294 5 301 0 q 283 18 286 10 l 36 756 q 35 765 35 758 q 41 780 35 774 q 57 786 47 786 l 118 786 q 134 781 126 786 q 144 768 142 776 l 350 135 l 536 768 q 563 786 542 786 l 631 786 q 657 768 653 786 l 843 135 l 1049 768 q 1059 781 1051 776 q 1075 786 1067 786 l 1138 786 q 1156 777 1150 786 q 1158 756 1163 768 l 911 18 q 901 5 908 10 q 885 0 893 0 l 806 0 q 790 5 797 0 q 779 18 782 10 l 596 621 l 415 18 q 405 5 413 10 q 389 0 397 0 l 310 0 m 428 876 q 412 885 417 876 q 414 903 407 894 l 526 1042 q 551 1054 535 1054 l 640 1054 q 665 1042 657 1054 l 778 903 q 782 893 782 899 q 777 881 782 886 q 764 876 772 876 l 718 876 q 683 890 701 876 l 596 958 l 508 890 q 475 876 490 876 l 428 876 z "},"ẅ":{"ha":1203,"x_min":35,"x_max":1163,"o":"m 310 0 q 294 5 301 0 q 283 18 286 10 l 36 756 q 35 765 35 758 q 41 780 35 774 q 57 786 47 786 l 118 786 q 134 781 126 786 q 144 768 142 776 l 350 135 l 536 768 q 563 786 542 786 l 631 786 q 657 768 653 786 l 843 135 l 1049 768 q 1059 781 1051 776 q 1075 786 1067 786 l 1138 786 q 1156 777 1150 786 q 1158 756 1163 768 l 911 18 q 901 5 908 10 q 885 0 893 0 l 806 0 q 790 5 797 0 q 779 18 782 10 l 596 621 l 415 18 q 405 5 413 10 q 389 0 397 0 l 310 0 m 394 894 q 381 900 386 894 q 375 914 375 906 l 375 1035 q 381 1049 375 1043 q 394 1054 386 1054 l 461 1054 q 475 1049 469 1054 q 481 1035 481 1043 l 481 914 q 475 900 481 906 q 461 894 469 894 l 394 894 m 731 894 q 717 900 722 894 q 711 914 711 906 l 711 1035 q 717 1049 711 1043 q 731 1054 722 1054 l 797 1054 q 811 1049 806 1054 q 817 1035 817 1043 l 817 914 q 811 900 817 906 q 797 894 806 894 l 731 894 z "},"ẁ":{"ha":1203,"x_min":35,"x_max":1163,"o":"m 310 0 q 294 5 301 0 q 283 18 286 10 l 36 756 q 35 765 35 758 q 41 780 35 774 q 57 786 47 786 l 118 786 q 134 781 126 786 q 144 768 142 776 l 350 135 l 536 768 q 563 786 542 786 l 631 786 q 657 768 653 786 l 843 135 l 1049 768 q 1059 781 1051 776 q 1075 786 1067 786 l 1138 786 q 1156 777 1150 786 q 1158 756 1163 768 l 911 18 q 901 5 908 10 q 885 0 893 0 l 806 0 q 790 5 797 0 q 779 18 782 10 l 596 621 l 415 18 q 405 5 413 10 q 389 0 397 0 l 310 0 m 594 876 q 558 893 572 876 l 446 1022 q 440 1036 440 1028 q 445 1049 440 1044 q 460 1054 450 1054 l 553 1054 q 592 1028 581 1054 l 643 903 q 646 893 646 894 q 641 881 646 886 q 628 876 636 876 l 594 876 z "},"x":{"ha":733,"x_min":56,"x_max":678,"o":"m 81 0 q 63 7 69 0 q 56 24 56 14 q 60 39 56 31 l 304 414 l 88 747 q 83 763 83 756 q 90 779 83 772 q 108 786 97 786 l 175 786 q 196 775 189 786 l 367 511 l 538 775 q 558 786 544 786 l 625 786 q 643 779 636 786 q 650 763 650 772 q 646 747 650 756 l 429 414 l 674 39 q 678 24 678 31 q 671 7 678 14 q 653 0 664 0 l 586 0 q 565 11 572 0 l 367 317 l 168 11 q 147 0 161 0 l 81 0 z "},"y":{"ha":740,"x_min":35,"x_max":694,"o":"m 254 -268 q 235 -260 242 -268 q 232 -239 228 -251 l 313 -8 l 36 756 q 35 765 35 758 q 41 780 35 774 q 57 786 47 786 l 121 786 q 137 781 129 786 q 147 768 144 776 l 365 146 l 582 768 q 592 781 585 776 q 608 786 600 786 l 669 786 q 688 777 682 786 q 690 756 694 768 l 335 -250 q 324 -263 332 -258 q 308 -268 317 -268 l 254 -268 z "},"ý":{"ha":740,"x_min":35,"x_max":694,"o":"m 254 -268 q 235 -260 242 -268 q 232 -239 228 -251 l 313 -8 l 36 756 q 35 765 35 758 q 41 780 35 774 q 57 786 47 786 l 121 786 q 137 781 129 786 q 147 768 144 776 l 365 146 l 582 768 q 592 781 585 776 q 608 786 600 786 l 669 786 q 688 777 682 786 q 690 756 694 768 l 335 -250 q 324 -263 332 -258 q 308 -268 317 -268 l 254 -268 m 351 876 q 336 884 340 876 q 336 903 332 892 l 388 1028 q 426 1054 399 1054 l 519 1054 q 533 1049 528 1054 q 539 1036 539 1044 q 533 1022 539 1028 l 421 893 q 385 876 407 876 l 351 876 z "},"ŷ":{"ha":740,"x_min":35,"x_max":694,"o":"m 254 -268 q 235 -260 242 -268 q 232 -239 228 -251 l 313 -8 l 36 756 q 35 765 35 758 q 41 780 35 774 q 57 786 47 786 l 121 786 q 137 781 129 786 q 147 768 144 776 l 365 146 l 582 768 q 592 781 585 776 q 608 786 600 786 l 669 786 q 688 777 682 786 q 690 756 694 768 l 335 -250 q 324 -263 332 -258 q 308 -268 317 -268 l 254 -268 m 203 876 q 187 885 192 876 q 189 903 182 894 l 301 1042 q 326 1054 310 1054 l 415 1054 q 440 1042 432 1054 l 553 903 q 557 893 557 899 q 552 881 557 886 q 539 876 547 876 l 493 876 q 458 890 476 876 l 371 958 l 283 890 q 250 876 265 876 l 203 876 z "},"ÿ":{"ha":740,"x_min":35,"x_max":694,"o":"m 254 -268 q 235 -260 242 -268 q 232 -239 228 -251 l 313 -8 l 36 756 q 35 765 35 758 q 41 780 35 774 q 57 786 47 786 l 121 786 q 137 781 129 786 q 147 768 144 776 l 365 146 l 582 768 q 592 781 585 776 q 608 786 600 786 l 669 786 q 688 777 682 786 q 690 756 694 768 l 335 -250 q 324 -263 332 -258 q 308 -268 317 -268 l 254 -268 m 169 894 q 156 900 161 894 q 150 914 150 906 l 150 1035 q 156 1049 150 1043 q 169 1054 161 1054 l 236 1054 q 250 1049 244 1054 q 256 1035 256 1043 l 256 914 q 250 900 256 906 q 236 894 244 894 l 169 894 m 506 894 q 492 900 497 894 q 486 914 486 906 l 486 1035 q 492 1049 486 1043 q 506 1054 497 1054 l 572 1054 q 586 1049 581 1054 q 592 1035 592 1043 l 592 914 q 586 900 592 906 q 572 894 581 894 l 506 894 z "},"ỳ":{"ha":740,"x_min":35,"x_max":694,"o":"m 254 -268 q 235 -260 242 -268 q 232 -239 228 -251 l 313 -8 l 36 756 q 35 765 35 758 q 41 780 35 774 q 57 786 47 786 l 121 786 q 137 781 129 786 q 147 768 144 776 l 365 146 l 582 768 q 592 781 585 776 q 608 786 600 786 l 669 786 q 688 777 682 786 q 690 756 694 768 l 335 -250 q 324 -263 332 -258 q 308 -268 317 -268 l 254 -268 m 369 876 q 333 893 347 876 l 221 1022 q 215 1036 215 1028 q 220 1049 215 1044 q 235 1054 225 1054 l 328 1054 q 367 1028 356 1054 l 418 903 q 421 893 421 894 q 416 881 421 886 q 403 876 411 876 l 369 876 z "},"z":{"ha":661,"x_min":63,"x_max":599,"o":"m 107 0 q 75 15 88 0 q 63 50 63 31 q 68 72 63 63 l 449 683 l 96 683 q 82 689 88 683 q 76 703 76 694 l 76 767 q 82 781 76 775 q 96 786 88 786 l 546 786 q 578 771 565 786 q 592 738 592 756 q 585 714 592 725 l 204 103 l 579 103 q 593 97 588 103 q 599 83 599 92 l 599 19 q 593 6 599 11 q 579 0 588 0 l 107 0 z "},"ź":{"ha":661,"x_min":63,"x_max":599,"o":"m 107 0 q 75 15 88 0 q 63 50 63 31 q 68 72 63 63 l 449 683 l 96 683 q 82 689 88 683 q 76 703 76 694 l 76 767 q 82 781 76 775 q 96 786 88 786 l 546 786 q 578 771 565 786 q 592 738 592 756 q 585 714 592 725 l 204 103 l 579 103 q 593 97 588 103 q 599 83 599 92 l 599 19 q 593 6 599 11 q 579 0 588 0 l 107 0 m 303 876 q 288 884 292 876 q 288 903 283 892 l 339 1028 q 378 1054 350 1054 l 471 1054 q 485 1049 479 1054 q 490 1036 490 1044 q 485 1022 490 1028 l 372 893 q 336 876 358 876 l 303 876 z "},"ž":{"ha":661,"x_min":63,"x_max":599,"o":"m 107 0 q 75 15 88 0 q 63 50 63 31 q 68 72 63 63 l 449 683 l 96 683 q 82 689 88 683 q 76 703 76 694 l 76 767 q 82 781 76 775 q 96 786 88 786 l 546 786 q 578 771 565 786 q 592 738 592 756 q 585 714 592 725 l 204 103 l 579 103 q 593 97 588 103 q 599 83 599 92 l 599 19 q 593 6 599 11 q 579 0 588 0 l 107 0 m 283 876 q 258 889 267 876 l 146 1028 q 142 1038 142 1032 q 147 1049 142 1044 q 160 1054 151 1054 l 206 1054 q 240 1040 222 1054 l 328 972 l 415 1040 q 449 1054 433 1054 l 496 1054 q 512 1045 507 1054 q 510 1028 517 1036 l 397 889 q 372 876 389 876 l 283 876 z "},"ż":{"ha":661,"x_min":63,"x_max":599,"o":"m 107 0 q 75 15 88 0 q 63 50 63 31 q 68 72 63 63 l 449 683 l 96 683 q 82 689 88 683 q 76 703 76 694 l 76 767 q 82 781 76 775 q 96 786 88 786 l 546 786 q 578 771 565 786 q 592 738 592 756 q 585 714 592 725 l 204 103 l 579 103 q 593 97 588 103 q 599 83 599 92 l 599 19 q 593 6 599 11 q 579 0 588 0 l 107 0 m 289 894 q 275 900 281 894 q 269 914 269 906 l 269 1035 q 275 1049 269 1043 q 289 1054 281 1054 l 356 1054 q 369 1049 364 1054 q 375 1035 375 1043 l 375 914 q 369 900 375 906 q 356 894 364 894 l 289 894 z "},"ﬁ":{"ha":1058,"x_min":56,"x_max":1010,"o":"m 760 922 q 746 928 751 922 q 740 942 740 933 l 740 1063 q 746 1076 740 1071 q 760 1082 751 1082 l 826 1082 q 840 1076 835 1082 q 846 1063 846 1071 l 846 942 q 840 928 846 933 q 826 922 835 922 l 760 922 m 200 0 q 186 6 192 0 q 181 19 181 11 l 181 683 l 75 683 q 61 689 67 683 q 56 703 56 694 l 56 767 q 61 781 56 775 q 75 786 67 786 l 181 786 l 181 842 q 238 994 181 933 q 394 1054 294 1054 l 506 1054 q 519 1049 514 1054 q 525 1035 525 1043 l 525 975 q 519 961 525 967 q 506 956 514 956 l 393 956 q 317 926 346 956 q 289 847 289 896 l 289 786 l 797 786 q 833 772 818 786 q 847 736 847 757 l 847 103 l 990 103 q 1004 97 999 103 q 1010 83 1010 92 l 1010 19 q 1004 6 1010 11 q 990 0 999 0 l 789 0 q 753 15 768 0 q 739 50 739 29 l 739 683 l 289 683 l 289 19 q 283 6 289 11 q 269 0 278 0 l 200 0 z "},"ﬂ":{"ha":1076,"x_min":56,"x_max":1035,"o":"m 200 0 q 186 6 192 0 q 181 19 181 11 l 181 683 l 75 683 q 61 689 67 683 q 56 703 56 694 l 56 767 q 61 781 56 775 q 75 786 67 786 l 181 786 l 181 842 q 238 994 181 933 q 394 1054 294 1054 l 818 1054 q 853 1040 839 1054 q 868 1004 868 1025 l 868 103 l 1015 103 q 1029 97 1024 103 q 1035 83 1035 92 l 1035 19 q 1029 6 1035 11 q 1015 0 1024 0 l 810 0 q 774 15 789 0 q 760 50 760 29 l 760 953 l 393 953 q 317 923 346 953 q 289 844 289 893 l 289 786 l 478 786 q 492 781 486 786 q 497 767 497 775 l 497 703 q 492 689 497 694 q 478 683 486 683 l 289 683 l 289 19 q 283 6 289 11 q 269 0 278 0 l 200 0 z "},"ª":{"ha":538,"x_min":90,"x_max":426,"o":"m 228 526 q 128 561 167 526 q 90 651 90 596 q 126 738 90 703 q 222 781 161 772 l 322 794 q 353 808 344 797 q 361 839 361 818 l 361 846 q 334 901 361 879 q 264 924 307 924 q 168 874 204 924 q 151 864 160 864 q 139 868 147 864 l 118 882 q 113 908 104 893 q 176 967 136 946 q 267 988 217 988 q 382 949 338 988 q 426 846 426 910 l 426 557 q 421 542 426 549 q 407 536 415 536 l 386 536 q 371 542 376 536 q 365 557 365 549 l 365 592 q 305 543 340 560 q 228 526 269 526 m 235 588 q 301 607 271 588 q 347 656 331 626 q 364 714 364 686 l 364 740 q 279 729 317 736 l 228 722 q 156 654 156 710 q 177 606 156 624 q 235 588 199 588 z "},"º":{"ha":550,"x_min":104,"x_max":446,"o":"m 275 526 q 154 576 204 526 q 104 697 104 626 l 104 817 q 154 938 104 888 q 275 988 204 988 q 396 938 346 988 q 446 817 446 888 l 446 697 q 396 576 446 626 q 275 526 346 526 m 275 592 q 347 622 317 592 q 378 693 378 651 l 378 821 q 347 892 378 863 q 275 922 317 922 q 203 892 233 922 q 172 821 172 863 l 172 693 q 203 622 172 651 q 275 592 233 592 z "},"π":{"ha":1072,"x_min":90,"x_max":982,"o":"m 878 -7 q 755 37 799 -7 q 711 161 711 81 l 711 683 l 361 683 l 361 19 q 356 6 361 11 q 342 0 350 0 l 272 0 q 258 6 264 0 q 253 19 253 11 l 253 683 l 110 683 q 96 689 101 683 q 90 703 90 694 l 90 767 q 96 781 90 775 q 110 786 101 786 l 963 786 q 976 781 971 786 q 982 767 982 775 l 982 703 q 976 689 982 694 q 963 683 971 683 l 819 683 l 819 157 q 837 106 819 124 q 886 88 854 88 l 963 88 q 976 82 971 88 q 982 68 982 76 l 982 13 q 976 -1 982 4 q 963 -7 971 -7 l 878 -7 z "},"א":{"ha":828,"x_min":97,"x_max":744,"o":"m 646 -17 q 622 -4 631 -17 l 290 481 q 223 412 240 449 q 206 314 206 375 l 206 106 l 314 106 q 328 100 322 106 q 333 86 333 94 l 333 19 q 328 6 333 11 q 314 0 322 0 l 147 0 q 112 15 126 0 q 97 50 97 29 l 97 306 q 119 444 97 388 q 203 546 140 500 l 232 567 l 114 739 q 108 756 108 746 q 122 781 108 771 l 164 807 q 181 813 171 813 q 204 800 196 813 l 474 406 q 592 450 547 413 q 636 551 636 488 l 636 699 l 528 699 q 514 704 519 699 q 508 718 508 710 l 508 785 q 514 799 508 793 q 528 804 519 804 l 694 804 q 730 790 715 804 q 744 754 744 775 l 744 558 q 689 402 744 468 q 533 319 633 336 l 713 57 q 718 40 718 50 q 704 15 718 25 l 663 -11 q 646 -17 656 -17 z "},"ב":{"ha":729,"x_min":63,"x_max":694,"o":"m 82 0 q 68 6 74 0 q 63 19 63 11 l 63 86 q 68 100 63 94 q 82 106 74 106 l 468 106 l 468 699 l 110 699 q 96 704 101 699 q 90 718 90 710 l 90 785 q 96 799 90 793 q 110 804 101 804 l 526 804 q 562 790 547 804 q 576 754 576 775 l 576 106 l 675 106 q 689 100 683 106 q 694 86 694 94 l 694 19 q 689 6 694 11 q 675 0 683 0 l 82 0 z "},"ג":{"ha":546,"x_min":35,"x_max":428,"o":"m 54 -6 q 40 0 44 -6 q 35 14 35 6 l 35 83 q 40 97 35 92 q 54 103 46 103 l 76 103 q 120 113 99 103 q 193 158 142 124 l 228 181 l 319 240 l 319 699 l 125 699 q 111 704 117 699 q 106 718 106 710 l 106 785 q 111 799 106 793 q 125 804 117 804 l 378 804 q 413 790 399 804 q 428 754 428 775 l 428 19 q 422 6 428 11 q 408 0 417 0 l 342 0 q 328 6 333 0 q 322 19 322 11 l 322 124 l 319 124 l 231 63 q 142 9 174 24 q 74 -6 111 -6 l 54 -6 z "},"ד":{"ha":740,"x_min":63,"x_max":685,"o":"m 450 0 q 436 6 442 0 q 431 19 431 11 l 431 699 l 82 699 q 68 704 74 699 q 63 718 63 710 l 63 785 q 68 799 63 793 q 82 804 74 804 l 665 804 q 679 799 674 804 q 685 785 685 793 l 685 718 q 679 704 685 710 q 665 699 674 699 l 539 699 l 539 19 q 533 6 539 11 q 519 0 528 0 l 450 0 z "},"ה":{"ha":829,"x_min":118,"x_max":711,"o":"m 622 0 q 608 6 614 0 q 603 19 603 11 l 603 699 l 138 700 q 124 706 129 700 q 118 719 118 711 l 118 785 q 124 799 118 793 q 138 804 129 804 l 661 804 q 697 790 682 804 q 711 754 711 775 l 711 19 q 706 6 711 11 q 692 0 700 0 l 622 0 m 138 0 q 124 6 129 0 q 118 19 118 11 l 118 436 q 124 450 118 444 q 138 456 129 456 l 207 456 q 221 450 215 456 q 226 436 226 444 l 226 19 q 221 6 226 11 q 207 0 215 0 l 138 0 z "},"ו":{"ha":431,"x_min":69,"x_max":313,"o":"m 224 0 q 210 6 215 0 q 204 19 204 11 l 204 699 l 89 699 q 75 704 81 699 q 69 718 69 710 l 69 785 q 75 799 69 793 q 89 804 81 804 l 263 804 q 298 790 283 804 q 313 754 313 775 l 313 19 q 307 6 313 11 q 293 0 301 0 l 224 0 z "},"ז":{"ha":501,"x_min":63,"x_max":446,"o":"m 236 0 q 222 6 228 0 q 217 19 217 11 l 217 88 q 208 188 217 138 q 183 310 200 239 q 162 414 169 371 q 154 496 154 457 q 238 699 154 615 l 83 699 q 69 704 75 699 q 63 719 63 710 l 64 785 q 69 799 64 794 q 83 804 75 804 l 426 804 q 440 799 435 804 q 446 785 446 793 l 446 726 q 441 713 446 719 q 429 704 436 706 q 263 493 263 658 q 269 420 263 457 q 290 319 276 383 q 316 194 307 244 q 325 88 325 143 l 325 19 q 319 5 325 10 q 306 0 314 0 l 236 0 z "},"ח":{"ha":864,"x_min":61,"x_max":801,"o":"m 174 0 q 160 6 165 0 q 154 19 154 11 l 154 699 l 81 699 q 67 704 72 699 q 61 718 61 710 l 61 785 q 67 799 61 793 q 81 804 72 804 l 782 804 q 796 799 790 804 q 801 785 801 793 l 801 718 q 796 704 801 710 q 782 699 790 699 l 708 699 l 708 19 q 703 6 708 11 q 689 0 697 0 l 619 0 q 606 6 611 0 q 600 19 600 11 l 600 699 l 263 699 l 263 19 q 257 6 263 11 q 243 0 251 0 l 174 0 z "},"ט":{"ha":843,"x_min":118,"x_max":753,"o":"m 168 0 q 133 15 147 0 q 118 50 118 29 l 118 785 q 124 799 118 793 q 138 804 129 804 l 207 804 q 221 799 215 804 q 226 785 226 793 l 226 104 l 463 104 q 593 158 540 104 q 646 288 646 211 l 646 632 q 623 694 646 672 q 567 715 600 715 q 509 692 532 715 q 486 635 486 668 l 486 424 q 481 410 486 415 q 467 404 475 404 l 397 404 q 383 410 389 404 q 378 424 378 415 l 378 631 q 403 725 378 682 q 474 793 429 768 q 572 818 518 818 q 701 767 650 818 q 753 631 753 717 l 753 276 q 715 138 753 201 q 615 38 678 75 q 476 0 551 0 l 168 0 z "},"י":{"ha":396,"x_min":69,"x_max":313,"o":"m 224 349 q 210 354 215 349 q 204 368 204 360 l 204 699 l 89 699 q 75 704 81 699 q 69 718 69 710 l 69 785 q 75 799 69 793 q 89 804 81 804 l 263 804 q 298 790 283 804 q 313 754 313 775 l 313 368 q 307 354 313 360 q 293 349 301 349 l 224 349 z "},"ך":{"ha":725,"x_min":63,"x_max":663,"o":"m 488 -201 q 452 -187 467 -201 q 438 -151 438 -172 l 438 699 l 82 699 q 68 704 74 699 q 63 718 63 710 l 63 785 q 68 799 63 793 q 82 804 74 804 l 643 804 q 657 799 651 804 q 663 785 663 793 l 663 718 q 657 704 663 710 q 643 699 651 699 l 546 699 l 546 -97 l 640 -97 q 654 -103 649 -97 q 660 -117 660 -108 l 660 -182 q 654 -196 660 -190 q 640 -201 649 -201 l 488 -201 z "},"כ":{"ha":719,"x_min":83,"x_max":615,"o":"m 103 0 q 89 6 94 0 q 83 19 83 11 l 83 86 q 89 100 83 94 q 103 106 94 106 l 439 106 q 487 125 467 106 q 507 171 507 144 l 507 699 l 115 699 q 101 704 107 699 q 96 718 96 710 l 96 785 q 101 799 96 793 q 115 804 107 804 l 565 804 q 601 790 586 804 q 615 754 615 775 l 615 171 q 592 85 615 125 q 527 23 568 46 q 439 0 486 0 l 103 0 z "},"ל":{"ha":679,"x_min":63,"x_max":617,"o":"m 256 0 q 242 6 247 0 q 236 19 236 11 l 236 114 q 259 258 236 194 q 314 364 282 321 q 399 464 346 407 q 484 569 457 525 q 511 668 511 613 l 511 699 l 132 699 q 82 718 101 699 q 63 768 63 738 l 63 993 q 68 1007 63 1001 q 82 1013 74 1013 l 151 1013 q 165 1007 160 1013 q 171 993 171 1001 l 171 804 l 567 804 q 602 790 588 804 q 617 754 617 775 l 617 686 q 597 565 617 618 q 550 475 578 513 q 476 389 522 438 q 407 308 432 342 q 365 230 382 275 q 347 128 347 185 l 347 19 q 342 6 347 11 q 328 0 336 0 l 256 0 z "},"ם":{"ha":842,"x_min":63,"x_max":724,"o":"m 221 0 q 185 15 200 0 q 171 50 171 29 l 171 699 l 82 699 q 68 704 74 699 q 63 718 63 710 l 63 785 q 68 799 63 793 q 82 804 74 804 l 674 804 q 709 790 694 804 q 724 754 724 775 l 724 50 q 709 15 724 29 q 674 0 694 0 l 221 0 m 615 106 l 615 699 l 279 699 l 279 106 l 615 106 z "},"מ":{"ha":842,"x_min":69,"x_max":744,"o":"m 178 0 q 164 6 169 0 q 158 19 158 11 l 158 699 l 89 699 q 75 704 81 699 q 69 718 69 710 l 69 785 q 75 799 69 793 q 89 804 81 804 l 226 804 q 251 794 242 804 q 261 769 261 785 l 261 707 q 358 788 300 758 q 486 818 415 818 q 622 785 563 818 q 713 695 681 751 q 744 575 744 639 l 744 171 q 692 49 743 99 q 571 0 642 0 l 433 0 q 419 6 425 0 q 414 19 414 11 l 414 86 q 419 100 414 94 q 433 106 425 106 l 569 106 q 617 125 597 106 q 636 172 636 144 l 636 549 q 590 670 636 624 q 468 717 543 717 q 323 660 379 717 q 267 515 267 604 l 267 19 q 261 6 267 11 q 247 0 256 0 l 178 0 z "},"ן":{"ha":419,"x_min":63,"x_max":419,"o":"m 247 -201 q 212 -187 226 -201 q 197 -151 197 -172 l 197 699 l 82 699 q 68 704 74 699 q 63 718 63 710 l 63 785 q 68 799 63 793 q 82 804 74 804 l 256 804 q 291 790 276 804 q 306 754 306 775 l 306 -97 l 400 -97 q 414 -103 408 -97 q 419 -117 419 -108 l 419 -182 q 414 -196 419 -190 q 400 -201 408 -201 l 247 -201 z "},"נ":{"ha":475,"x_min":56,"x_max":371,"o":"m 75 0 q 61 6 67 0 q 56 19 56 11 l 56 86 q 61 100 56 94 q 75 106 67 106 l 190 106 q 242 126 221 106 q 263 178 263 147 l 263 699 l 117 699 q 103 704 108 699 q 97 718 97 710 l 97 785 q 103 799 97 793 q 117 804 108 804 l 321 804 q 356 790 342 804 q 371 754 371 775 l 371 178 q 347 90 371 131 q 281 24 322 49 q 193 0 239 0 l 75 0 z "},"ס":{"ha":840,"x_min":63,"x_max":743,"o":"m 456 -15 q 310 24 376 -15 q 206 128 244 63 q 167 274 167 194 l 167 699 l 82 699 q 68 704 74 699 q 63 718 63 710 l 63 785 q 68 799 63 793 q 82 804 74 804 l 693 804 q 728 790 714 804 q 743 754 743 775 l 743 274 q 704 128 743 194 q 599 24 665 63 q 456 -15 533 -15 m 456 88 q 545 112 504 88 q 610 178 586 136 q 635 268 635 219 l 635 699 l 275 699 l 275 268 q 299 178 275 219 q 365 112 324 136 q 456 88 407 88 z "},"ע":{"ha":822,"x_min":67,"x_max":718,"o":"m 86 0 q 72 6 78 0 q 67 19 67 11 l 67 86 q 72 100 67 94 q 86 106 78 106 l 213 106 l 213 699 l 126 699 q 113 704 118 699 q 107 718 107 710 l 107 785 q 113 799 107 793 q 126 804 118 804 l 271 804 q 306 790 292 804 q 321 754 321 775 l 321 106 l 432 106 q 560 154 508 106 q 611 279 611 203 l 611 699 l 538 699 q 524 704 529 699 q 518 718 518 710 l 518 785 q 524 799 518 793 q 538 804 529 804 l 668 804 q 703 790 689 804 q 718 754 718 775 l 718 276 q 679 135 718 199 q 576 36 640 72 q 442 0 513 0 l 86 0 z "},"ף":{"ha":825,"x_min":63,"x_max":825,"o":"m 653 -201 q 617 -187 632 -201 q 603 -151 603 -172 l 603 699 l 275 699 l 275 432 l 396 432 q 410 426 404 432 q 415 413 415 421 l 415 347 q 410 333 415 339 q 396 328 404 328 l 217 328 q 181 342 196 328 q 167 378 167 357 l 167 699 l 82 699 q 68 704 74 699 q 63 718 63 710 l 63 785 q 68 799 63 793 q 82 804 74 804 l 661 804 q 697 790 682 804 q 711 754 711 775 l 711 -97 l 806 -97 q 819 -103 814 -97 q 825 -117 825 -108 l 825 -182 q 819 -196 825 -190 q 806 -201 814 -201 l 653 -201 z "},"פ":{"ha":822,"x_min":63,"x_max":718,"o":"m 172 0 q 158 6 164 0 q 153 19 153 11 l 153 86 q 158 100 153 94 q 172 106 164 106 l 543 106 q 590 125 571 106 q 610 172 610 144 l 610 699 l 275 699 l 275 454 l 400 454 q 414 449 408 454 q 419 435 419 443 l 419 368 q 414 354 419 360 q 400 349 408 349 l 217 349 q 175 360 183 349 q 167 399 167 372 l 167 699 l 82 699 q 68 704 74 699 q 63 718 63 710 l 63 785 q 68 799 63 793 q 82 804 74 804 l 668 804 q 703 790 689 804 q 718 754 718 775 l 718 174 q 694 87 718 126 q 631 24 671 47 q 543 0 590 0 l 172 0 z "},"ץ":{"ha":790,"x_min":63,"x_max":728,"o":"m 247 -201 q 212 -187 226 -201 q 197 -151 197 -172 l 197 699 l 82 699 q 68 704 74 699 q 63 718 63 710 l 63 785 q 68 799 63 793 q 82 804 74 804 l 256 804 q 291 790 276 804 q 306 754 306 775 l 306 376 l 346 376 q 483 408 421 376 q 583 495 546 439 q 619 622 619 551 l 619 699 l 504 699 q 490 704 496 699 q 485 718 485 710 l 485 785 q 490 799 485 793 q 504 804 496 804 l 678 804 q 713 790 699 804 q 728 754 728 775 l 728 640 q 675 453 728 538 q 531 320 622 368 q 333 272 440 272 l 306 272 l 306 -97 l 400 -97 q 414 -103 408 -97 q 419 -117 419 -108 l 419 -182 q 414 -196 419 -190 q 400 -201 408 -201 l 247 -201 z "},"צ":{"ha":797,"x_min":72,"x_max":714,"o":"m 146 0 q 132 6 138 0 q 126 19 126 11 l 126 86 q 132 100 126 94 q 146 106 138 106 l 583 106 q 563 192 583 160 q 500 256 543 224 l 421 313 l 347 365 q 244 452 278 417 q 199 526 211 488 q 186 622 186 564 l 186 699 l 92 699 q 78 704 83 699 q 72 718 72 710 l 72 785 q 78 799 72 793 q 92 804 83 804 l 244 804 q 280 790 265 804 q 294 754 294 775 l 294 622 q 308 554 294 582 q 349 503 322 526 q 439 431 375 479 q 563 500 519 457 q 606 617 606 543 l 606 699 l 511 699 q 497 704 503 699 q 492 718 492 710 l 492 785 q 497 799 492 793 q 511 804 503 804 l 664 804 q 699 790 685 804 q 714 754 714 775 l 714 656 q 674 477 714 544 q 532 365 635 410 q 631 282 597 319 q 678 204 665 244 q 692 104 692 164 l 692 50 q 677 15 692 29 q 642 0 663 0 l 146 0 z "},"ק":{"ha":817,"x_min":111,"x_max":754,"o":"m 421 0 q 407 6 413 0 q 401 19 401 11 l 401 111 q 422 253 401 192 q 470 358 442 315 q 544 456 499 400 q 621 561 596 517 q 646 664 646 606 l 646 699 l 131 699 q 117 704 122 699 q 111 718 111 710 l 111 785 q 117 799 111 793 q 131 804 122 804 l 704 804 q 740 790 725 804 q 754 754 754 775 l 754 685 q 737 564 754 617 q 694 474 719 511 q 628 386 669 436 q 565 302 588 336 q 526 221 542 268 q 510 114 510 174 l 510 19 q 504 6 510 11 q 490 0 499 0 l 421 0 m 138 -201 q 124 -196 129 -201 q 118 -182 118 -190 l 118 469 q 124 483 118 478 q 138 489 129 489 l 206 489 q 219 483 214 489 q 225 469 225 478 l 225 -182 q 219 -196 225 -190 q 206 -201 214 -201 l 138 -201 z "},"ר":{"ha":728,"x_min":69,"x_max":610,"o":"m 521 0 q 507 6 513 0 q 501 19 501 11 l 501 699 l 89 699 q 75 704 81 699 q 69 718 69 710 l 69 785 q 75 799 69 793 q 89 804 81 804 l 560 804 q 595 790 581 804 q 610 754 610 775 l 610 19 q 604 6 610 11 q 590 0 599 0 l 521 0 z "},"ש":{"ha":969,"x_min":111,"x_max":858,"o":"m 285 0 q 162 51 213 0 q 111 174 111 101 l 111 754 q 126 790 111 775 q 161 804 140 804 l 286 804 q 300 799 294 804 q 306 785 306 793 l 306 721 q 300 707 306 713 q 286 701 294 701 l 213 701 l 213 172 q 232 125 213 144 q 279 106 251 106 l 433 106 l 433 785 q 439 799 433 793 q 453 804 444 804 l 515 804 q 529 799 524 804 q 535 785 535 793 l 535 106 l 689 106 q 737 125 717 106 q 757 172 757 144 l 757 701 l 683 701 q 669 707 675 701 q 664 721 664 713 l 664 785 q 669 799 664 793 q 683 804 675 804 l 808 804 q 844 790 829 804 q 858 754 858 775 l 858 174 q 807 51 858 101 q 683 0 756 0 l 285 0 z "},"ת":{"ha":892,"x_min":76,"x_max":774,"o":"m 96 0 q 82 6 88 0 q 76 19 76 11 l 76 86 q 82 100 76 94 q 96 106 88 106 l 208 106 l 208 699 l 96 699 q 82 704 88 699 q 76 718 76 710 l 76 785 q 82 799 76 793 q 96 804 88 804 l 724 804 q 759 790 744 804 q 774 754 774 775 l 774 19 q 768 6 774 11 q 754 0 763 0 l 685 0 q 671 6 676 0 q 665 19 665 11 l 665 699 l 317 699 l 317 50 q 302 15 317 29 q 267 0 288 0 l 96 0 z "},"שׁ":{"ha":969,"x_min":111,"x_max":858,"o":"m 285 0 q 162 51 213 0 q 111 174 111 101 l 111 754 q 126 790 111 775 q 161 804 140 804 l 286 804 q 300 799 294 804 q 306 785 306 793 l 306 721 q 300 707 306 713 q 286 701 294 701 l 213 701 l 213 172 q 232 125 213 144 q 279 106 251 106 l 433 106 l 433 785 q 439 799 433 793 q 453 804 444 804 l 515 804 q 529 799 524 804 q 535 785 535 793 l 535 106 l 689 106 q 737 125 717 106 q 757 172 757 144 l 757 701 l 683 701 q 669 707 675 701 q 664 721 664 713 l 664 785 q 669 799 664 793 q 683 804 675 804 l 808 804 q 844 790 829 804 q 858 754 858 775 l 858 174 q 807 51 858 101 q 683 0 756 0 l 285 0 m 764 892 q 723 909 740 892 q 706 950 706 926 q 723 991 706 974 q 764 1008 740 1008 q 805 991 788 1008 q 822 950 822 974 q 805 909 822 926 q 764 892 788 892 z "},"שׂ":{"ha":969,"x_min":111,"x_max":858,"o":"m 285 0 q 162 51 213 0 q 111 174 111 101 l 111 754 q 126 790 111 775 q 161 804 140 804 l 286 804 q 300 799 294 804 q 306 785 306 793 l 306 721 q 300 707 306 713 q 286 701 294 701 l 213 701 l 213 172 q 232 125 213 144 q 279 106 251 106 l 433 106 l 433 785 q 439 799 433 793 q 453 804 444 804 l 515 804 q 529 799 524 804 q 535 785 535 793 l 535 106 l 689 106 q 737 125 717 106 q 757 172 757 144 l 757 701 l 683 701 q 669 707 675 701 q 664 721 664 713 l 664 785 q 669 799 664 793 q 683 804 675 804 l 808 804 q 844 790 829 804 q 858 754 858 775 l 858 174 q 807 51 858 101 q 683 0 756 0 l 285 0 m 199 892 q 158 909 175 892 q 140 950 140 926 q 158 991 140 974 q 199 1008 175 1008 q 240 991 222 1008 q 257 950 257 974 q 240 909 257 926 q 199 892 222 892 z "},"שּׁ":{"ha":969,"x_min":111,"x_max":858,"o":"m 285 0 q 162 51 213 0 q 111 174 111 101 l 111 754 q 126 790 111 775 q 161 804 140 804 l 286 804 q 300 799 294 804 q 306 785 306 793 l 306 721 q 300 707 306 713 q 286 701 294 701 l 213 701 l 213 172 q 232 125 213 144 q 279 106 251 106 l 433 106 l 433 785 q 439 799 433 793 q 453 804 444 804 l 515 804 q 529 799 524 804 q 535 785 535 793 l 535 106 l 689 106 q 737 125 717 106 q 757 172 757 144 l 757 701 l 683 701 q 669 707 675 701 q 664 721 664 713 l 664 785 q 669 799 664 793 q 683 804 675 804 l 808 804 q 844 790 829 804 q 858 754 858 775 l 858 174 q 807 51 858 101 q 683 0 756 0 l 285 0 m 646 349 q 605 366 622 349 q 588 407 588 383 q 605 448 588 431 q 646 465 622 465 q 687 448 669 465 q 704 407 704 431 q 687 366 704 383 q 646 349 669 349 m 764 892 q 723 909 740 892 q 706 950 706 926 q 723 991 706 974 q 764 1008 740 1008 q 805 991 788 1008 q 822 950 822 974 q 805 909 822 926 q 764 892 788 892 z "},"שּׂ":{"ha":969,"x_min":111,"x_max":858,"o":"m 285 0 q 162 51 213 0 q 111 174 111 101 l 111 754 q 126 790 111 775 q 161 804 140 804 l 286 804 q 300 799 294 804 q 306 785 306 793 l 306 721 q 300 707 306 713 q 286 701 294 701 l 213 701 l 213 172 q 232 125 213 144 q 279 106 251 106 l 433 106 l 433 785 q 439 799 433 793 q 453 804 444 804 l 515 804 q 529 799 524 804 q 535 785 535 793 l 535 106 l 689 106 q 737 125 717 106 q 757 172 757 144 l 757 701 l 683 701 q 669 707 675 701 q 664 721 664 713 l 664 785 q 669 799 664 793 q 683 804 675 804 l 808 804 q 844 790 829 804 q 858 754 858 775 l 858 174 q 807 51 858 101 q 683 0 756 0 l 285 0 m 646 349 q 605 366 622 349 q 588 407 588 383 q 605 448 588 431 q 646 465 622 465 q 687 448 669 465 q 704 407 704 431 q 687 366 704 383 q 646 349 669 349 m 199 892 q 158 909 175 892 q 140 950 140 926 q 158 991 140 974 q 199 1008 175 1008 q 240 991 222 1008 q 257 950 257 974 q 240 909 257 926 q 199 892 222 892 z "},"אַ":{"ha":844,"x_min":99,"x_max":760,"o":"m 658 -17 q 635 -4 643 -17 l 296 481 q 228 412 246 449 q 210 314 210 375 l 210 106 l 321 106 q 335 100 329 106 q 340 86 340 94 l 340 19 q 335 6 340 11 q 321 0 329 0 l 150 0 q 114 15 129 0 q 99 50 99 29 l 99 306 q 121 443 99 386 q 207 546 143 500 l 236 567 l 117 739 q 111 756 111 746 q 125 781 111 771 l 167 807 q 185 813 174 813 q 208 800 200 813 l 483 406 q 603 450 558 413 q 649 551 649 488 l 649 699 l 539 699 q 524 704 529 699 q 518 718 518 710 l 518 785 q 524 799 518 793 q 539 804 529 804 l 708 804 q 744 790 729 804 q 760 754 760 775 l 760 558 q 703 402 760 468 q 544 319 646 336 l 726 57 q 732 40 732 50 q 718 15 732 25 l 676 -11 q 658 -17 667 -17 m 275 -199 q 260 -193 265 -199 q 254 -178 254 -187 l 254 -124 q 260 -110 254 -115 q 275 -104 265 -104 l 582 -104 q 597 -110 592 -104 q 603 -124 603 -115 l 603 -178 q 597 -193 603 -187 q 582 -199 592 -199 l 275 -199 z "},"אָ":{"ha":844,"x_min":99,"x_max":760,"o":"m 658 -17 q 635 -4 643 -17 l 296 481 q 228 412 246 449 q 210 314 210 375 l 210 106 l 321 106 q 335 100 329 106 q 340 86 340 94 l 340 19 q 335 6 340 11 q 321 0 329 0 l 150 0 q 114 15 129 0 q 99 50 99 29 l 99 306 q 121 443 99 386 q 207 546 143 500 l 236 567 l 117 739 q 111 756 111 746 q 125 781 111 771 l 167 807 q 185 813 174 813 q 208 800 200 813 l 483 406 q 603 450 558 413 q 649 551 649 488 l 649 699 l 539 699 q 524 704 529 699 q 518 718 518 710 l 518 785 q 524 799 518 793 q 539 804 529 804 l 708 804 q 744 790 729 804 q 760 754 760 775 l 760 558 q 703 402 760 468 q 544 319 646 336 l 726 57 q 732 40 732 50 q 718 15 732 25 l 676 -11 q 658 -17 667 -17 m 428 -371 q 392 -356 407 -371 q 376 -319 376 -340 l 378 -286 l 388 -199 l 275 -199 q 260 -193 265 -199 q 254 -178 254 -187 l 254 -124 q 260 -110 254 -115 q 275 -104 265 -104 l 582 -104 q 597 -110 592 -104 q 603 -124 603 -115 l 603 -178 q 597 -193 603 -187 q 582 -199 592 -199 l 467 -199 l 476 -286 l 479 -319 q 463 -356 479 -340 q 428 -371 447 -371 z "},"אּ":{"ha":844,"x_min":99,"x_max":760,"o":"m 658 -17 q 635 -4 643 -17 l 296 481 q 228 412 246 449 q 210 314 210 375 l 210 106 l 321 106 q 335 100 329 106 q 340 86 340 94 l 340 19 q 335 6 340 11 q 321 0 329 0 l 150 0 q 114 15 129 0 q 99 50 99 29 l 99 306 q 121 443 99 386 q 207 546 143 500 l 236 567 l 117 739 q 111 756 111 746 q 125 781 111 771 l 167 807 q 185 813 174 813 q 208 800 200 813 l 483 406 q 603 450 558 413 q 649 551 649 488 l 649 699 l 539 699 q 524 704 529 699 q 518 718 518 710 l 518 785 q 524 799 518 793 q 539 804 529 804 l 708 804 q 744 790 729 804 q 760 754 760 775 l 760 558 q 703 402 760 468 q 544 319 646 336 l 726 57 q 732 40 732 50 q 718 15 732 25 l 676 -11 q 658 -17 667 -17 m 515 513 q 474 530 492 513 q 456 571 456 547 q 474 612 456 594 q 515 629 492 629 q 557 612 539 629 q 575 571 575 594 q 557 530 575 547 q 515 513 539 513 z "},"בּ":{"ha":743,"x_min":64,"x_max":708,"o":"m 83 0 q 69 6 75 0 q 64 19 64 11 l 64 86 q 69 100 64 94 q 83 106 75 106 l 478 106 l 478 699 l 113 699 q 97 704 103 699 q 92 718 92 710 l 92 785 q 97 799 92 793 q 113 804 103 804 l 538 804 q 573 790 558 804 q 588 754 588 775 l 588 106 l 689 106 q 703 100 697 106 q 708 86 708 94 l 708 19 q 703 6 708 11 q 689 0 697 0 l 83 0 m 257 349 q 215 366 233 349 q 197 407 197 383 q 215 448 197 431 q 257 465 233 465 q 299 448 281 465 q 317 407 317 431 q 299 366 317 383 q 257 349 281 349 z "},"גּ":{"ha":557,"x_min":35,"x_max":436,"o":"m 56 -6 q 40 0 46 -6 q 35 14 35 6 l 35 83 q 41 97 35 92 q 56 103 47 103 l 78 103 q 123 113 101 103 q 196 157 144 124 l 232 181 l 326 240 l 326 699 l 128 699 q 114 704 119 699 q 108 718 108 710 l 108 785 q 114 799 108 793 q 128 804 119 804 l 385 804 q 422 790 407 804 q 436 754 436 775 l 436 19 q 431 6 436 11 q 417 0 425 0 l 349 0 q 335 6 340 0 q 329 19 329 11 l 329 124 l 326 124 l 235 63 q 144 9 175 24 q 75 -6 113 -6 l 56 -6 m 189 399 q 147 416 165 399 q 129 457 129 433 q 147 498 129 481 q 189 515 165 515 q 231 498 213 515 q 249 457 249 481 q 231 416 249 433 q 189 399 213 399 z "},"דּ":{"ha":756,"x_min":64,"x_max":699,"o":"m 458 0 q 444 6 450 0 q 439 19 439 11 l 439 699 l 83 699 q 69 704 75 699 q 64 718 64 710 l 64 785 q 69 799 64 793 q 83 804 75 804 l 679 804 q 693 799 688 804 q 699 785 699 793 l 699 718 q 693 704 699 710 q 679 699 688 699 l 550 699 l 550 19 q 544 6 550 11 q 529 0 539 0 l 458 0 m 253 335 q 211 352 229 335 q 193 393 193 369 q 211 434 193 417 q 253 451 229 451 q 294 434 276 451 q 313 393 313 417 q 294 352 313 369 q 253 335 276 335 z "},"הּ":{"ha":846,"x_min":121,"x_max":725,"o":"m 635 0 q 621 6 626 0 q 615 19 615 11 l 615 699 l 140 700 q 126 706 132 700 q 121 719 121 711 l 121 785 q 126 799 121 793 q 140 804 132 804 l 675 804 q 710 790 696 804 q 725 754 725 775 l 725 19 q 719 6 725 11 q 706 0 714 0 l 635 0 m 140 0 q 126 6 132 0 q 121 19 121 11 l 121 436 q 126 450 121 444 q 140 456 132 456 l 211 456 q 225 450 219 456 q 231 436 231 444 l 231 19 q 225 6 231 11 q 211 0 219 0 l 140 0 m 424 335 q 382 352 400 335 q 364 393 364 369 q 382 434 364 417 q 424 451 400 451 q 465 434 447 451 q 483 393 483 417 q 465 352 483 369 q 424 335 447 335 z "},"וּ":{"ha":439,"x_min":33,"x_max":318,"o":"m 228 0 q 214 6 219 0 q 208 19 208 11 l 208 699 l 90 699 q 76 704 82 699 q 71 718 71 710 l 71 785 q 76 799 71 793 q 90 804 82 804 l 268 804 q 303 790 289 804 q 318 754 318 775 l 318 19 q 313 6 318 11 q 299 0 307 0 l 228 0 m 93 335 q 51 352 69 335 q 33 393 33 369 q 51 434 33 417 q 93 451 69 451 q 135 434 117 451 q 153 393 153 417 q 135 352 153 369 q 93 335 117 335 z "},"זּ":{"ha":511,"x_min":64,"x_max":454,"o":"m 240 0 q 226 6 232 0 q 221 19 221 11 l 221 88 q 213 185 221 138 q 186 310 204 233 q 165 414 172 371 q 157 496 157 457 q 176 603 157 553 q 242 699 194 653 l 85 699 q 70 704 76 699 q 64 719 64 710 l 65 785 q 71 799 65 794 q 85 804 76 804 l 435 804 q 449 799 443 804 q 454 785 454 793 l 454 726 q 449 713 454 719 q 438 704 444 706 q 268 493 268 658 q 276 417 268 457 q 297 319 283 378 q 323 194 314 244 q 332 88 332 143 l 332 19 q 311 0 332 0 l 240 0 m 392 450 q 350 467 368 450 q 332 508 332 485 q 350 549 332 532 q 392 567 368 567 q 433 549 415 567 q 451 508 451 532 q 433 467 451 485 q 392 450 415 450 z "},"טּ":{"ha":860,"x_min":121,"x_max":768,"o":"m 171 0 q 135 15 150 0 q 121 50 121 29 l 121 785 q 126 799 121 793 q 140 804 132 804 l 211 804 q 225 799 219 804 q 231 785 231 793 l 231 104 l 472 104 q 604 158 550 104 q 658 288 658 211 l 658 632 q 635 694 658 672 q 578 715 613 715 q 519 692 542 715 q 496 635 496 668 l 496 424 q 490 410 496 415 q 476 404 485 404 l 406 404 q 391 410 397 404 q 385 424 385 415 l 385 631 q 411 725 385 682 q 483 793 438 768 q 583 818 528 818 q 716 767 664 818 q 768 631 768 717 l 768 276 q 730 138 768 201 q 627 38 692 75 q 486 0 563 0 l 171 0 m 497 200 q 456 217 474 200 q 438 258 438 235 q 456 299 438 282 q 497 317 474 317 q 539 299 521 317 q 557 258 557 282 q 539 217 557 235 q 497 200 521 200 z "},"יּ":{"ha":404,"x_min":11,"x_max":318,"o":"m 228 349 q 214 354 219 349 q 208 368 208 360 l 208 699 l 90 699 q 76 704 82 699 q 71 718 71 710 l 71 785 q 76 799 71 793 q 90 804 82 804 l 268 804 q 303 790 289 804 q 318 754 318 775 l 318 368 q 313 354 318 360 q 299 349 307 349 l 228 349 m 71 475 q 29 492 47 475 q 11 533 11 510 q 29 574 11 557 q 71 592 47 592 q 113 574 94 592 q 131 533 131 557 q 113 492 131 510 q 71 475 94 475 z "},"ךּ":{"ha":739,"x_min":64,"x_max":676,"o":"m 497 -201 q 461 -187 476 -201 q 446 -151 446 -172 l 446 699 l 83 699 q 69 704 75 699 q 64 718 64 710 l 64 785 q 69 799 64 793 q 83 804 75 804 l 656 804 q 670 799 664 804 q 676 785 676 793 l 676 718 q 670 704 676 710 q 656 699 664 699 l 557 699 l 557 -97 l 653 -97 q 667 -103 661 -97 q 672 -117 672 -108 l 672 -182 q 667 -196 672 -190 q 653 -201 661 -201 l 497 -201 m 347 335 q 306 352 324 335 q 288 393 288 369 q 306 434 288 417 q 347 451 324 451 q 389 434 371 451 q 407 393 407 417 q 389 352 407 369 q 347 335 371 335 z "},"כּ":{"ha":733,"x_min":85,"x_max":628,"o":"m 104 0 q 90 6 96 0 q 85 19 85 11 l 85 86 q 90 100 85 94 q 104 106 96 106 l 447 106 q 497 124 476 106 q 517 171 517 143 l 517 699 l 118 699 q 103 704 108 699 q 97 718 97 710 l 97 785 q 103 799 97 793 q 118 804 108 804 l 576 804 q 613 790 599 804 q 628 754 628 775 l 628 171 q 603 85 628 125 q 538 23 579 46 q 447 0 496 0 l 104 0 m 282 349 q 240 366 258 349 q 222 407 222 383 q 240 448 222 431 q 282 465 258 465 q 324 448 306 465 q 342 407 342 431 q 324 366 342 383 q 282 349 306 349 z "},"לּ":{"ha":693,"x_min":64,"x_max":629,"o":"m 261 0 q 247 6 253 0 q 240 19 240 11 l 240 114 q 264 258 240 196 q 321 365 288 321 q 407 464 354 408 q 493 569 465 526 q 521 668 521 613 l 521 699 l 135 699 q 84 718 104 699 q 64 768 64 738 l 64 993 q 69 1007 64 1001 q 83 1013 75 1013 l 154 1013 q 168 1007 163 1013 q 174 993 174 1001 l 174 804 l 578 804 q 615 790 600 804 q 629 754 629 775 l 629 686 q 609 565 629 618 q 561 476 589 513 q 486 389 533 439 q 416 308 442 342 q 372 230 390 275 q 354 128 354 185 l 354 19 q 349 6 354 11 q 335 0 343 0 l 261 0 m 242 482 q 200 499 218 482 q 182 540 182 517 q 200 581 182 564 q 242 599 218 599 q 283 581 265 599 q 301 540 301 564 q 283 499 301 517 q 242 482 265 482 z "},"מּ":{"ha":858,"x_min":71,"x_max":760,"o":"m 182 0 q 167 6 172 0 q 161 19 161 11 l 161 699 l 90 699 q 76 704 82 699 q 71 718 71 710 l 71 785 q 76 799 71 793 q 90 804 82 804 l 231 804 q 256 794 246 804 q 267 769 267 785 l 267 707 q 365 788 306 758 q 496 818 425 818 q 633 785 574 818 q 726 695 693 751 q 760 575 760 639 l 760 171 q 707 49 758 99 q 582 0 656 0 l 442 0 q 428 6 433 0 q 422 19 422 11 l 422 86 q 428 100 422 94 q 442 106 433 106 l 581 106 q 629 125 610 106 q 649 172 649 144 l 649 549 q 601 670 649 624 q 478 717 554 717 q 329 660 386 717 q 272 515 272 604 l 272 19 q 267 6 272 11 q 253 0 261 0 l 182 0 m 457 349 q 415 366 433 349 q 397 407 397 383 q 415 448 397 431 q 457 465 433 465 q 499 448 481 465 q 517 407 517 431 q 499 366 517 383 q 457 349 481 349 z "},"נּ":{"ha":485,"x_min":57,"x_max":378,"o":"m 76 0 q 63 6 68 0 q 57 19 57 11 l 57 86 q 63 100 57 94 q 76 106 68 106 l 194 106 q 247 126 225 106 q 268 178 268 147 l 268 699 l 119 699 q 105 704 111 699 q 99 718 99 710 l 99 785 q 105 799 99 793 q 119 804 111 804 l 328 804 q 363 790 349 804 q 378 754 378 775 l 378 178 q 353 90 378 131 q 286 24 328 49 q 197 0 244 0 l 76 0 m 128 335 q 86 352 104 335 q 68 393 68 369 q 86 434 68 417 q 128 451 104 451 q 169 434 151 451 q 188 393 188 417 q 169 352 188 369 q 128 335 151 335 z "},"סּ":{"ha":840,"x_min":63,"x_max":743,"o":"m 456 -15 q 310 24 376 -15 q 206 128 244 63 q 167 274 167 194 l 167 699 l 82 699 q 68 704 74 699 q 63 718 63 710 l 63 785 q 68 799 63 793 q 82 804 74 804 l 693 804 q 728 790 714 804 q 743 754 743 775 l 743 274 q 704 128 743 194 q 599 24 665 63 q 456 -15 533 -15 m 456 88 q 545 112 504 88 q 610 178 586 136 q 635 268 635 219 l 635 699 l 275 699 l 275 268 q 299 178 275 219 q 365 112 324 136 q 456 88 407 88 m 454 349 q 413 366 431 349 q 396 407 396 383 q 413 448 396 431 q 454 465 431 465 q 495 448 478 465 q 513 407 513 431 q 495 366 513 383 q 454 349 478 349 z "},"ףּ":{"ha":842,"x_min":64,"x_max":842,"o":"m 665 -201 q 630 -187 644 -201 q 615 -151 615 -172 l 615 699 l 281 699 l 281 432 l 404 432 q 418 426 413 432 q 424 413 424 421 l 424 347 q 418 333 424 339 q 404 328 413 328 l 221 328 q 185 342 200 328 q 169 378 169 357 l 169 699 l 83 699 q 69 704 75 699 q 64 718 64 710 l 64 785 q 69 799 64 793 q 83 804 75 804 l 675 804 q 710 790 696 804 q 725 754 725 775 l 725 -97 l 822 -97 q 836 -103 831 -97 q 842 -117 842 -108 l 842 -182 q 836 -196 842 -190 q 822 -201 831 -201 l 665 -201 m 460 493 q 418 510 436 493 q 400 551 400 528 q 418 592 400 575 q 460 610 436 610 q 501 592 483 610 q 519 551 519 575 q 501 510 519 528 q 460 493 483 493 z "},"פּ":{"ha":839,"x_min":64,"x_max":732,"o":"m 175 0 q 161 6 167 0 q 156 19 156 11 l 156 86 q 161 100 156 94 q 175 106 167 106 l 554 106 q 602 125 582 106 q 622 172 622 144 l 622 699 l 281 699 l 281 454 l 408 454 q 422 449 417 454 q 428 435 428 443 l 428 368 q 422 354 428 360 q 408 349 417 349 l 221 349 q 178 360 186 349 q 169 399 169 372 l 169 699 l 83 699 q 69 704 75 699 q 64 718 64 710 l 64 785 q 69 799 64 793 q 83 804 75 804 l 682 804 q 717 790 703 804 q 732 754 732 775 l 732 174 q 708 87 732 126 q 642 24 683 47 q 554 0 601 0 l 175 0 m 490 515 q 449 533 467 515 q 431 574 431 550 q 449 615 431 597 q 490 632 467 632 q 532 615 514 632 q 550 574 550 597 q 532 533 550 550 q 490 515 514 515 z "},"צּ":{"ha":813,"x_min":74,"x_max":728,"o":"m 149 0 q 135 6 140 0 q 129 19 129 11 l 129 86 q 135 100 129 94 q 149 106 140 106 l 594 106 q 574 192 594 160 q 510 256 553 225 q 461 290 485 274 q 417 321 438 307 q 354 365 375 351 q 249 452 283 417 q 203 525 215 488 q 190 622 190 563 l 190 699 l 93 699 q 79 704 85 699 q 74 718 74 710 l 74 785 q 79 799 74 793 q 93 804 85 804 l 250 804 q 285 790 271 804 q 300 754 300 775 l 300 622 q 314 555 300 582 q 354 504 328 528 q 447 431 381 481 q 574 500 531 457 q 618 617 618 543 l 618 699 l 521 699 q 507 704 513 699 q 501 718 501 710 l 501 785 q 507 799 501 793 q 521 804 513 804 l 678 804 q 713 790 699 804 q 728 754 728 775 l 728 656 q 688 477 728 544 q 543 365 647 410 q 644 282 610 319 q 692 204 679 244 q 706 104 706 164 l 706 50 q 691 15 706 29 q 654 0 676 0 l 149 0 m 303 174 q 261 191 279 174 q 243 232 243 208 q 261 273 243 256 q 303 290 279 290 q 344 273 326 290 q 363 232 363 256 q 344 191 363 208 q 303 174 326 174 z "},"קּ":{"ha":833,"x_min":114,"x_max":769,"o":"m 429 0 q 415 6 421 0 q 410 19 410 11 l 410 111 q 431 253 410 192 q 480 358 451 315 q 556 456 508 400 q 633 561 608 517 q 658 664 658 606 l 658 699 l 133 699 q 119 704 125 699 q 114 718 114 710 l 114 785 q 119 799 114 793 q 133 804 125 804 l 718 804 q 755 790 740 804 q 769 754 769 775 l 769 685 q 752 564 769 617 q 708 474 735 511 q 640 386 682 436 q 575 302 599 336 q 535 221 551 268 q 519 114 519 174 l 519 19 q 514 6 519 11 q 500 0 508 0 l 429 0 m 418 486 q 376 503 394 486 q 358 544 358 521 q 376 585 358 568 q 418 603 394 603 q 460 585 442 603 q 478 544 478 568 q 460 503 478 521 q 418 486 442 486 m 140 -201 q 126 -196 132 -201 q 121 -182 121 -190 l 121 469 q 126 483 121 478 q 140 489 132 489 l 210 489 q 224 483 218 489 q 229 469 229 478 l 229 -182 q 224 -196 229 -190 q 210 -201 218 -201 l 140 -201 z "},"רּ":{"ha":742,"x_min":71,"x_max":622,"o":"m 531 0 q 517 6 522 0 q 511 19 511 11 l 511 699 l 90 699 q 76 704 82 699 q 71 718 71 710 l 71 785 q 76 799 71 793 q 90 804 82 804 l 571 804 q 607 790 592 804 q 622 754 622 775 l 622 19 q 617 6 622 11 q 601 0 611 0 l 531 0 m 272 335 q 231 352 249 335 q 213 393 213 369 q 231 434 213 417 q 272 451 249 451 q 314 434 296 451 q 332 393 332 417 q 314 352 332 369 q 272 335 296 335 z "},"שּ":{"ha":989,"x_min":114,"x_max":875,"o":"m 290 0 q 202 24 243 0 q 138 87 161 47 q 114 174 114 126 l 114 754 q 128 790 114 775 q 164 804 143 804 l 292 804 q 306 799 300 804 q 311 785 311 793 l 311 721 q 306 707 311 713 q 292 701 300 701 l 217 701 l 217 172 q 237 125 217 144 q 285 106 257 106 l 442 106 l 442 785 q 447 799 442 793 q 463 804 453 804 l 525 804 q 540 799 535 804 q 546 785 546 793 l 546 106 l 703 106 q 751 125 731 106 q 772 172 772 144 l 772 701 l 697 701 q 683 707 689 701 q 678 721 678 713 l 678 785 q 683 799 678 793 q 697 804 689 804 l 825 804 q 860 790 846 804 q 875 754 875 775 l 875 174 q 851 87 875 126 q 787 24 828 47 q 697 0 746 0 l 290 0 m 658 349 q 617 366 635 349 q 599 407 599 383 q 617 448 599 431 q 658 465 635 465 q 700 448 682 465 q 718 407 718 431 q 700 366 718 383 q 658 349 682 349 z "},"תּ":{"ha":910,"x_min":78,"x_max":789,"o":"m 97 0 q 83 6 89 0 q 78 19 78 11 l 78 86 q 83 100 78 94 q 97 106 89 106 l 213 106 l 213 699 l 97 699 q 83 704 89 699 q 78 718 78 710 l 78 785 q 83 799 78 793 q 97 804 89 804 l 738 804 q 774 790 760 804 q 789 754 789 775 l 789 19 q 783 6 789 11 q 769 0 778 0 l 699 0 q 685 6 690 0 q 679 19 679 11 l 679 699 l 324 699 l 324 50 q 308 15 324 29 q 272 0 293 0 l 97 0 m 504 335 q 463 352 481 335 q 444 393 444 369 q 463 434 444 417 q 504 451 481 451 q 546 434 528 451 q 564 393 564 417 q 546 352 564 369 q 504 335 528 335 z "},"וֹ":{"ha":439,"x_min":71,"x_max":318,"o":"m 217 933 q 175 951 193 933 q 157 992 157 968 q 175 1033 157 1015 q 217 1050 193 1050 q 258 1033 240 1050 q 276 992 276 1015 q 258 951 276 968 q 217 933 240 933 m 228 0 q 214 6 219 0 q 208 19 208 11 l 208 699 l 90 699 q 76 704 82 699 q 71 718 71 710 l 71 785 q 76 799 71 793 q 90 804 82 804 l 268 804 q 303 790 289 804 q 318 754 318 775 l 318 19 q 313 6 318 11 q 299 0 307 0 l 228 0 z "},"⁄":{"ha":838,"x_min":28,"x_max":810,"o":"m 42 -18 q 32 -14 36 -18 q 28 -3 28 -10 l 28 64 q 33 82 28 75 l 782 975 q 796 982 788 982 q 806 978 801 982 q 810 967 810 974 l 810 900 q 804 882 810 889 l 56 -11 q 42 -18 50 -18 z "},"½":{"ha":1022,"x_min":92,"x_max":932,"o":"m 108 499 q 97 503 101 499 q 92 515 92 508 l 92 553 q 97 565 92 560 q 108 569 101 569 l 182 569 l 182 894 l 133 894 q 118 900 124 894 q 113 914 113 906 l 113 943 l 213 994 l 235 994 q 249 988 243 994 q 256 974 256 982 l 256 569 l 329 569 q 341 565 336 569 q 346 553 346 560 l 346 515 q 341 503 346 508 q 329 499 336 499 l 108 499 m 131 -18 q 121 -14 125 -18 q 117 -3 117 -10 l 117 64 q 122 82 117 75 l 871 975 q 885 982 876 982 q 894 978 890 982 q 899 967 899 974 l 899 900 q 893 882 899 889 l 144 -11 q 131 -18 139 -18 m 671 0 q 647 10 657 0 q 636 35 636 21 l 636 92 q 655 170 636 139 q 699 219 674 201 q 769 260 725 236 q 838 307 821 286 q 856 357 856 328 q 836 404 856 386 q 785 422 817 422 q 686 388 742 422 q 676 385 681 385 q 664 392 668 385 l 643 428 q 642 436 642 431 q 650 453 642 447 q 789 496 718 496 q 892 460 853 496 q 932 365 932 425 q 908 276 932 313 q 825 208 883 240 q 778 184 814 203 q 727 145 743 165 q 711 100 711 125 l 711 72 l 903 72 q 916 67 911 72 q 921 53 921 61 l 921 18 q 915 6 921 11 q 903 0 910 0 l 671 0 z "},"¼":{"ha":974,"x_min":97,"x_max":897,"o":"m 114 499 q 102 503 107 499 q 97 515 97 508 l 97 553 q 102 565 97 560 q 114 569 107 569 l 188 569 l 188 894 l 139 894 q 124 900 129 894 q 118 914 118 906 l 118 943 l 218 994 l 240 994 q 255 988 249 994 q 261 974 261 982 l 261 569 l 335 569 q 347 565 342 569 q 351 553 351 560 l 351 515 q 347 503 351 508 q 335 499 342 499 l 114 499 m 129 -18 q 119 -14 124 -18 q 115 -3 115 -10 l 115 64 q 121 82 115 75 l 869 975 q 883 982 875 982 q 893 978 889 982 q 897 967 897 974 l 897 900 q 892 882 897 889 l 143 -11 q 129 -18 138 -18 m 781 0 q 769 5 774 0 q 764 17 764 10 l 764 115 l 586 115 q 565 124 575 115 q 556 146 556 133 l 556 178 l 739 474 q 763 488 749 488 l 811 488 q 830 481 822 488 q 838 463 838 474 l 838 186 l 876 186 q 888 181 883 186 q 893 169 893 176 l 893 132 q 888 120 893 125 q 876 115 883 115 l 838 115 l 838 17 q 833 5 838 10 q 821 0 828 0 l 781 0 m 764 186 l 764 381 l 643 186 l 764 186 z "}}}
